{"glyphs":{"0":{"ha":719,"x_min":40,"x_max":679,"o":"m 360 -22 q 124 97 208 -22 q 40 431 40 217 q 124 765 40 646 q 360 883 208 883 q 594 763 508 883 q 679 431 679 642 q 594 99 679 219 q 360 -22 508 -22 m 360 79 q 515 174 458 79 q 571 431 571 268 q 515 688 571 593 q 360 782 458 782 q 205 689 261 782 q 149 431 149 596 q 205 172 149 265 q 360 79 261 79 z "},"1":{"ha":719,"x_min":118,"x_max":600,"o":"m 156 0 l 156 100 l 333 100 l 333 749 l 143 694 l 118 792 l 333 861 l 444 861 l 444 100 l 600 100 l 600 0 l 156 0 z "},"2":{"ha":719,"x_min":72,"x_max":608,"o":"m 72 0 l 72 88 l 378 433 q 465 551 440 504 q 489 650 489 599 q 442 749 489 713 q 315 785 396 785 q 251 777 286 785 q 183 758 215 769 q 135 732 151 746 l 90 818 q 196 866 135 849 q 315 883 257 883 q 523 820 446 883 q 600 650 600 757 q 569 521 600 588 q 468 376 538 454 l 224 100 l 608 100 l 608 0 l 72 0 z "},"3":{"ha":719,"x_min":64,"x_max":613,"o":"m 303 -22 q 168 -6 232 -22 q 64 38 104 10 l 110 121 q 194 90 138 103 q 303 76 250 76 q 450 123 393 76 q 507 242 507 169 q 458 349 507 310 q 326 389 408 389 l 194 389 l 194 485 l 244 485 q 420 531 353 485 q 488 650 488 576 q 441 749 488 713 q 314 785 394 785 q 249 777 285 785 q 182 758 214 769 q 133 732 150 746 l 89 818 q 194 866 133 849 q 314 883 256 883 q 519 820 444 883 q 593 646 593 757 q 563 534 593 583 q 478 453 532 485 q 578 372 543 426 q 613 244 613 318 q 573 106 613 167 q 463 12 533 46 q 303 -22 393 -22 z "},"4":{"ha":719,"x_min":46,"x_max":643,"o":"m 461 0 l 461 197 l 46 197 l 46 254 l 293 861 l 411 861 l 181 297 l 461 297 l 461 625 l 569 625 l 569 297 l 643 297 l 643 197 l 569 197 l 569 0 l 461 0 z "},"5":{"ha":719,"x_min":75,"x_max":624,"o":"m 314 -22 q 179 -6 243 -22 q 75 38 115 10 l 121 121 q 205 90 149 103 q 314 76 261 76 q 461 123 404 76 q 518 242 518 169 q 469 359 518 315 q 338 403 419 403 l 133 403 l 151 861 l 585 861 l 585 761 l 251 761 l 240 501 l 338 501 q 549 435 474 501 q 624 244 624 368 q 584 106 624 167 q 474 12 544 46 q 314 -22 404 -22 z "},"6":{"ha":719,"x_min":69,"x_max":669,"o":"m 375 -22 q 213 24 282 -22 q 107 155 144 69 q 69 356 69 240 q 114 635 69 517 q 240 819 158 754 q 431 883 321 883 q 643 807 567 883 l 594 722 q 429 785 536 785 q 260 691 326 785 q 181 439 193 597 q 283 502 229 479 q 393 525 338 525 q 594 454 518 525 q 669 267 669 383 q 633 115 669 179 q 530 14 596 50 q 375 -22 464 -22 m 376 76 q 510 126 458 76 q 561 256 561 175 q 515 381 561 333 q 390 428 468 428 q 179 318 267 428 q 376 76 199 76 z "},"7":{"ha":719,"x_min":81,"x_max":647,"o":"m 190 0 l 511 761 l 81 761 l 81 861 l 647 861 l 647 804 l 311 0 l 190 0 z "},"8":{"ha":719,"x_min":60,"x_max":660,"o":"m 360 -22 q 206 10 274 -22 q 99 98 138 42 q 60 226 60 154 q 99 363 60 303 q 213 457 139 422 q 92 644 92 526 q 165 818 92 753 q 360 883 238 883 q 556 819 483 883 q 628 644 628 754 q 597 538 628 588 q 510 453 567 488 q 660 226 660 383 q 621 98 660 154 q 515 10 582 42 q 360 -22 447 -22 m 404 486 q 522 651 522 549 q 478 749 522 713 q 360 785 433 785 q 242 747 286 785 q 197 647 197 710 q 244 551 197 588 q 404 486 290 515 m 360 76 q 500 119 446 76 q 554 226 554 161 q 531 312 554 281 q 469 361 507 343 q 388 391 431 379 q 306 417 344 403 q 165 226 165 343 q 220 119 165 161 q 360 76 275 76 z "},"9":{"ha":719,"x_min":50,"x_max":650,"o":"m 301 -22 q 56 54 144 -22 l 113 139 q 303 76 175 76 q 464 167 401 76 q 539 410 526 257 q 431 349 489 371 q 314 326 372 326 q 176 360 236 326 q 83 454 117 394 q 50 592 50 514 q 87 745 50 679 q 190 847 124 811 q 344 883 257 883 q 570 778 490 883 q 650 478 650 672 q 607 214 650 326 q 485 40 564 101 q 301 -22 407 -22 m 314 424 q 435 453 375 424 q 539 533 496 482 q 479 719 529 654 q 344 785 429 785 q 210 731 261 785 q 158 592 158 678 q 202 470 158 517 q 314 424 246 424 z "},"A":{"ha":772,"x_min":0,"x_max":772,"o":"m 0 0 l 318 944 l 454 944 l 772 0 l 657 0 l 565 278 l 207 278 l 115 0 l 0 0 m 239 378 l 532 378 l 386 822 l 239 378 z "},"Á":{"ha":772,"x_min":0,"x_max":772,"o":"m 0 0 l 318 944 l 454 944 l 772 0 l 657 0 l 565 278 l 207 278 l 115 0 l 0 0 m 239 378 l 532 378 l 386 822 l 239 378 m 278 993 l 244 1028 l 386 1222 q 458 1271 421 1271 q 528 1197 501 1271 l 278 993 z "},"Ă":{"ha":772,"x_min":0,"x_max":772,"o":"m 0 0 l 318 944 l 454 944 l 772 0 l 657 0 l 565 278 l 207 278 l 115 0 l 0 0 m 239 378 l 532 378 l 386 822 l 239 378 m 386 1043 q 263 1090 310 1043 q 217 1214 217 1136 l 303 1214 q 326 1151 303 1175 q 386 1128 349 1128 q 446 1151 422 1128 q 469 1214 469 1175 l 556 1214 q 509 1090 556 1138 q 386 1043 463 1043 z "},"Â":{"ha":772,"x_min":0,"x_max":772,"o":"m 0 0 l 318 944 l 454 944 l 772 0 l 657 0 l 565 278 l 207 278 l 115 0 l 0 0 m 239 378 l 532 378 l 386 822 l 239 378 m 224 996 l 190 1031 l 325 1221 q 353 1251 340 1242 q 386 1260 367 1260 q 419 1251 406 1260 q 447 1221 432 1243 l 582 1031 l 549 996 l 386 1144 l 224 996 z "},"Ä":{"ha":772,"x_min":0,"x_max":772,"o":"m 0 0 l 318 944 l 454 944 l 772 0 l 657 0 l 565 278 l 207 278 l 115 0 l 0 0 m 239 378 l 532 378 l 386 822 l 239 378 m 510 1078 q 461 1096 479 1078 q 443 1144 443 1114 q 461 1193 443 1175 q 510 1211 479 1211 q 558 1192 539 1211 q 576 1144 576 1174 q 558 1096 576 1114 q 510 1078 539 1078 m 263 1078 q 214 1096 232 1078 q 196 1144 196 1114 q 214 1193 196 1175 q 263 1211 232 1211 q 310 1192 292 1211 q 329 1144 329 1174 q 310 1096 329 1114 q 263 1078 292 1078 z "},"À":{"ha":772,"x_min":0,"x_max":772,"o":"m 0 0 l 318 944 l 454 944 l 772 0 l 657 0 l 565 278 l 207 278 l 115 0 l 0 0 m 239 378 l 532 378 l 386 822 l 239 378 m 494 993 l 244 1197 q 314 1271 268 1271 q 386 1222 349 1271 l 528 1028 l 494 993 z "},"Ā":{"ha":772,"x_min":0,"x_max":772,"o":"m 0 0 l 318 944 l 454 944 l 772 0 l 657 0 l 565 278 l 207 278 l 115 0 l 0 0 m 239 378 l 532 378 l 386 822 l 239 378 m 197 1090 l 197 1190 l 574 1190 l 574 1090 l 197 1090 z "},"Ą":{"ha":772,"x_min":0,"x_max":806,"o":"m 0 0 l 318 944 l 454 944 l 772 0 l 657 0 l 565 278 l 207 278 l 115 0 l 0 0 m 239 378 l 532 378 l 386 822 l 239 378 m 683 -287 q 598 -256 632 -287 q 564 -175 564 -224 q 599 -75 564 -122 q 694 0 635 -28 l 772 0 q 681 -78 713 -36 q 649 -161 649 -121 q 663 -200 649 -185 q 699 -215 676 -215 q 736 -206 715 -215 q 769 -185 757 -197 l 806 -232 q 752 -271 789 -254 q 683 -287 715 -287 z "},"Å":{"ha":772,"x_min":0,"x_max":772,"o":"m 0 0 l 318 944 l 454 944 l 772 0 l 657 0 l 565 278 l 207 278 l 115 0 l 0 0 m 239 378 l 532 378 l 386 822 l 239 378 m 386 996 q 284 1034 322 996 q 246 1136 246 1072 q 284 1238 246 1200 q 386 1276 322 1276 q 488 1238 449 1276 q 526 1136 526 1199 q 488 1034 526 1072 q 386 996 449 996 m 386 1067 q 436 1086 417 1067 q 456 1136 456 1106 q 436 1186 456 1167 q 386 1206 417 1206 q 335 1187 354 1206 q 317 1136 317 1168 q 335 1085 317 1104 q 386 1067 354 1067 z "},"Ǻ":{"ha":772,"x_min":0,"x_max":772,"o":"m 385 996 q 283 1034 321 996 q 244 1136 244 1072 q 283 1238 244 1200 q 385 1276 321 1276 q 440 1267 413 1276 l 499 1346 q 560 1388 528 1388 q 618 1325 596 1388 l 496 1225 q 525 1136 525 1188 q 486 1034 525 1072 q 385 996 447 996 m 385 1067 q 435 1086 415 1067 q 454 1136 454 1106 q 435 1186 454 1167 q 385 1206 415 1206 q 334 1187 353 1206 q 315 1136 315 1168 q 334 1085 315 1104 q 385 1067 353 1067 m 0 0 l 318 944 l 454 944 l 772 0 l 657 0 l 565 278 l 207 278 l 115 0 l 0 0 m 239 378 l 532 378 l 386 822 l 239 378 z "},"Ã":{"ha":772,"x_min":0,"x_max":772,"o":"m 0 0 l 318 944 l 454 944 l 772 0 l 657 0 l 565 278 l 207 278 l 115 0 l 0 0 m 239 378 l 532 378 l 386 822 l 239 378 m 231 1050 l 165 1061 q 286 1211 190 1211 q 353 1201 321 1211 q 415 1180 385 1190 q 475 1169 446 1169 q 540 1231 531 1169 l 606 1219 q 479 1069 578 1069 q 415 1080 446 1069 q 354 1101 383 1090 q 296 1111 325 1111 q 231 1050 239 1111 z "},"Æ":{"ha":1054,"x_min":0,"x_max":1006,"o":"m 0 0 l 318 944 l 950 944 l 950 844 l 538 844 l 610 478 l 929 478 l 929 378 l 629 378 l 683 100 l 1006 100 l 1006 0 l 590 0 l 518 378 l 239 378 l 115 0 l 0 0 m 272 478 l 499 478 l 429 844 l 393 844 l 272 478 z "},"Ǽ":{"ha":1054,"x_min":0,"x_max":1006,"o":"m 0 0 l 318 944 l 950 944 l 950 844 l 538 844 l 610 478 l 929 478 l 929 378 l 629 378 l 683 100 l 1006 100 l 1006 0 l 590 0 l 518 378 l 239 378 l 115 0 l 0 0 m 272 478 l 499 478 l 429 844 l 393 844 l 272 478 m 519 993 l 486 1028 l 628 1222 q 700 1271 663 1271 q 769 1197 743 1271 l 519 993 z "},"B":{"ha":783,"x_min":125,"x_max":742,"o":"m 125 0 l 125 944 l 472 944 q 588 914 536 944 q 669 832 639 883 q 700 717 700 781 q 666 597 700 650 q 578 515 632 543 q 697 426 651 488 q 742 282 742 364 q 704 140 742 204 q 603 38 667 75 q 460 0 539 0 l 125 0 m 236 564 l 451 564 q 553 605 513 564 q 594 704 594 646 q 553 803 594 763 q 451 844 513 844 l 236 844 l 236 564 m 236 100 l 457 100 q 547 125 506 100 q 612 191 588 150 q 636 282 636 232 q 612 374 636 332 q 547 440 588 415 q 457 464 507 464 l 236 464 l 236 100 z "},"C":{"ha":742,"x_min":69,"x_max":728,"o":"m 467 -22 q 174 108 279 -22 q 69 472 69 239 q 174 836 69 706 q 467 967 279 967 q 704 901 596 967 l 665 808 q 467 865 575 865 q 256 762 332 865 q 181 472 181 658 q 256 183 181 288 q 467 79 332 79 q 578 94 522 79 q 679 138 633 110 l 728 51 q 467 -22 608 -22 z "},"Ć":{"ha":742,"x_min":69,"x_max":728,"o":"m 467 -22 q 174 108 279 -22 q 69 472 69 239 q 174 836 69 706 q 467 967 279 967 q 704 901 596 967 l 665 808 q 467 865 575 865 q 256 762 332 865 q 181 472 181 658 q 256 183 181 288 q 467 79 332 79 q 578 94 522 79 q 679 138 633 110 l 728 51 q 467 -22 608 -22 m 364 993 l 331 1028 l 472 1222 q 544 1271 507 1271 q 614 1197 588 1271 l 364 993 z "},"Č":{"ha":742,"x_min":69,"x_max":728,"o":"m 467 -22 q 174 108 279 -22 q 69 472 69 239 q 174 836 69 706 q 467 967 279 967 q 704 901 596 967 l 665 808 q 467 865 575 865 q 256 762 332 865 q 181 472 181 658 q 256 183 181 288 q 467 79 332 79 q 578 94 522 79 q 679 138 633 110 l 728 51 q 467 -22 608 -22 m 472 996 q 440 1005 453 996 q 411 1035 426 1014 l 276 1225 l 310 1260 l 472 1111 l 635 1260 l 668 1225 l 533 1035 q 505 1004 518 1013 q 472 996 492 996 z "},"Ç":{"ha":742,"x_min":69,"x_max":728,"o":"m 467 -22 q 174 108 279 -22 q 69 472 69 239 q 174 836 69 706 q 467 967 279 967 q 704 901 596 967 l 665 808 q 467 865 575 865 q 256 762 332 865 q 181 472 181 658 q 256 183 181 288 q 467 79 332 79 q 578 94 522 79 q 679 138 633 110 l 728 51 q 467 -22 608 -22 m 400 -283 q 335 -272 369 -283 q 286 -246 301 -260 l 318 -189 q 351 -205 326 -197 q 394 -212 375 -212 q 441 -199 424 -212 q 458 -164 458 -186 q 381 -122 458 -122 l 347 -122 l 381 33 l 449 33 l 426 -69 q 512 -97 479 -69 q 544 -169 544 -125 q 506 -253 544 -222 q 400 -283 467 -283 z "},"Ĉ":{"ha":742,"x_min":69,"x_max":728,"o":"m 467 -22 q 174 108 279 -22 q 69 472 69 239 q 174 836 69 706 q 467 967 279 967 q 704 901 596 967 l 665 808 q 467 865 575 865 q 256 762 332 865 q 181 472 181 658 q 256 183 181 288 q 467 79 332 79 q 578 94 522 79 q 679 138 633 110 l 728 51 q 467 -22 608 -22 m 310 996 l 276 1031 l 411 1221 q 440 1251 426 1242 q 472 1260 453 1260 q 505 1251 492 1260 q 533 1221 518 1243 l 668 1031 l 635 996 l 472 1144 l 310 996 z "},"Ċ":{"ha":742,"x_min":69,"x_max":728,"o":"m 467 -22 q 174 108 279 -22 q 69 472 69 239 q 174 836 69 706 q 467 967 279 967 q 704 901 596 967 l 665 808 q 467 865 575 865 q 256 762 332 865 q 181 472 181 658 q 256 183 181 288 q 467 79 332 79 q 578 94 522 79 q 679 138 633 110 l 728 51 q 467 -22 608 -22 m 472 1064 q 413 1085 435 1064 q 392 1144 392 1107 q 413 1203 392 1181 q 472 1225 435 1225 q 531 1203 508 1225 q 553 1144 553 1181 q 531 1087 553 1110 q 472 1064 508 1064 z "},"D":{"ha":904,"x_min":125,"x_max":863,"o":"m 125 0 l 125 944 l 463 944 q 677 888 588 944 q 815 726 767 832 q 863 472 863 621 q 815 219 863 325 q 677 56 767 113 q 463 0 588 0 l 125 0 m 236 100 l 463 100 q 675 199 599 100 q 751 472 751 297 q 675 746 751 647 q 463 844 599 844 l 236 844 l 236 100 z "},"Ð":{"ha":904,"x_min":32,"x_max":863,"o":"m 125 0 l 125 440 l 32 440 l 32 510 l 125 510 l 125 944 l 463 944 q 677 888 588 944 q 815 726 767 832 q 863 472 863 621 q 815 219 863 325 q 677 56 767 113 q 463 0 588 0 l 125 0 m 236 100 l 463 100 q 675 199 599 100 q 751 472 751 297 q 675 746 751 647 q 463 844 599 844 l 236 844 l 236 510 l 563 510 l 563 440 l 236 440 l 236 100 z "},"Ď":{"ha":904,"x_min":125,"x_max":863,"o":"m 125 0 l 125 944 l 463 944 q 677 888 588 944 q 815 726 767 832 q 863 472 863 621 q 815 219 863 325 q 677 56 767 113 q 463 0 588 0 l 125 0 m 236 100 l 463 100 q 675 199 599 100 q 751 472 751 297 q 675 746 751 647 q 463 844 599 844 l 236 844 l 236 100 m 453 996 q 420 1005 433 996 q 392 1035 407 1014 l 257 1225 l 290 1260 l 453 1111 l 615 1260 l 649 1225 l 514 1035 q 485 1004 499 1013 q 453 996 472 996 z "},"Đ":{"ha":904,"x_min":32,"x_max":863,"o":"m 125 0 l 125 440 l 32 440 l 32 510 l 125 510 l 125 944 l 463 944 q 677 888 588 944 q 815 726 767 832 q 863 472 863 621 q 815 219 863 325 q 677 56 767 113 q 463 0 588 0 l 125 0 m 236 100 l 463 100 q 675 199 599 100 q 751 472 751 297 q 675 746 751 647 q 463 844 599 844 l 236 844 l 236 510 l 563 510 l 563 440 l 236 440 l 236 100 z "},"E":{"ha":708,"x_min":108,"x_max":650,"o":"m 108 0 l 108 944 l 622 944 l 622 844 l 219 844 l 219 522 l 549 522 l 549 422 l 219 422 l 219 100 l 650 100 l 650 0 l 108 0 z "},"É":{"ha":708,"x_min":108,"x_max":650,"o":"m 108 0 l 108 944 l 622 944 l 622 844 l 219 844 l 219 522 l 549 522 l 549 422 l 219 422 l 219 100 l 650 100 l 650 0 l 108 0 m 257 993 l 224 1028 l 365 1222 q 438 1271 400 1271 q 507 1197 481 1271 l 257 993 z "},"Ĕ":{"ha":708,"x_min":108,"x_max":650,"o":"m 108 0 l 108 944 l 622 944 l 622 844 l 219 844 l 219 522 l 549 522 l 549 422 l 219 422 l 219 100 l 650 100 l 650 0 l 108 0 m 365 1043 q 242 1090 289 1043 q 196 1214 196 1136 l 282 1214 q 305 1151 282 1175 q 365 1128 328 1128 q 425 1151 401 1128 q 449 1214 449 1175 l 535 1214 q 488 1090 535 1138 q 365 1043 442 1043 z "},"Ě":{"ha":708,"x_min":108,"x_max":650,"o":"m 108 0 l 108 944 l 622 944 l 622 844 l 219 844 l 219 522 l 549 522 l 549 422 l 219 422 l 219 100 l 650 100 l 650 0 l 108 0 m 365 996 q 333 1005 346 996 q 304 1035 319 1014 l 169 1225 l 203 1260 l 365 1111 l 528 1260 l 561 1225 l 426 1035 q 398 1004 411 1013 q 365 996 385 996 z "},"Ê":{"ha":708,"x_min":108,"x_max":650,"o":"m 108 0 l 108 944 l 622 944 l 622 844 l 219 844 l 219 522 l 549 522 l 549 422 l 219 422 l 219 100 l 650 100 l 650 0 l 108 0 m 203 996 l 169 1031 l 304 1221 q 333 1251 319 1242 q 365 1260 346 1260 q 398 1251 385 1260 q 426 1221 411 1243 l 561 1031 l 528 996 l 365 1144 l 203 996 z "},"Ë":{"ha":708,"x_min":108,"x_max":650,"o":"m 108 0 l 108 944 l 622 944 l 622 844 l 219 844 l 219 522 l 549 522 l 549 422 l 219 422 l 219 100 l 650 100 l 650 0 l 108 0 m 489 1078 q 440 1096 458 1078 q 422 1144 422 1114 q 440 1193 422 1175 q 489 1211 458 1211 q 537 1192 518 1211 q 556 1144 556 1174 q 537 1096 556 1114 q 489 1078 518 1078 m 242 1078 q 193 1096 211 1078 q 175 1144 175 1114 q 193 1193 175 1175 q 242 1211 211 1211 q 290 1192 271 1211 q 308 1144 308 1174 q 290 1096 308 1114 q 242 1078 271 1078 z "},"Ė":{"ha":708,"x_min":108,"x_max":650,"o":"m 108 0 l 108 944 l 622 944 l 622 844 l 219 844 l 219 522 l 549 522 l 549 422 l 219 422 l 219 100 l 650 100 l 650 0 l 108 0 m 365 1064 q 306 1085 328 1064 q 285 1144 285 1107 q 306 1203 285 1181 q 365 1225 328 1225 q 424 1203 401 1225 q 446 1144 446 1181 q 424 1087 446 1110 q 365 1064 401 1064 z "},"È":{"ha":708,"x_min":108,"x_max":650,"o":"m 108 0 l 108 944 l 622 944 l 622 844 l 219 844 l 219 522 l 549 522 l 549 422 l 219 422 l 219 100 l 650 100 l 650 0 l 108 0 m 474 993 l 224 1197 q 293 1271 247 1271 q 365 1222 328 1271 l 507 1028 l 474 993 z "},"Ē":{"ha":708,"x_min":108,"x_max":650,"o":"m 108 0 l 108 944 l 622 944 l 622 844 l 219 844 l 219 522 l 549 522 l 549 422 l 219 422 l 219 100 l 650 100 l 650 0 l 108 0 m 176 1090 l 176 1190 l 553 1190 l 553 1090 l 176 1090 z "},"Ę":{"ha":708,"x_min":108,"x_max":683,"o":"m 108 0 l 108 944 l 622 944 l 622 844 l 219 844 l 219 522 l 549 522 l 549 422 l 219 422 l 219 100 l 650 100 l 650 0 l 108 0 m 561 -287 q 476 -256 510 -287 q 442 -175 442 -224 q 477 -75 442 -122 q 572 0 513 -28 l 650 0 q 558 -78 590 -36 q 526 -161 526 -121 q 540 -200 526 -185 q 576 -215 554 -215 q 614 -206 593 -215 q 647 -185 635 -197 l 683 -232 q 630 -271 667 -254 q 561 -287 593 -287 z "},"F":{"ha":639,"x_min":125,"x_max":625,"o":"m 125 0 l 125 944 l 625 944 l 625 844 l 236 844 l 236 522 l 551 522 l 551 422 l 236 422 l 236 0 l 125 0 z "},"G":{"ha":896,"x_min":69,"x_max":792,"o":"m 471 -22 q 176 108 282 -22 q 69 472 69 239 q 176 836 69 706 q 471 967 282 967 q 623 951 550 967 q 753 903 696 935 l 714 808 q 596 851 660 836 q 467 865 532 865 q 256 762 332 865 q 181 472 181 658 q 256 183 181 286 q 467 79 332 79 q 587 92 531 79 q 686 129 643 104 l 686 422 l 474 422 l 474 522 l 792 522 l 792 74 q 471 -22 639 -22 z "},"Ğ":{"ha":896,"x_min":69,"x_max":792,"o":"m 471 -22 q 176 108 282 -22 q 69 472 69 239 q 176 836 69 706 q 471 967 282 967 q 623 951 550 967 q 753 903 696 935 l 714 808 q 596 851 660 836 q 467 865 532 865 q 256 762 332 865 q 181 472 181 658 q 256 183 181 286 q 467 79 332 79 q 587 92 531 79 q 686 129 643 104 l 686 422 l 474 422 l 474 522 l 792 522 l 792 74 q 471 -22 639 -22 m 475 1043 q 352 1090 399 1043 q 306 1214 306 1136 l 392 1214 q 415 1151 392 1175 q 475 1128 438 1128 q 535 1151 511 1128 q 558 1214 558 1175 l 644 1214 q 598 1090 644 1138 q 475 1043 551 1043 z "},"Ĝ":{"ha":896,"x_min":69,"x_max":792,"o":"m 471 -22 q 176 108 282 -22 q 69 472 69 239 q 176 836 69 706 q 471 967 282 967 q 623 951 550 967 q 753 903 696 935 l 714 808 q 596 851 660 836 q 467 865 532 865 q 256 762 332 865 q 181 472 181 658 q 256 183 181 286 q 467 79 332 79 q 587 92 531 79 q 686 129 643 104 l 686 422 l 474 422 l 474 522 l 792 522 l 792 74 q 471 -22 639 -22 m 313 996 l 279 1031 l 414 1221 q 442 1251 429 1242 q 475 1260 456 1260 q 508 1251 494 1260 q 536 1221 521 1243 l 671 1031 l 638 996 l 475 1144 l 313 996 z "},"Ģ":{"ha":896,"x_min":69,"x_max":792,"o":"m 471 -22 q 176 108 282 -22 q 69 472 69 239 q 176 836 69 706 q 471 967 282 967 q 623 951 550 967 q 753 903 696 935 l 714 808 q 596 851 660 836 q 467 865 532 865 q 256 762 332 865 q 181 472 181 658 q 256 183 181 286 q 467 79 332 79 q 587 92 531 79 q 686 129 643 104 l 686 422 l 474 422 l 474 522 l 792 522 l 792 74 q 471 -22 639 -22 m 411 -368 l 365 -354 l 378 -160 q 402 -103 381 -122 q 460 -83 424 -83 q 502 -92 482 -83 q 532 -115 522 -101 l 411 -368 z "},"Ġ":{"ha":896,"x_min":69,"x_max":792,"o":"m 471 -22 q 176 108 282 -22 q 69 472 69 239 q 176 836 69 706 q 471 967 282 967 q 623 951 550 967 q 753 903 696 935 l 714 808 q 596 851 660 836 q 467 865 532 865 q 256 762 332 865 q 181 472 181 658 q 256 183 181 286 q 467 79 332 79 q 587 92 531 79 q 686 129 643 104 l 686 422 l 474 422 l 474 522 l 792 522 l 792 74 q 471 -22 639 -22 m 475 1064 q 416 1085 438 1064 q 394 1144 394 1107 q 416 1203 394 1181 q 475 1225 438 1225 q 533 1203 511 1225 q 556 1144 556 1181 q 533 1087 556 1110 q 475 1064 511 1064 z "},"H":{"ha":922,"x_min":125,"x_max":797,"o":"m 125 0 l 125 944 l 236 944 l 236 524 l 686 524 l 686 944 l 797 944 l 797 0 l 686 0 l 686 421 l 236 421 l 236 0 l 125 0 z "},"Ħ":{"ha":922,"x_min":36,"x_max":885,"o":"m 125 0 l 125 694 l 36 694 l 36 764 l 125 764 l 125 944 l 236 944 l 236 764 l 686 764 l 686 944 l 797 944 l 797 764 l 885 764 l 885 694 l 797 694 l 797 0 l 686 0 l 686 421 l 236 421 l 236 0 l 125 0 m 236 524 l 686 524 l 686 694 l 236 694 l 236 524 z "},"Ĥ":{"ha":922,"x_min":125,"x_max":797,"o":"m 125 0 l 125 944 l 236 944 l 236 524 l 686 524 l 686 944 l 797 944 l 797 0 l 686 0 l 686 421 l 236 421 l 236 0 l 125 0 m 299 996 l 265 1031 l 400 1221 q 428 1251 415 1242 q 461 1260 442 1260 q 494 1251 481 1260 q 522 1221 507 1243 l 657 1031 l 624 996 l 461 1144 l 299 996 z "},"I":{"ha":361,"x_min":125,"x_max":236,"o":"m 125 0 l 125 944 l 236 944 l 236 0 l 125 0 z "},"Ĳ":{"ha":954,"x_min":125,"x_max":850,"o":"m 125 0 l 125 944 l 236 944 l 236 0 l 125 0 m 614 -22 q 361 79 463 -22 l 422 157 q 508 99 463 119 q 599 78 554 78 q 739 267 739 78 l 739 944 l 850 944 l 850 267 q 786 56 850 135 q 614 -22 722 -22 z "},"Í":{"ha":361,"x_min":39,"x_max":322,"o":"m 125 0 l 125 944 l 236 944 l 236 0 l 125 0 m 72 993 l 39 1028 l 181 1222 q 253 1271 215 1271 q 322 1197 296 1271 l 72 993 z "},"Ĭ":{"ha":361,"x_min":11,"x_max":350,"o":"m 125 0 l 125 944 l 236 944 l 236 0 l 125 0 m 181 1043 q 58 1090 104 1043 q 11 1214 11 1136 l 97 1214 q 120 1151 97 1175 q 181 1128 143 1128 q 240 1151 217 1128 q 264 1214 264 1175 l 350 1214 q 303 1090 350 1138 q 181 1043 257 1043 z "},"Î":{"ha":361,"x_min":-15,"x_max":376,"o":"m 125 0 l 125 944 l 236 944 l 236 0 l 125 0 m 18 996 l -15 1031 l 119 1221 q 148 1251 135 1242 q 181 1260 161 1260 q 213 1251 200 1260 q 242 1221 226 1243 l 376 1031 l 343 996 l 181 1144 l 18 996 z "},"Ï":{"ha":361,"x_min":-10,"x_max":371,"o":"m 125 0 l 125 944 l 236 944 l 236 0 l 125 0 m 304 1078 q 256 1096 274 1078 q 238 1144 238 1114 q 256 1193 238 1175 q 304 1211 274 1211 q 352 1192 333 1211 q 371 1144 371 1174 q 352 1096 371 1114 q 304 1078 333 1078 m 57 1078 q 8 1096 26 1078 q -10 1144 -10 1114 q 8 1193 -10 1175 q 57 1211 26 1211 q 105 1192 86 1211 q 124 1144 124 1174 q 105 1096 124 1114 q 57 1078 86 1078 z "},"İ":{"ha":361,"x_min":100,"x_max":261,"o":"m 125 0 l 125 944 l 236 944 l 236 0 l 125 0 m 181 1064 q 122 1085 143 1064 q 100 1144 100 1107 q 122 1203 100 1181 q 181 1225 143 1225 q 239 1203 217 1225 q 261 1144 261 1181 q 239 1087 261 1110 q 181 1064 217 1064 z "},"Ì":{"ha":361,"x_min":39,"x_max":322,"o":"m 125 0 l 125 944 l 236 944 l 236 0 l 125 0 m 289 993 l 39 1197 q 108 1271 63 1271 q 181 1222 143 1271 l 322 1028 l 289 993 z "},"Ī":{"ha":361,"x_min":-8,"x_max":368,"o":"m 125 0 l 125 944 l 236 944 l 236 0 l 125 0 m -8 1090 l -8 1190 l 368 1190 l 368 1090 l -8 1090 z "},"Į":{"ha":361,"x_min":28,"x_max":269,"o":"m 125 0 l 125 944 l 236 944 l 236 0 l 125 0 m 147 -287 q 62 -256 96 -287 q 28 -175 28 -224 q 63 -75 28 -122 q 158 0 99 -28 l 236 0 q 144 -78 176 -36 q 113 -161 113 -121 q 126 -200 113 -185 q 163 -215 140 -215 q 200 -206 179 -215 q 233 -185 221 -197 l 269 -232 q 216 -271 253 -254 q 147 -287 179 -287 z "},"Ĩ":{"ha":361,"x_min":-40,"x_max":400,"o":"m 125 0 l 125 944 l 236 944 l 236 0 l 125 0 m 25 1050 l -40 1061 q 81 1211 -15 1211 q 147 1201 115 1211 q 210 1180 179 1190 q 269 1169 240 1169 q 335 1231 325 1169 l 400 1219 q 274 1069 372 1069 q 209 1080 240 1069 q 149 1101 178 1090 q 90 1111 119 1111 q 25 1050 33 1111 z "},"J":{"ha":593,"x_min":0,"x_max":489,"o":"m 253 -22 q 0 79 101 -22 l 61 157 q 147 99 101 119 q 238 78 193 78 q 378 267 378 78 l 378 944 l 489 944 l 489 267 q 425 56 489 135 q 253 -22 361 -22 z "},"Ĵ":{"ha":593,"x_min":0,"x_max":629,"o":"m 253 -22 q 0 79 101 -22 l 61 157 q 147 99 101 119 q 238 78 193 78 q 378 267 378 78 l 378 944 l 489 944 l 489 267 q 425 56 489 135 q 253 -22 361 -22 m 271 996 l 238 1031 l 372 1221 q 401 1251 388 1242 q 433 1260 414 1260 q 466 1251 453 1260 q 494 1221 479 1243 l 629 1031 l 596 996 l 433 1144 l 271 996 z "},"K":{"ha":765,"x_min":125,"x_max":744,"o":"m 639 -22 l 501 342 q 472 392 488 379 q 428 404 457 404 l 236 404 l 236 0 l 125 0 l 125 944 l 236 944 l 236 501 l 325 501 l 607 944 l 731 944 l 447 500 q 548 463 510 494 q 613 361 586 431 l 744 11 l 639 -22 z "},"Ķ":{"ha":765,"x_min":125,"x_max":744,"o":"m 639 -22 l 501 342 q 472 392 488 379 q 428 404 457 404 l 236 404 l 236 0 l 125 0 l 125 944 l 236 944 l 236 501 l 325 501 l 607 944 l 731 944 l 447 500 q 548 463 510 494 q 613 361 586 431 l 744 11 l 639 -22 m 372 -368 l 326 -354 l 339 -160 q 363 -103 342 -122 q 421 -83 385 -83 q 463 -92 443 -83 q 493 -115 483 -101 l 372 -368 z "},"L":{"ha":621,"x_min":125,"x_max":621,"o":"m 125 0 l 125 944 l 236 944 l 236 100 l 621 100 l 621 0 l 125 0 z "},"Ĺ":{"ha":621,"x_min":68,"x_max":621,"o":"m 125 0 l 125 944 l 236 944 l 236 100 l 621 100 l 621 0 l 125 0 m 101 993 l 68 1028 l 210 1222 q 282 1271 244 1271 q 351 1197 325 1271 l 101 993 z "},"Ľ":{"ha":621,"x_min":125,"x_max":621,"o":"m 125 0 l 125 944 l 236 944 l 236 100 l 621 100 l 621 0 l 125 0 m 419 753 l 374 760 l 374 1075 q 402 1081 386 1078 q 435 1083 418 1083 q 500 1028 500 1083 q 494 987 500 1013 q 472 913 488 961 l 419 753 z "},"Ļ":{"ha":621,"x_min":125,"x_max":621,"o":"m 125 0 l 125 944 l 236 944 l 236 100 l 621 100 l 621 0 l 125 0 m 343 -368 l 297 -354 l 310 -160 q 334 -103 313 -122 q 392 -83 356 -83 q 434 -92 414 -83 q 464 -115 454 -101 l 343 -368 z "},"Ŀ":{"ha":621,"x_min":125,"x_max":621,"o":"m 125 0 l 125 944 l 236 944 l 236 100 l 621 100 l 621 0 l 125 0 m 424 392 q 368 413 389 392 q 347 468 347 433 q 368 524 347 503 q 424 544 389 544 q 479 524 458 544 q 500 468 500 503 q 479 413 500 433 q 424 392 458 392 z "},"Ł":{"ha":621,"x_min":-15,"x_max":621,"o":"m 125 0 l 125 393 l 31 325 l -15 386 l 125 486 l 125 944 l 236 944 l 236 567 l 342 642 l 386 581 l 236 472 l 236 100 l 621 100 l 621 0 l 125 0 z "},"M":{"ha":1132,"x_min":111,"x_max":1021,"o":"m 111 0 l 146 944 l 275 944 l 565 279 l 857 944 l 986 944 l 1021 0 l 910 0 l 882 739 l 624 147 l 508 147 l 249 739 l 222 0 l 111 0 z "},"N":{"ha":944,"x_min":125,"x_max":819,"o":"m 125 0 l 125 944 l 254 944 l 708 176 l 708 944 l 819 944 l 819 0 l 690 0 l 236 768 l 236 0 l 125 0 z "},"Ń":{"ha":944,"x_min":125,"x_max":819,"o":"m 125 0 l 125 944 l 254 944 l 708 176 l 708 944 l 819 944 l 819 0 l 690 0 l 236 768 l 236 0 l 125 0 m 364 993 l 331 1028 l 472 1222 q 544 1271 507 1271 q 614 1197 588 1271 l 364 993 z "},"Ň":{"ha":944,"x_min":125,"x_max":819,"o":"m 125 0 l 125 944 l 254 944 l 708 176 l 708 944 l 819 944 l 819 0 l 690 0 l 236 768 l 236 0 l 125 0 m 472 996 q 440 1005 453 996 q 411 1035 426 1014 l 276 1225 l 310 1260 l 472 1111 l 635 1260 l 668 1225 l 533 1035 q 505 1004 518 1013 q 472 996 492 996 z "},"Ņ":{"ha":944,"x_min":125,"x_max":819,"o":"m 125 0 l 125 944 l 254 944 l 708 176 l 708 944 l 819 944 l 819 0 l 690 0 l 236 768 l 236 0 l 125 0 m 435 -368 l 389 -354 l 401 -160 q 426 -103 404 -122 q 483 -83 447 -83 q 526 -92 506 -83 q 556 -115 546 -101 l 435 -368 z "},"Ñ":{"ha":944,"x_min":125,"x_max":819,"o":"m 125 0 l 125 944 l 254 944 l 708 176 l 708 944 l 819 944 l 819 0 l 690 0 l 236 768 l 236 0 l 125 0 m 317 1050 l 251 1061 q 372 1211 276 1211 q 439 1201 407 1211 q 501 1180 471 1190 q 561 1169 532 1169 q 626 1231 617 1169 l 692 1219 q 565 1069 664 1069 q 501 1080 532 1069 q 440 1101 469 1090 q 382 1111 411 1111 q 317 1050 325 1111 z "},"Ŋ":{"ha":944,"x_min":125,"x_max":819,"o":"m 583 -332 q 331 -231 432 -332 l 392 -153 q 478 -211 432 -190 q 568 -232 524 -232 q 708 -43 708 -232 l 708 32 l 236 768 l 236 0 l 125 0 l 125 944 l 254 944 l 708 243 l 708 944 l 819 944 l 819 -43 q 756 -253 819 -175 q 583 -332 692 -332 z "},"O":{"ha":936,"x_min":69,"x_max":867,"o":"m 467 -22 q 174 108 279 -22 q 69 472 69 239 q 174 836 69 706 q 467 967 279 967 q 681 908 592 967 q 819 738 771 849 q 867 472 867 628 q 819 207 867 318 q 681 37 771 96 q 467 -22 592 -22 m 467 79 q 679 183 603 79 q 756 472 756 288 q 679 761 756 657 q 467 865 603 865 q 256 762 332 865 q 181 472 181 658 q 256 183 181 288 q 467 79 332 79 z "},"Ó":{"ha":936,"x_min":69,"x_max":867,"o":"m 467 -22 q 174 108 279 -22 q 69 472 69 239 q 174 836 69 706 q 467 967 279 967 q 681 908 592 967 q 819 738 771 849 q 867 472 867 628 q 819 207 867 318 q 681 37 771 96 q 467 -22 592 -22 m 467 79 q 679 183 603 79 q 756 472 756 288 q 679 761 756 657 q 467 865 603 865 q 256 762 332 865 q 181 472 181 658 q 256 183 181 288 q 467 79 332 79 m 360 993 l 326 1028 l 468 1222 q 540 1271 503 1271 q 610 1197 583 1271 l 360 993 z "},"Ŏ":{"ha":936,"x_min":69,"x_max":867,"o":"m 467 -22 q 174 108 279 -22 q 69 472 69 239 q 174 836 69 706 q 467 967 279 967 q 681 908 592 967 q 819 738 771 849 q 867 472 867 628 q 819 207 867 318 q 681 37 771 96 q 467 -22 592 -22 m 467 79 q 679 183 603 79 q 756 472 756 288 q 679 761 756 657 q 467 865 603 865 q 256 762 332 865 q 181 472 181 658 q 256 183 181 288 q 467 79 332 79 m 468 1043 q 345 1090 392 1043 q 299 1214 299 1136 l 385 1214 q 408 1151 385 1175 q 468 1128 431 1128 q 528 1151 504 1128 q 551 1214 551 1175 l 638 1214 q 591 1090 638 1138 q 468 1043 544 1043 z "},"Ô":{"ha":936,"x_min":69,"x_max":867,"o":"m 467 -22 q 174 108 279 -22 q 69 472 69 239 q 174 836 69 706 q 467 967 279 967 q 681 908 592 967 q 819 738 771 849 q 867 472 867 628 q 819 207 867 318 q 681 37 771 96 q 467 -22 592 -22 m 467 79 q 679 183 603 79 q 756 472 756 288 q 679 761 756 657 q 467 865 603 865 q 256 762 332 865 q 181 472 181 658 q 256 183 181 288 q 467 79 332 79 m 306 996 l 272 1031 l 407 1221 q 435 1251 422 1242 q 468 1260 449 1260 q 501 1251 488 1260 q 529 1221 514 1243 l 664 1031 l 631 996 l 468 1144 l 306 996 z "},"Ö":{"ha":936,"x_min":69,"x_max":867,"o":"m 467 -22 q 174 108 279 -22 q 69 472 69 239 q 174 836 69 706 q 467 967 279 967 q 681 908 592 967 q 819 738 771 849 q 867 472 867 628 q 819 207 867 318 q 681 37 771 96 q 467 -22 592 -22 m 467 79 q 679 183 603 79 q 756 472 756 288 q 679 761 756 657 q 467 865 603 865 q 256 762 332 865 q 181 472 181 658 q 256 183 181 288 q 467 79 332 79 m 592 1078 q 543 1096 561 1078 q 525 1144 525 1114 q 543 1193 525 1175 q 592 1211 561 1211 q 640 1192 621 1211 q 658 1144 658 1174 q 640 1096 658 1114 q 592 1078 621 1078 m 344 1078 q 296 1096 314 1078 q 278 1144 278 1114 q 296 1193 278 1175 q 344 1211 314 1211 q 392 1192 374 1211 q 411 1144 411 1174 q 392 1096 411 1114 q 344 1078 374 1078 z "},"Ò":{"ha":936,"x_min":69,"x_max":867,"o":"m 467 -22 q 174 108 279 -22 q 69 472 69 239 q 174 836 69 706 q 467 967 279 967 q 681 908 592 967 q 819 738 771 849 q 867 472 867 628 q 819 207 867 318 q 681 37 771 96 q 467 -22 592 -22 m 467 79 q 679 183 603 79 q 756 472 756 288 q 679 761 756 657 q 467 865 603 865 q 256 762 332 865 q 181 472 181 658 q 256 183 181 288 q 467 79 332 79 m 576 993 l 326 1197 q 396 1271 350 1271 q 468 1222 431 1271 l 610 1028 l 576 993 z "},"Ő":{"ha":936,"x_min":69,"x_max":867,"o":"m 467 -22 q 174 108 279 -22 q 69 472 69 239 q 174 836 69 706 q 467 967 279 967 q 681 908 592 967 q 819 738 771 849 q 867 472 867 628 q 819 207 867 318 q 681 37 771 96 q 467 -22 592 -22 m 467 79 q 679 183 603 79 q 756 472 756 288 q 679 761 756 657 q 467 865 603 865 q 256 762 332 865 q 181 472 181 658 q 256 183 181 288 q 467 79 332 79 m 553 993 l 514 1021 l 601 1208 q 672 1271 629 1271 q 744 1211 710 1271 l 553 993 m 369 993 l 331 1021 l 418 1208 q 489 1271 446 1271 q 561 1211 526 1271 l 369 993 z "},"Ō":{"ha":936,"x_min":69,"x_max":867,"o":"m 467 -22 q 174 108 279 -22 q 69 472 69 239 q 174 836 69 706 q 467 967 279 967 q 681 908 592 967 q 819 738 771 849 q 867 472 867 628 q 819 207 867 318 q 681 37 771 96 q 467 -22 592 -22 m 467 79 q 679 183 603 79 q 756 472 756 288 q 679 761 756 657 q 467 865 603 865 q 256 762 332 865 q 181 472 181 658 q 256 183 181 288 q 467 79 332 79 m 279 1090 l 279 1190 l 656 1190 l 656 1090 l 279 1090 z "},"Ø":{"ha":936,"x_min":69,"x_max":867,"o":"m 210 -128 l 264 29 q 120 199 171 86 q 69 472 69 311 q 174 836 69 706 q 467 967 279 967 q 583 951 529 967 l 625 1072 l 726 1072 l 671 914 q 816 744 765 857 q 867 472 867 632 q 819 207 867 318 q 681 37 771 96 q 467 -22 592 -22 q 351 -7 406 -22 l 310 -128 l 210 -128 m 181 472 q 300 135 181 233 l 550 854 q 467 865 511 865 q 256 762 332 865 q 181 472 181 658 m 467 79 q 679 183 603 79 q 756 472 756 288 q 724 674 756 589 q 635 808 693 760 l 386 90 q 467 79 424 79 z "},"Ǿ":{"ha":936,"x_min":69,"x_max":867,"o":"m 210 -128 l 264 29 q 120 199 171 86 q 69 472 69 311 q 174 836 69 706 q 467 967 279 967 q 583 951 529 967 l 625 1072 l 726 1072 l 671 914 q 816 744 765 857 q 867 472 867 632 q 819 207 867 318 q 681 37 771 96 q 467 -22 592 -22 q 351 -7 406 -22 l 310 -128 l 210 -128 m 181 472 q 300 135 181 233 l 550 854 q 467 865 511 865 q 256 762 332 865 q 181 472 181 658 m 467 79 q 679 183 603 79 q 756 472 756 288 q 724 674 756 589 q 635 808 693 760 l 386 90 q 467 79 424 79 m 360 993 l 326 1028 l 468 1222 q 540 1271 503 1271 q 610 1197 583 1271 l 360 993 z "},"Õ":{"ha":936,"x_min":69,"x_max":867,"o":"m 467 -22 q 174 108 279 -22 q 69 472 69 239 q 174 836 69 706 q 467 967 279 967 q 681 908 592 967 q 819 738 771 849 q 867 472 867 628 q 819 207 867 318 q 681 37 771 96 q 467 -22 592 -22 m 467 79 q 679 183 603 79 q 756 472 756 288 q 679 761 756 657 q 467 865 603 865 q 256 762 332 865 q 181 472 181 658 q 256 183 181 288 q 467 79 332 79 m 313 1050 l 247 1061 q 368 1211 272 1211 q 435 1201 403 1211 q 497 1180 467 1190 q 557 1169 528 1169 q 622 1231 613 1169 l 688 1219 q 561 1069 660 1069 q 497 1080 528 1069 q 436 1101 465 1090 q 378 1111 407 1111 q 313 1050 321 1111 z "},"Œ":{"ha":1132,"x_min":69,"x_max":1074,"o":"m 467 0 q 174 125 279 0 q 69 472 69 250 q 174 820 69 696 q 467 944 279 944 l 1046 944 l 1046 844 l 643 844 l 643 522 l 972 522 l 972 422 l 643 422 l 643 100 l 1074 100 l 1074 0 l 467 0 m 467 100 l 532 100 l 532 844 l 467 844 q 256 747 332 844 q 181 472 181 649 q 256 198 181 296 q 467 100 332 100 z "},"P":{"ha":707,"x_min":125,"x_max":700,"o":"m 125 0 l 125 944 l 418 944 q 561 907 497 944 q 663 806 625 869 q 700 663 700 742 q 663 520 700 585 q 561 418 625 456 q 418 381 497 381 l 236 381 l 236 0 l 125 0 m 236 482 l 414 482 q 502 506 463 482 q 566 572 542 531 q 590 663 590 614 q 566 753 590 713 q 502 819 542 794 q 414 843 463 843 l 236 843 l 236 482 z "},"Þ":{"ha":707,"x_min":125,"x_max":700,"o":"m 125 0 l 125 944 l 236 944 l 236 754 l 418 754 q 561 717 497 754 q 663 615 625 679 q 700 472 700 551 q 663 330 700 394 q 561 228 625 265 q 418 190 497 190 l 236 190 l 236 0 l 125 0 m 236 292 l 414 292 q 502 316 463 292 q 566 382 542 340 q 590 472 590 424 q 566 563 590 522 q 502 628 542 604 q 414 653 463 653 l 236 653 l 236 292 z "},"Q":{"ha":936,"x_min":69,"x_max":867,"o":"m 593 -254 q 460 -194 507 -254 q 414 -19 414 -135 q 160 127 250 -1 q 69 472 69 256 q 174 836 69 706 q 467 967 279 967 q 681 908 592 967 q 819 738 771 849 q 867 472 867 628 q 775 128 867 257 q 519 -19 683 -1 q 540 -124 519 -92 q 604 -156 561 -156 q 717 -124 643 -156 l 758 -199 q 593 -254 672 -254 m 467 79 q 679 183 603 79 q 756 472 756 288 q 679 761 756 657 q 467 865 603 865 q 256 762 332 865 q 181 472 181 658 q 256 183 181 288 q 467 79 332 79 z "},"R":{"ha":804,"x_min":125,"x_max":757,"o":"m 651 -22 l 514 342 q 488 390 501 376 q 449 404 474 403 l 236 404 l 236 0 l 125 0 l 125 944 l 449 944 q 585 908 524 944 q 683 810 647 872 q 719 674 719 749 q 676 526 719 592 q 563 428 632 460 q 625 361 607 411 l 757 11 l 651 -22 m 236 501 l 443 501 q 526 525 489 501 q 586 588 564 549 q 608 674 608 628 q 586 759 608 721 q 526 820 564 797 q 443 843 489 843 l 236 843 l 236 501 z "},"Ŕ":{"ha":804,"x_min":125,"x_max":757,"o":"m 651 -22 l 514 342 q 488 390 501 376 q 449 404 474 403 l 236 404 l 236 0 l 125 0 l 125 944 l 449 944 q 585 908 524 944 q 683 810 647 872 q 719 674 719 749 q 676 526 719 592 q 563 428 632 460 q 625 361 607 411 l 757 11 l 651 -22 m 236 501 l 443 501 q 526 525 489 501 q 586 588 564 549 q 608 674 608 628 q 586 759 608 721 q 526 820 564 797 q 443 843 489 843 l 236 843 l 236 501 m 294 993 l 261 1028 l 403 1222 q 475 1271 438 1271 q 544 1197 518 1271 l 294 993 z "},"Ř":{"ha":804,"x_min":125,"x_max":757,"o":"m 651 -22 l 514 342 q 488 390 501 376 q 449 404 474 403 l 236 404 l 236 0 l 125 0 l 125 944 l 449 944 q 585 908 524 944 q 683 810 647 872 q 719 674 719 749 q 676 526 719 592 q 563 428 632 460 q 625 361 607 411 l 757 11 l 651 -22 m 236 501 l 443 501 q 526 525 489 501 q 586 588 564 549 q 608 674 608 628 q 586 759 608 721 q 526 820 564 797 q 443 843 489 843 l 236 843 l 236 501 m 403 996 q 370 1005 383 996 q 342 1035 357 1014 l 207 1225 l 240 1260 l 403 1111 l 565 1260 l 599 1225 l 464 1035 q 435 1004 449 1013 q 403 996 422 996 z "},"Ŗ":{"ha":804,"x_min":125,"x_max":757,"o":"m 651 -22 l 514 342 q 488 390 501 376 q 449 404 474 403 l 236 404 l 236 0 l 125 0 l 125 944 l 449 944 q 585 908 524 944 q 683 810 647 872 q 719 674 719 749 q 676 526 719 592 q 563 428 632 460 q 625 361 607 411 l 757 11 l 651 -22 m 236 501 l 443 501 q 526 525 489 501 q 586 588 564 549 q 608 674 608 628 q 586 759 608 721 q 526 820 564 797 q 443 843 489 843 l 236 843 l 236 501 m 378 -368 l 332 -354 l 344 -160 q 369 -103 347 -122 q 426 -83 390 -83 q 469 -92 449 -83 q 499 -115 489 -101 l 378 -368 z "},"S":{"ha":710,"x_min":42,"x_max":668,"o":"m 357 -22 q 189 12 272 -22 q 42 106 106 46 l 106 189 q 218 111 150 140 q 358 82 286 82 q 503 126 449 82 q 557 243 557 171 q 531 335 557 300 q 463 392 506 371 q 369 431 419 414 q 267 465 318 447 q 174 513 217 483 q 105 588 131 542 q 79 707 79 635 q 115 843 79 785 q 214 934 150 901 q 361 967 278 967 q 503 949 433 967 q 621 901 574 932 l 565 813 q 473 849 529 836 q 360 863 417 863 q 238 821 286 863 q 190 714 190 779 q 216 631 190 663 q 285 578 242 599 q 378 542 328 558 q 480 507 429 526 q 574 457 531 488 q 642 377 617 426 q 668 250 668 328 q 585 51 668 124 q 357 -22 501 -22 z "},"Ś":{"ha":710,"x_min":42,"x_max":668,"o":"m 357 -22 q 189 12 272 -22 q 42 106 106 46 l 106 189 q 218 111 150 140 q 358 82 286 82 q 503 126 449 82 q 557 243 557 171 q 531 335 557 300 q 463 392 506 371 q 369 431 419 414 q 267 465 318 447 q 174 513 217 483 q 105 588 131 542 q 79 707 79 635 q 115 843 79 785 q 214 934 150 901 q 361 967 278 967 q 503 949 433 967 q 621 901 574 932 l 565 813 q 473 849 529 836 q 360 863 417 863 q 238 821 286 863 q 190 714 190 779 q 216 631 190 663 q 285 578 242 599 q 378 542 328 558 q 480 507 429 526 q 574 457 531 488 q 642 377 617 426 q 668 250 668 328 q 585 51 668 124 q 357 -22 501 -22 m 254 993 l 221 1028 l 363 1222 q 435 1271 397 1271 q 504 1197 478 1271 l 254 993 z "},"Š":{"ha":710,"x_min":42,"x_max":668,"o":"m 357 -22 q 189 12 272 -22 q 42 106 106 46 l 106 189 q 218 111 150 140 q 358 82 286 82 q 503 126 449 82 q 557 243 557 171 q 531 335 557 300 q 463 392 506 371 q 369 431 419 414 q 267 465 318 447 q 174 513 217 483 q 105 588 131 542 q 79 707 79 635 q 115 843 79 785 q 214 934 150 901 q 361 967 278 967 q 503 949 433 967 q 621 901 574 932 l 565 813 q 473 849 529 836 q 360 863 417 863 q 238 821 286 863 q 190 714 190 779 q 216 631 190 663 q 285 578 242 599 q 378 542 328 558 q 480 507 429 526 q 574 457 531 488 q 642 377 617 426 q 668 250 668 328 q 585 51 668 124 q 357 -22 501 -22 m 363 996 q 330 1005 343 996 q 301 1035 317 1014 l 167 1225 l 200 1260 l 363 1111 l 525 1260 l 558 1225 l 424 1035 q 395 1004 408 1013 q 363 996 382 996 z "},"Ş":{"ha":710,"x_min":42,"x_max":668,"o":"m 357 -22 q 189 12 272 -22 q 42 106 106 46 l 106 189 q 218 111 150 140 q 358 82 286 82 q 503 126 449 82 q 557 243 557 171 q 531 335 557 300 q 463 392 506 371 q 369 431 419 414 q 267 465 318 447 q 174 513 217 483 q 105 588 131 542 q 79 707 79 635 q 115 843 79 785 q 214 934 150 901 q 361 967 278 967 q 503 949 433 967 q 621 901 574 932 l 565 813 q 473 849 529 836 q 360 863 417 863 q 238 821 286 863 q 190 714 190 779 q 216 631 190 663 q 285 578 242 599 q 378 542 328 558 q 480 507 429 526 q 574 457 531 488 q 642 377 617 426 q 668 250 668 328 q 585 51 668 124 q 357 -22 501 -22 m 340 -283 q 276 -272 310 -283 q 226 -246 242 -260 l 258 -189 q 291 -205 267 -197 q 335 -212 315 -212 q 381 -199 364 -212 q 399 -164 399 -186 q 321 -122 399 -122 l 288 -122 l 321 33 l 389 33 l 367 -69 q 452 -97 419 -69 q 485 -169 485 -125 q 446 -253 485 -222 q 340 -283 407 -283 z "},"Ŝ":{"ha":710,"x_min":42,"x_max":668,"o":"m 357 -22 q 189 12 272 -22 q 42 106 106 46 l 106 189 q 218 111 150 140 q 358 82 286 82 q 503 126 449 82 q 557 243 557 171 q 531 335 557 300 q 463 392 506 371 q 369 431 419 414 q 267 465 318 447 q 174 513 217 483 q 105 588 131 542 q 79 707 79 635 q 115 843 79 785 q 214 934 150 901 q 361 967 278 967 q 503 949 433 967 q 621 901 574 932 l 565 813 q 473 849 529 836 q 360 863 417 863 q 238 821 286 863 q 190 714 190 779 q 216 631 190 663 q 285 578 242 599 q 378 542 328 558 q 480 507 429 526 q 574 457 531 488 q 642 377 617 426 q 668 250 668 328 q 585 51 668 124 q 357 -22 501 -22 m 200 996 l 167 1031 l 301 1221 q 330 1251 317 1242 q 363 1260 343 1260 q 395 1251 382 1260 q 424 1221 408 1243 l 558 1031 l 525 996 l 363 1144 l 200 996 z "},"Ș":{"ha":710,"x_min":42,"x_max":668,"o":"m 357 -22 q 189 12 272 -22 q 42 106 106 46 l 106 189 q 218 111 150 140 q 358 82 286 82 q 503 126 449 82 q 557 243 557 171 q 531 335 557 300 q 463 392 506 371 q 369 431 419 414 q 267 465 318 447 q 174 513 217 483 q 105 588 131 542 q 79 707 79 635 q 115 843 79 785 q 214 934 150 901 q 361 967 278 967 q 503 949 433 967 q 621 901 574 932 l 565 813 q 473 849 529 836 q 360 863 417 863 q 238 821 286 863 q 190 714 190 779 q 216 631 190 663 q 285 578 242 599 q 378 542 328 558 q 480 507 429 526 q 574 457 531 488 q 642 377 617 426 q 668 250 668 328 q 585 51 668 124 q 357 -22 501 -22 m 318 -368 l 272 -354 l 285 -160 q 309 -103 288 -122 q 367 -83 331 -83 q 409 -92 389 -83 q 439 -115 429 -101 l 318 -368 z "},"T":{"ha":653,"x_min":7,"x_max":646,"o":"m 271 0 l 271 844 l 7 844 l 7 944 l 646 944 l 646 844 l 382 844 l 382 0 l 271 0 z "},"Ŧ":{"ha":653,"x_min":7,"x_max":646,"o":"m 271 0 l 271 438 l 61 438 l 61 507 l 271 507 l 271 844 l 7 844 l 7 944 l 646 944 l 646 844 l 382 844 l 382 507 l 592 507 l 592 438 l 382 438 l 382 0 l 271 0 z "},"Ť":{"ha":653,"x_min":7,"x_max":646,"o":"m 271 0 l 271 844 l 7 844 l 7 944 l 646 944 l 646 844 l 382 844 l 382 0 l 271 0 m 326 996 q 294 1005 307 996 q 265 1035 281 1014 l 131 1225 l 164 1260 l 326 1111 l 489 1260 l 522 1225 l 388 1035 q 359 1004 372 1013 q 326 996 346 996 z "},"Ţ":{"ha":653,"x_min":7,"x_max":646,"o":"m 271 0 l 271 844 l 7 844 l 7 944 l 646 944 l 646 844 l 382 844 l 382 0 l 271 0 m 311 -283 q 247 -272 281 -283 q 197 -246 213 -260 l 229 -189 q 262 -205 238 -197 q 306 -212 286 -212 q 352 -199 335 -212 q 369 -164 369 -186 q 292 -122 369 -122 l 258 -122 l 292 33 l 360 33 l 338 -69 q 423 -97 390 -69 q 456 -169 456 -125 q 417 -253 456 -222 q 311 -283 378 -283 z "},"Ț":{"ha":653,"x_min":7,"x_max":646,"o":"m 271 0 l 271 844 l 7 844 l 7 944 l 646 944 l 646 844 l 382 844 l 382 0 l 271 0 m 289 -368 l 243 -354 l 256 -160 q 280 -103 258 -122 q 338 -83 301 -83 q 380 -92 360 -83 q 410 -115 400 -101 l 289 -368 z "},"U":{"ha":907,"x_min":104,"x_max":803,"o":"m 453 -22 q 197 76 289 -22 q 104 351 104 175 l 104 944 l 215 944 l 215 344 q 278 149 215 219 q 453 79 342 79 q 628 149 565 79 q 692 344 692 219 l 692 944 l 803 944 l 803 351 q 710 77 803 176 q 453 -22 618 -22 z "},"Ú":{"ha":907,"x_min":104,"x_max":803,"o":"m 453 -22 q 197 76 289 -22 q 104 351 104 175 l 104 944 l 215 944 l 215 344 q 278 149 215 219 q 453 79 342 79 q 628 149 565 79 q 692 344 692 219 l 692 944 l 803 944 l 803 351 q 710 77 803 176 q 453 -22 618 -22 m 346 993 l 313 1028 l 454 1222 q 526 1271 489 1271 q 596 1197 569 1271 l 346 993 z "},"Ŭ":{"ha":907,"x_min":104,"x_max":803,"o":"m 453 -22 q 197 76 289 -22 q 104 351 104 175 l 104 944 l 215 944 l 215 344 q 278 149 215 219 q 453 79 342 79 q 628 149 565 79 q 692 344 692 219 l 692 944 l 803 944 l 803 351 q 710 77 803 176 q 453 -22 618 -22 m 454 1043 q 331 1090 378 1043 q 285 1214 285 1136 l 371 1214 q 394 1151 371 1175 q 454 1128 417 1128 q 514 1151 490 1128 q 538 1214 538 1175 l 624 1214 q 577 1090 624 1138 q 454 1043 531 1043 z "},"Û":{"ha":907,"x_min":104,"x_max":803,"o":"m 453 -22 q 197 76 289 -22 q 104 351 104 175 l 104 944 l 215 944 l 215 344 q 278 149 215 219 q 453 79 342 79 q 628 149 565 79 q 692 344 692 219 l 692 944 l 803 944 l 803 351 q 710 77 803 176 q 453 -22 618 -22 m 292 996 l 258 1031 l 393 1221 q 422 1251 408 1242 q 454 1260 435 1260 q 487 1251 474 1260 q 515 1221 500 1243 l 650 1031 l 617 996 l 454 1144 l 292 996 z "},"Ü":{"ha":907,"x_min":104,"x_max":803,"o":"m 453 -22 q 197 76 289 -22 q 104 351 104 175 l 104 944 l 215 944 l 215 344 q 278 149 215 219 q 453 79 342 79 q 628 149 565 79 q 692 344 692 219 l 692 944 l 803 944 l 803 351 q 710 77 803 176 q 453 -22 618 -22 m 578 1078 q 529 1096 547 1078 q 511 1144 511 1114 q 529 1193 511 1175 q 578 1211 547 1211 q 626 1192 607 1211 q 644 1144 644 1174 q 626 1096 644 1114 q 578 1078 607 1078 m 331 1078 q 282 1096 300 1078 q 264 1144 264 1114 q 282 1193 264 1175 q 331 1211 300 1211 q 378 1192 360 1211 q 397 1144 397 1174 q 378 1096 397 1114 q 331 1078 360 1078 z "},"Ù":{"ha":907,"x_min":104,"x_max":803,"o":"m 453 -22 q 197 76 289 -22 q 104 351 104 175 l 104 944 l 215 944 l 215 344 q 278 149 215 219 q 453 79 342 79 q 628 149 565 79 q 692 344 692 219 l 692 944 l 803 944 l 803 351 q 710 77 803 176 q 453 -22 618 -22 m 563 993 l 313 1197 q 382 1271 336 1271 q 454 1222 417 1271 l 596 1028 l 563 993 z "},"Ű":{"ha":907,"x_min":104,"x_max":803,"o":"m 453 -22 q 197 76 289 -22 q 104 351 104 175 l 104 944 l 215 944 l 215 344 q 278 149 215 219 q 453 79 342 79 q 628 149 565 79 q 692 344 692 219 l 692 944 l 803 944 l 803 351 q 710 77 803 176 q 453 -22 618 -22 m 539 993 l 500 1021 l 588 1208 q 658 1271 615 1271 q 731 1211 696 1271 l 539 993 m 356 993 l 317 1021 l 404 1208 q 475 1271 432 1271 q 547 1211 513 1271 l 356 993 z "},"Ū":{"ha":907,"x_min":104,"x_max":803,"o":"m 453 -22 q 197 76 289 -22 q 104 351 104 175 l 104 944 l 215 944 l 215 344 q 278 149 215 219 q 453 79 342 79 q 628 149 565 79 q 692 344 692 219 l 692 944 l 803 944 l 803 351 q 710 77 803 176 q 453 -22 618 -22 m 265 1090 l 265 1190 l 642 1190 l 642 1090 l 265 1090 z "},"Ų":{"ha":907,"x_min":104,"x_max":803,"o":"m 453 -22 q 197 76 289 -22 q 104 351 104 175 l 104 944 l 215 944 l 215 344 q 278 149 215 219 q 453 79 342 79 q 628 149 565 79 q 692 344 692 219 l 692 944 l 803 944 l 803 351 q 710 77 803 176 q 453 -22 618 -22 m 451 -287 q 366 -256 400 -287 q 332 -175 332 -224 q 367 -75 332 -122 q 463 0 403 -28 l 540 0 q 449 -78 481 -36 q 417 -161 417 -121 q 431 -200 417 -185 q 467 -215 444 -215 q 504 -206 483 -215 q 538 -185 525 -197 l 574 -232 q 520 -271 557 -254 q 451 -287 483 -287 z "},"Ů":{"ha":907,"x_min":104,"x_max":803,"o":"m 453 -22 q 197 76 289 -22 q 104 351 104 175 l 104 944 l 215 944 l 215 344 q 278 149 215 219 q 453 79 342 79 q 628 149 565 79 q 692 344 692 219 l 692 944 l 803 944 l 803 351 q 710 77 803 176 q 453 -22 618 -22 m 454 996 q 352 1034 390 996 q 314 1136 314 1072 q 352 1238 314 1200 q 454 1276 390 1276 q 556 1238 517 1276 q 594 1136 594 1199 q 556 1034 594 1072 q 454 996 517 996 m 454 1067 q 504 1086 485 1067 q 524 1136 524 1106 q 504 1186 524 1167 q 454 1206 485 1206 q 403 1187 422 1206 q 385 1136 385 1168 q 403 1085 385 1104 q 454 1067 422 1067 z "},"Ũ":{"ha":907,"x_min":104,"x_max":803,"o":"m 453 -22 q 197 76 289 -22 q 104 351 104 175 l 104 944 l 215 944 l 215 344 q 278 149 215 219 q 453 79 342 79 q 628 149 565 79 q 692 344 692 219 l 692 944 l 803 944 l 803 351 q 710 77 803 176 q 453 -22 618 -22 m 299 1050 l 233 1061 q 354 1211 258 1211 q 421 1201 389 1211 q 483 1180 453 1190 q 543 1169 514 1169 q 608 1231 599 1169 l 674 1219 q 547 1069 646 1069 q 483 1080 514 1069 q 422 1101 451 1090 q 364 1111 393 1111 q 299 1050 307 1111 z "},"V":{"ha":772,"x_min":0,"x_max":772,"o":"m 318 0 l 0 944 l 115 944 l 386 122 l 657 944 l 772 944 l 454 0 l 318 0 z "},"W":{"ha":1146,"x_min":0,"x_max":1146,"o":"m 243 0 l 0 944 l 115 944 l 310 167 l 518 944 l 632 944 l 828 167 l 1035 944 l 1146 944 l 892 0 l 763 0 l 571 740 l 372 0 l 243 0 z "},"Ẃ":{"ha":1146,"x_min":0,"x_max":1146,"o":"m 243 0 l 0 944 l 115 944 l 310 167 l 518 944 l 632 944 l 828 167 l 1035 944 l 1146 944 l 892 0 l 763 0 l 571 740 l 372 0 l 243 0 m 465 993 l 432 1028 l 574 1222 q 646 1271 608 1271 q 715 1197 689 1271 l 465 993 z "},"Ŵ":{"ha":1146,"x_min":0,"x_max":1146,"o":"m 243 0 l 0 944 l 115 944 l 310 167 l 518 944 l 632 944 l 828 167 l 1035 944 l 1146 944 l 892 0 l 763 0 l 571 740 l 372 0 l 243 0 m 411 996 l 378 1031 l 513 1221 q 541 1251 528 1242 q 574 1260 554 1260 q 606 1251 593 1260 q 635 1221 619 1243 l 769 1031 l 736 996 l 574 1144 l 411 996 z "},"Ẅ":{"ha":1146,"x_min":0,"x_max":1146,"o":"m 243 0 l 0 944 l 115 944 l 310 167 l 518 944 l 632 944 l 828 167 l 1035 944 l 1146 944 l 892 0 l 763 0 l 571 740 l 372 0 l 243 0 m 697 1078 q 649 1096 667 1078 q 631 1144 631 1114 q 649 1193 631 1175 q 697 1211 667 1211 q 745 1192 726 1211 q 764 1144 764 1174 q 745 1096 764 1114 q 697 1078 726 1078 m 450 1078 q 401 1096 419 1078 q 383 1144 383 1114 q 401 1193 383 1175 q 450 1211 419 1211 q 498 1192 479 1211 q 517 1144 517 1174 q 498 1096 517 1114 q 450 1078 479 1078 z "},"Ẁ":{"ha":1146,"x_min":0,"x_max":1146,"o":"m 243 0 l 0 944 l 115 944 l 310 167 l 518 944 l 632 944 l 828 167 l 1035 944 l 1146 944 l 892 0 l 763 0 l 571 740 l 372 0 l 243 0 m 682 993 l 432 1197 q 501 1271 456 1271 q 574 1222 536 1271 l 715 1028 l 682 993 z "},"X":{"ha":796,"x_min":14,"x_max":782,"o":"m 14 0 l 333 489 l 35 944 l 164 944 l 396 589 l 629 944 l 758 944 l 460 490 l 782 0 l 654 0 l 397 390 l 142 0 l 14 0 z "},"Y":{"ha":733,"x_min":0,"x_max":733,"o":"m 311 0 l 311 326 l 0 944 l 122 944 l 367 436 l 611 944 l 733 944 l 422 326 l 422 0 l 311 0 z "},"Ý":{"ha":733,"x_min":0,"x_max":733,"o":"m 311 0 l 311 326 l 0 944 l 122 944 l 367 436 l 611 944 l 733 944 l 422 326 l 422 0 l 311 0 m 258 993 l 225 1028 l 367 1222 q 439 1271 401 1271 q 508 1197 482 1271 l 258 993 z "},"Ŷ":{"ha":733,"x_min":0,"x_max":733,"o":"m 311 0 l 311 326 l 0 944 l 122 944 l 367 436 l 611 944 l 733 944 l 422 326 l 422 0 l 311 0 m 204 996 l 171 1031 l 306 1221 q 334 1251 321 1242 q 367 1260 347 1260 q 399 1251 386 1260 q 428 1221 413 1243 l 563 1031 l 529 996 l 367 1144 l 204 996 z "},"Ÿ":{"ha":733,"x_min":0,"x_max":733,"o":"m 311 0 l 311 326 l 0 944 l 122 944 l 367 436 l 611 944 l 733 944 l 422 326 l 422 0 l 311 0 m 490 1078 q 442 1096 460 1078 q 424 1144 424 1114 q 442 1193 424 1175 q 490 1211 460 1211 q 538 1192 519 1211 q 557 1144 557 1174 q 538 1096 557 1114 q 490 1078 519 1078 m 243 1078 q 194 1096 213 1078 q 176 1144 176 1114 q 194 1193 176 1175 q 243 1211 213 1211 q 291 1192 272 1211 q 310 1144 310 1174 q 291 1096 310 1114 q 243 1078 272 1078 z "},"Ỳ":{"ha":733,"x_min":0,"x_max":733,"o":"m 311 0 l 311 326 l 0 944 l 122 944 l 367 436 l 611 944 l 733 944 l 422 326 l 422 0 l 311 0 m 475 993 l 225 1197 q 294 1271 249 1271 q 367 1222 329 1271 l 508 1028 l 475 993 z "},"Z":{"ha":696,"x_min":21,"x_max":675,"o":"m 21 0 l 21 94 l 513 844 l 56 844 l 56 944 l 668 944 l 668 888 l 153 100 l 675 100 l 675 0 l 21 0 z "},"Ź":{"ha":696,"x_min":21,"x_max":675,"o":"m 21 0 l 21 94 l 513 844 l 56 844 l 56 944 l 668 944 l 668 888 l 153 100 l 675 100 l 675 0 l 21 0 m 240 993 l 207 1028 l 349 1222 q 421 1271 383 1271 q 490 1197 464 1271 l 240 993 z "},"Ž":{"ha":696,"x_min":21,"x_max":675,"o":"m 21 0 l 21 94 l 513 844 l 56 844 l 56 944 l 668 944 l 668 888 l 153 100 l 675 100 l 675 0 l 21 0 m 349 996 q 316 1005 329 996 q 288 1035 303 1014 l 153 1225 l 186 1260 l 349 1111 l 511 1260 l 544 1225 l 410 1035 q 381 1004 394 1013 q 349 996 368 996 z "},"Ż":{"ha":696,"x_min":21,"x_max":675,"o":"m 21 0 l 21 94 l 513 844 l 56 844 l 56 944 l 668 944 l 668 888 l 153 100 l 675 100 l 675 0 l 21 0 m 349 1064 q 290 1085 311 1064 q 268 1144 268 1107 q 290 1203 268 1181 q 349 1225 311 1225 q 407 1203 385 1225 q 429 1144 429 1181 q 407 1087 429 1110 q 349 1064 385 1064 z "},"a":{"ha":783,"x_min":63,"x_max":672,"o":"m 335 -19 q 135 76 208 -19 q 63 335 63 171 q 106 531 63 446 q 228 665 150 617 q 404 714 306 714 q 537 692 468 714 q 658 633 606 669 l 658 139 l 672 0 l 581 -7 l 556 118 q 463 17 519 53 q 335 -19 406 -19 m 356 75 q 499 162 444 75 q 553 392 553 249 l 553 585 q 404 619 483 619 q 283 583 336 619 q 199 483 229 547 q 168 335 168 418 q 219 145 168 215 q 356 75 269 75 z "},"á":{"ha":783,"x_min":63,"x_max":672,"o":"m 335 -19 q 135 76 208 -19 q 63 335 63 171 q 106 531 63 446 q 228 665 150 617 q 404 714 306 714 q 537 692 468 714 q 658 633 606 669 l 658 139 l 672 0 l 581 -7 l 556 118 q 463 17 519 53 q 335 -19 406 -19 m 356 75 q 499 162 444 75 q 553 392 553 249 l 553 585 q 404 619 483 619 q 283 583 336 619 q 199 483 229 547 q 168 335 168 418 q 219 145 168 215 q 356 75 269 75 m 317 743 l 283 778 l 425 972 q 497 1021 460 1021 q 567 947 540 1021 l 317 743 z "},"ă":{"ha":783,"x_min":63,"x_max":672,"o":"m 335 -19 q 135 76 208 -19 q 63 335 63 171 q 106 531 63 446 q 228 665 150 617 q 404 714 306 714 q 537 692 468 714 q 658 633 606 669 l 658 139 l 672 0 l 581 -7 l 556 118 q 463 17 519 53 q 335 -19 406 -19 m 356 75 q 499 162 444 75 q 553 392 553 249 l 553 585 q 404 619 483 619 q 283 583 336 619 q 199 483 229 547 q 168 335 168 418 q 219 145 168 215 q 356 75 269 75 m 392 793 q 269 840 315 793 q 222 964 222 886 l 308 964 q 331 901 308 925 q 392 878 354 878 q 451 901 428 878 q 475 964 475 925 l 561 964 q 515 840 561 888 q 392 793 468 793 z "},"â":{"ha":783,"x_min":63,"x_max":672,"o":"m 335 -19 q 135 76 208 -19 q 63 335 63 171 q 106 531 63 446 q 228 665 150 617 q 404 714 306 714 q 537 692 468 714 q 658 633 606 669 l 658 139 l 672 0 l 581 -7 l 556 118 q 463 17 519 53 q 335 -19 406 -19 m 356 75 q 499 162 444 75 q 553 392 553 249 l 553 585 q 404 619 483 619 q 283 583 336 619 q 199 483 229 547 q 168 335 168 418 q 219 145 168 215 q 356 75 269 75 m 229 746 l 196 781 l 331 971 q 359 1001 346 992 q 392 1010 372 1010 q 424 1001 411 1010 q 453 971 438 993 l 588 781 l 554 746 l 392 894 l 229 746 z "},"ä":{"ha":783,"x_min":63,"x_max":672,"o":"m 335 -19 q 135 76 208 -19 q 63 335 63 171 q 106 531 63 446 q 228 665 150 617 q 404 714 306 714 q 537 692 468 714 q 658 633 606 669 l 658 139 l 672 0 l 581 -7 l 556 118 q 463 17 519 53 q 335 -19 406 -19 m 356 75 q 499 162 444 75 q 553 392 553 249 l 553 585 q 404 619 483 619 q 283 583 336 619 q 199 483 229 547 q 168 335 168 418 q 219 145 168 215 q 356 75 269 75 m 515 828 q 467 846 485 828 q 449 894 449 864 q 467 943 449 925 q 515 961 485 961 q 563 942 544 961 q 582 894 582 924 q 563 846 582 864 q 515 828 544 828 m 268 828 q 219 846 238 828 q 201 894 201 864 q 219 943 201 925 q 268 961 238 961 q 316 942 297 961 q 335 894 335 924 q 316 846 335 864 q 268 828 297 828 z "},"à":{"ha":783,"x_min":63,"x_max":672,"o":"m 335 -19 q 135 76 208 -19 q 63 335 63 171 q 106 531 63 446 q 228 665 150 617 q 404 714 306 714 q 537 692 468 714 q 658 633 606 669 l 658 139 l 672 0 l 581 -7 l 556 118 q 463 17 519 53 q 335 -19 406 -19 m 356 75 q 499 162 444 75 q 553 392 553 249 l 553 585 q 404 619 483 619 q 283 583 336 619 q 199 483 229 547 q 168 335 168 418 q 219 145 168 215 q 356 75 269 75 m 479 743 l 229 947 q 299 1021 253 1021 q 371 972 336 1021 l 513 778 l 479 743 z "},"ā":{"ha":783,"x_min":63,"x_max":672,"o":"m 335 -19 q 135 76 208 -19 q 63 335 63 171 q 106 531 63 446 q 228 665 150 617 q 404 714 306 714 q 537 692 468 714 q 658 633 606 669 l 658 139 l 672 0 l 581 -7 l 556 118 q 463 17 519 53 q 335 -19 406 -19 m 356 75 q 499 162 444 75 q 553 392 553 249 l 553 585 q 404 619 483 619 q 283 583 336 619 q 199 483 229 547 q 168 335 168 418 q 219 145 168 215 q 356 75 269 75 m 203 840 l 203 940 l 579 940 l 579 840 l 203 840 z "},"ą":{"ha":783,"x_min":63,"x_max":706,"o":"m 335 -19 q 135 76 208 -19 q 63 335 63 171 q 106 531 63 446 q 228 665 150 617 q 404 714 306 714 q 537 692 468 714 q 658 633 606 669 l 658 139 l 672 0 l 581 -7 l 556 118 q 463 17 519 53 q 335 -19 406 -19 m 356 75 q 499 162 444 75 q 553 392 553 249 l 553 585 q 404 619 483 619 q 283 583 336 619 q 199 483 229 547 q 168 335 168 418 q 219 145 168 215 q 356 75 269 75 m 583 -274 q 498 -242 532 -274 q 464 -161 464 -210 q 499 -61 464 -108 q 594 14 535 -14 l 672 14 q 581 -65 613 -22 q 549 -147 549 -107 q 563 -186 549 -171 q 599 -201 576 -201 q 636 -192 615 -201 q 669 -171 657 -183 l 706 -218 q 652 -257 689 -240 q 583 -274 615 -274 z "},"å":{"ha":783,"x_min":63,"x_max":672,"o":"m 335 -19 q 135 76 208 -19 q 63 335 63 171 q 106 531 63 446 q 228 665 150 617 q 404 714 306 714 q 537 692 468 714 q 658 633 606 669 l 658 139 l 672 0 l 581 -7 l 556 118 q 463 17 519 53 q 335 -19 406 -19 m 356 75 q 499 162 444 75 q 553 392 553 249 l 553 585 q 404 619 483 619 q 283 583 336 619 q 199 483 229 547 q 168 335 168 418 q 219 145 168 215 q 356 75 269 75 m 392 746 q 290 784 328 746 q 251 886 251 822 q 290 988 251 950 q 392 1026 328 1026 q 493 988 454 1026 q 532 886 532 949 q 493 784 532 822 q 392 746 454 746 m 392 817 q 442 836 422 817 q 461 886 461 856 q 442 936 461 917 q 392 956 422 956 q 341 937 360 956 q 322 886 322 918 q 341 835 322 854 q 392 817 360 817 z "},"ǻ":{"ha":783,"x_min":63,"x_max":672,"o":"m 396 746 q 294 784 332 746 q 256 886 256 822 q 294 988 256 950 q 396 1026 332 1026 q 451 1017 424 1026 l 510 1096 q 571 1138 539 1138 q 629 1075 607 1138 l 507 975 q 536 886 536 938 q 497 784 536 822 q 396 746 458 746 m 396 817 q 446 836 426 817 q 465 886 465 856 q 446 936 465 917 q 396 956 426 956 q 345 937 364 956 q 326 886 326 918 q 345 835 326 854 q 396 817 364 817 m 335 -19 q 135 76 208 -19 q 63 335 63 171 q 106 531 63 446 q 228 665 150 617 q 404 714 306 714 q 537 692 468 714 q 658 633 606 669 l 658 139 l 672 0 l 581 -7 l 556 118 q 463 17 519 53 q 335 -19 406 -19 m 356 75 q 499 162 444 75 q 553 392 553 249 l 553 585 q 404 619 483 619 q 283 583 336 619 q 199 483 229 547 q 168 335 168 418 q 219 145 168 215 q 356 75 269 75 z "},"ã":{"ha":783,"x_min":63,"x_max":672,"o":"m 335 -19 q 135 76 208 -19 q 63 335 63 171 q 106 531 63 446 q 228 665 150 617 q 404 714 306 714 q 537 692 468 714 q 658 633 606 669 l 658 139 l 672 0 l 581 -7 l 556 118 q 463 17 519 53 q 335 -19 406 -19 m 356 75 q 499 162 444 75 q 553 392 553 249 l 553 585 q 404 619 483 619 q 283 583 336 619 q 199 483 229 547 q 168 335 168 418 q 219 145 168 215 q 356 75 269 75 m 236 800 l 171 811 q 292 961 196 961 q 358 951 326 961 q 421 930 390 940 q 481 919 451 919 q 546 981 536 919 l 611 969 q 485 819 583 819 q 420 830 451 819 q 360 851 389 840 q 301 861 331 861 q 236 800 244 861 z "},"æ":{"ha":1118,"x_min":54,"x_max":1058,"o":"m 267 -19 q 112 32 169 -19 q 54 168 54 83 q 306 397 54 375 l 486 414 l 486 482 q 342 619 486 619 q 249 601 303 619 q 150 553 194 582 l 101 629 q 224 690 154 665 q 350 714 294 714 q 567 607 514 714 q 665 686 607 658 q 796 714 724 714 q 1058 365 1058 714 q 1057 344 1058 356 q 1056 324 1056 333 l 592 324 q 652 142 597 210 q 799 75 707 75 q 908 95 854 75 q 997 150 961 115 l 1050 82 q 935 6 996 31 q 797 -19 875 -19 q 632 25 703 -19 q 524 149 561 69 q 416 28 485 75 q 267 -19 347 -19 m 596 417 l 953 417 q 794 618 947 618 q 663 565 714 618 q 596 417 611 513 m 272 75 q 381 106 332 75 q 458 190 429 138 q 486 308 486 243 l 486 324 l 310 307 q 202 267 240 301 q 164 179 164 233 q 195 105 164 135 q 272 75 226 75 z "},"ǽ":{"ha":1118,"x_min":54,"x_max":1058,"o":"m 267 -19 q 112 32 169 -19 q 54 168 54 83 q 306 397 54 375 l 486 414 l 486 482 q 342 619 486 619 q 249 601 303 619 q 150 553 194 582 l 101 629 q 224 690 154 665 q 350 714 294 714 q 567 607 514 714 q 665 686 607 658 q 796 714 724 714 q 1058 365 1058 714 q 1057 344 1058 356 q 1056 324 1056 333 l 592 324 q 652 142 597 210 q 799 75 707 75 q 908 95 854 75 q 997 150 961 115 l 1050 82 q 935 6 996 31 q 797 -19 875 -19 q 632 25 703 -19 q 524 149 561 69 q 416 28 485 75 q 267 -19 347 -19 m 596 417 l 953 417 q 794 618 947 618 q 663 565 714 618 q 596 417 611 513 m 272 75 q 381 106 332 75 q 458 190 429 138 q 486 308 486 243 l 486 324 l 310 307 q 202 267 240 301 q 164 179 164 233 q 195 105 164 135 q 272 75 226 75 m 526 743 l 493 778 l 635 972 q 707 1021 669 1021 q 776 947 750 1021 l 526 743 z "},"b":{"ha":769,"x_min":104,"x_max":700,"o":"m 358 -19 q 170 56 236 -19 q 104 272 104 132 l 104 972 l 210 972 l 210 581 q 435 714 285 714 q 629 619 558 714 q 700 360 700 524 q 656 164 700 250 q 535 29 613 78 q 358 -19 458 -19 m 358 75 q 481 112 428 75 q 564 213 533 149 q 594 360 594 276 q 549 551 594 482 q 422 619 504 619 q 268 538 324 619 q 210 307 213 456 l 210 272 q 249 127 210 179 q 358 75 288 75 z "},"c":{"ha":619,"x_min":63,"x_max":601,"o":"m 364 -19 q 206 24 274 -19 q 100 144 138 67 q 63 325 63 221 q 103 531 63 444 q 217 666 143 618 q 390 714 290 714 q 568 664 485 714 l 542 579 q 393 619 468 619 q 230 542 292 619 q 168 339 168 465 q 222 145 168 215 q 368 75 275 75 q 472 93 421 75 q 560 142 522 111 l 601 67 q 364 -19 499 -19 z "},"ć":{"ha":619,"x_min":63,"x_max":601,"o":"m 364 -19 q 206 24 274 -19 q 100 144 138 67 q 63 325 63 221 q 103 531 63 444 q 217 666 143 618 q 390 714 290 714 q 568 664 485 714 l 542 579 q 393 619 468 619 q 230 542 292 619 q 168 339 168 465 q 222 145 168 215 q 368 75 275 75 q 472 93 421 75 q 560 142 522 111 l 601 67 q 364 -19 499 -19 m 290 743 l 257 778 l 399 972 q 471 1021 433 1021 q 540 947 514 1021 l 290 743 z "},"č":{"ha":619,"x_min":63,"x_max":601,"o":"m 364 -19 q 206 24 274 -19 q 100 144 138 67 q 63 325 63 221 q 103 531 63 444 q 217 666 143 618 q 390 714 290 714 q 568 664 485 714 l 542 579 q 393 619 468 619 q 230 542 292 619 q 168 339 168 465 q 222 145 168 215 q 368 75 275 75 q 472 93 421 75 q 560 142 522 111 l 601 67 q 364 -19 499 -19 m 365 746 q 333 755 346 746 q 304 785 319 764 l 169 975 l 203 1010 l 365 861 l 528 1010 l 561 975 l 426 785 q 398 754 411 763 q 365 746 385 746 z "},"ç":{"ha":619,"x_min":63,"x_max":601,"o":"m 364 -19 q 206 24 274 -19 q 100 144 138 67 q 63 325 63 221 q 103 531 63 444 q 217 666 143 618 q 390 714 290 714 q 568 664 485 714 l 542 579 q 393 619 468 619 q 230 542 292 619 q 168 339 168 465 q 222 145 168 215 q 368 75 275 75 q 472 93 421 75 q 560 142 522 111 l 601 67 q 364 -19 499 -19 m 319 -283 q 255 -272 289 -283 q 206 -246 221 -260 l 238 -189 q 270 -205 246 -197 q 314 -212 294 -212 q 360 -199 343 -212 q 378 -164 378 -186 q 300 -122 378 -122 l 267 -122 l 300 33 l 368 33 l 346 -69 q 431 -97 399 -69 q 464 -169 464 -125 q 425 -253 464 -222 q 319 -283 386 -283 z "},"ĉ":{"ha":619,"x_min":63,"x_max":601,"o":"m 364 -19 q 206 24 274 -19 q 100 144 138 67 q 63 325 63 221 q 103 531 63 444 q 217 666 143 618 q 390 714 290 714 q 568 664 485 714 l 542 579 q 393 619 468 619 q 230 542 292 619 q 168 339 168 465 q 222 145 168 215 q 368 75 275 75 q 472 93 421 75 q 560 142 522 111 l 601 67 q 364 -19 499 -19 m 203 746 l 169 781 l 304 971 q 333 1001 319 992 q 365 1010 346 1010 q 398 1001 385 1010 q 426 971 411 993 l 561 781 l 528 746 l 365 894 l 203 746 z "},"ċ":{"ha":619,"x_min":63,"x_max":601,"o":"m 364 -19 q 206 24 274 -19 q 100 144 138 67 q 63 325 63 221 q 103 531 63 444 q 217 666 143 618 q 390 714 290 714 q 568 664 485 714 l 542 579 q 393 619 468 619 q 230 542 292 619 q 168 339 168 465 q 222 145 168 215 q 368 75 275 75 q 472 93 421 75 q 560 142 522 111 l 601 67 q 364 -19 499 -19 m 365 814 q 306 835 328 814 q 285 894 285 857 q 306 953 285 931 q 365 975 328 975 q 424 953 401 975 q 446 894 446 931 q 424 837 446 860 q 365 814 401 814 z "},"d":{"ha":783,"x_min":63,"x_max":672,"o":"m 335 -19 q 135 76 208 -19 q 63 335 63 171 q 106 531 63 446 q 228 665 150 617 q 404 714 306 714 q 553 686 478 714 l 553 972 l 658 972 l 658 139 l 672 0 l 581 -7 l 556 118 q 463 17 519 53 q 335 -19 406 -19 m 356 75 q 499 162 444 75 q 553 392 553 249 l 553 585 q 404 619 483 619 q 283 583 336 619 q 199 483 229 547 q 168 335 168 418 q 219 145 168 215 q 356 75 269 75 z "},"ð":{"ha":751,"x_min":79,"x_max":679,"o":"m 372 -19 q 217 22 283 -19 q 115 138 151 63 q 79 313 79 213 q 122 487 79 408 q 238 612 165 565 q 399 658 311 658 q 476 649 439 658 q 540 625 513 640 q 413 811 496 739 l 296 728 l 250 789 l 347 858 q 154 919 263 908 l 165 1003 q 303 970 239 993 q 424 913 368 947 l 560 1010 l 604 949 l 486 864 q 628 666 578 783 q 679 404 679 549 q 641 183 679 278 q 533 34 603 88 q 372 -19 464 -19 m 372 72 q 524 161 468 72 q 579 404 579 250 q 576 460 579 432 q 569 514 574 488 q 499 552 539 538 q 418 567 458 567 q 299 532 351 567 q 215 438 246 497 q 185 306 185 379 q 235 135 185 199 q 372 72 286 72 z "},"ď":{"ha":783,"x_min":63,"x_max":847,"o":"m 335 -19 q 135 76 208 -19 q 63 335 63 171 q 106 531 63 446 q 228 665 150 617 q 404 714 306 714 q 553 686 478 714 l 553 972 l 658 972 l 658 139 l 672 0 l 581 -7 l 556 118 q 463 17 519 53 q 335 -19 406 -19 m 356 75 q 499 162 444 75 q 553 392 553 249 l 553 585 q 404 619 483 619 q 283 583 336 619 q 199 483 229 547 q 168 335 168 418 q 219 145 168 215 q 356 75 269 75 m 767 753 l 721 760 l 721 1075 q 749 1081 733 1078 q 782 1083 765 1083 q 847 1028 847 1083 q 841 987 847 1013 q 819 913 835 961 l 767 753 z "},"đ":{"ha":783,"x_min":63,"x_max":765,"o":"m 335 -19 q 135 76 208 -19 q 63 335 63 171 q 106 531 63 446 q 228 665 150 617 q 404 714 306 714 q 553 686 478 714 l 553 828 l 340 828 l 340 897 l 553 897 l 553 972 l 658 972 l 658 897 l 765 897 l 765 828 l 658 828 l 658 139 l 672 0 l 581 -7 l 556 118 q 463 17 519 53 q 335 -19 406 -19 m 356 75 q 499 162 444 75 q 553 392 553 249 l 553 585 q 404 619 483 619 q 283 583 336 619 q 199 483 229 547 q 168 335 168 418 q 219 145 168 215 q 356 75 269 75 z "},"e":{"ha":672,"x_min":63,"x_max":624,"o":"m 350 -19 q 140 73 218 -19 q 63 322 63 165 q 106 526 63 438 q 228 664 150 614 q 407 714 306 714 q 518 688 469 714 q 595 617 567 661 q 624 515 624 572 q 578 390 624 444 q 453 303 533 335 q 268 272 372 272 q 171 276 219 272 q 230 129 182 183 q 354 75 278 75 q 464 95 410 75 q 556 150 518 115 l 606 82 q 350 -19 500 -19 m 271 364 q 449 406 379 364 q 518 511 518 447 q 485 589 518 558 q 403 619 453 619 q 244 551 307 619 q 169 371 181 482 q 222 365 197 367 q 271 364 247 364 z "},"é":{"ha":672,"x_min":63,"x_max":624,"o":"m 350 -19 q 140 73 218 -19 q 63 322 63 165 q 106 526 63 438 q 228 664 150 614 q 407 714 306 714 q 518 688 469 714 q 595 617 567 661 q 624 515 624 572 q 578 390 624 444 q 453 303 533 335 q 268 272 372 272 q 171 276 219 272 q 230 129 182 183 q 354 75 278 75 q 464 95 410 75 q 556 150 518 115 l 606 82 q 350 -19 500 -19 m 271 364 q 449 406 379 364 q 518 511 518 447 q 485 589 518 558 q 403 619 453 619 q 244 551 307 619 q 169 371 181 482 q 222 365 197 367 q 271 364 247 364 m 299 743 l 265 778 l 407 972 q 479 1021 442 1021 q 549 947 522 1021 l 299 743 z "},"ĕ":{"ha":672,"x_min":63,"x_max":624,"o":"m 350 -19 q 140 73 218 -19 q 63 322 63 165 q 106 526 63 438 q 228 664 150 614 q 407 714 306 714 q 518 688 469 714 q 595 617 567 661 q 624 515 624 572 q 578 390 624 444 q 453 303 533 335 q 268 272 372 272 q 171 276 219 272 q 230 129 182 183 q 354 75 278 75 q 464 95 410 75 q 556 150 518 115 l 606 82 q 350 -19 500 -19 m 271 364 q 449 406 379 364 q 518 511 518 447 q 485 589 518 558 q 403 619 453 619 q 244 551 307 619 q 169 371 181 482 q 222 365 197 367 q 271 364 247 364 m 374 793 q 251 840 297 793 q 204 964 204 886 l 290 964 q 313 901 290 925 q 374 878 336 878 q 433 901 410 878 q 457 964 457 925 l 543 964 q 497 840 543 888 q 374 793 450 793 z "},"ě":{"ha":672,"x_min":63,"x_max":624,"o":"m 350 -19 q 140 73 218 -19 q 63 322 63 165 q 106 526 63 438 q 228 664 150 614 q 407 714 306 714 q 518 688 469 714 q 595 617 567 661 q 624 515 624 572 q 578 390 624 444 q 453 303 533 335 q 268 272 372 272 q 171 276 219 272 q 230 129 182 183 q 354 75 278 75 q 464 95 410 75 q 556 150 518 115 l 606 82 q 350 -19 500 -19 m 271 364 q 449 406 379 364 q 518 511 518 447 q 485 589 518 558 q 403 619 453 619 q 244 551 307 619 q 169 371 181 482 q 222 365 197 367 q 271 364 247 364 m 374 746 q 341 755 354 746 q 313 785 328 764 l 178 975 l 211 1010 l 374 861 l 536 1010 l 569 975 l 435 785 q 406 754 419 763 q 374 746 393 746 z "},"ê":{"ha":672,"x_min":63,"x_max":624,"o":"m 350 -19 q 140 73 218 -19 q 63 322 63 165 q 106 526 63 438 q 228 664 150 614 q 407 714 306 714 q 518 688 469 714 q 595 617 567 661 q 624 515 624 572 q 578 390 624 444 q 453 303 533 335 q 268 272 372 272 q 171 276 219 272 q 230 129 182 183 q 354 75 278 75 q 464 95 410 75 q 556 150 518 115 l 606 82 q 350 -19 500 -19 m 271 364 q 449 406 379 364 q 518 511 518 447 q 485 589 518 558 q 403 619 453 619 q 244 551 307 619 q 169 371 181 482 q 222 365 197 367 q 271 364 247 364 m 211 746 l 178 781 l 313 971 q 341 1001 328 992 q 374 1010 354 1010 q 406 1001 393 1010 q 435 971 419 993 l 569 781 l 536 746 l 374 894 l 211 746 z "},"ë":{"ha":672,"x_min":63,"x_max":624,"o":"m 350 -19 q 140 73 218 -19 q 63 322 63 165 q 106 526 63 438 q 228 664 150 614 q 407 714 306 714 q 518 688 469 714 q 595 617 567 661 q 624 515 624 572 q 578 390 624 444 q 453 303 533 335 q 268 272 372 272 q 171 276 219 272 q 230 129 182 183 q 354 75 278 75 q 464 95 410 75 q 556 150 518 115 l 606 82 q 350 -19 500 -19 m 271 364 q 449 406 379 364 q 518 511 518 447 q 485 589 518 558 q 403 619 453 619 q 244 551 307 619 q 169 371 181 482 q 222 365 197 367 q 271 364 247 364 m 497 828 q 449 846 467 828 q 431 894 431 864 q 449 943 431 925 q 497 961 467 961 q 545 942 526 961 q 564 894 564 924 q 545 846 564 864 q 497 828 526 828 m 250 828 q 201 846 219 828 q 183 894 183 864 q 201 943 183 925 q 250 961 219 961 q 298 942 279 961 q 317 894 317 924 q 298 846 317 864 q 250 828 279 828 z "},"ė":{"ha":672,"x_min":63,"x_max":624,"o":"m 350 -19 q 140 73 218 -19 q 63 322 63 165 q 106 526 63 438 q 228 664 150 614 q 407 714 306 714 q 518 688 469 714 q 595 617 567 661 q 624 515 624 572 q 578 390 624 444 q 453 303 533 335 q 268 272 372 272 q 171 276 219 272 q 230 129 182 183 q 354 75 278 75 q 464 95 410 75 q 556 150 518 115 l 606 82 q 350 -19 500 -19 m 271 364 q 449 406 379 364 q 518 511 518 447 q 485 589 518 558 q 403 619 453 619 q 244 551 307 619 q 169 371 181 482 q 222 365 197 367 q 271 364 247 364 m 374 814 q 315 835 336 814 q 293 894 293 857 q 315 953 293 931 q 374 975 336 975 q 432 953 410 975 q 454 894 454 931 q 432 837 454 860 q 374 814 410 814 z "},"è":{"ha":672,"x_min":63,"x_max":624,"o":"m 350 -19 q 140 73 218 -19 q 63 322 63 165 q 106 526 63 438 q 228 664 150 614 q 407 714 306 714 q 518 688 469 714 q 595 617 567 661 q 624 515 624 572 q 578 390 624 444 q 453 303 533 335 q 268 272 372 272 q 171 276 219 272 q 230 129 182 183 q 354 75 278 75 q 464 95 410 75 q 556 150 518 115 l 606 82 q 350 -19 500 -19 m 271 364 q 449 406 379 364 q 518 511 518 447 q 485 589 518 558 q 403 619 453 619 q 244 551 307 619 q 169 371 181 482 q 222 365 197 367 q 271 364 247 364 m 461 743 l 211 947 q 281 1021 235 1021 q 353 972 318 1021 l 494 778 l 461 743 z "},"ē":{"ha":672,"x_min":63,"x_max":624,"o":"m 350 -19 q 140 73 218 -19 q 63 322 63 165 q 106 526 63 438 q 228 664 150 614 q 407 714 306 714 q 518 688 469 714 q 595 617 567 661 q 624 515 624 572 q 578 390 624 444 q 453 303 533 335 q 268 272 372 272 q 171 276 219 272 q 230 129 182 183 q 354 75 278 75 q 464 95 410 75 q 556 150 518 115 l 606 82 q 350 -19 500 -19 m 271 364 q 449 406 379 364 q 518 511 518 447 q 485 589 518 558 q 403 619 453 619 q 244 551 307 619 q 169 371 181 482 q 222 365 197 367 q 271 364 247 364 m 185 840 l 185 940 l 561 940 l 561 840 l 185 840 z "},"ę":{"ha":672,"x_min":63,"x_max":624,"o":"m 350 -19 q 140 73 218 -19 q 63 322 63 165 q 106 526 63 438 q 228 664 150 614 q 407 714 306 714 q 518 688 469 714 q 595 617 567 661 q 624 515 624 572 q 578 390 624 444 q 453 303 533 335 q 268 272 372 272 q 171 276 219 272 q 230 129 182 183 q 354 75 278 75 q 464 95 410 75 q 556 150 518 115 l 606 82 q 350 -19 500 -19 m 271 364 q 449 406 379 364 q 518 511 518 447 q 485 589 518 558 q 403 619 453 619 q 244 551 307 619 q 169 371 181 482 q 222 365 197 367 q 271 364 247 364 m 386 -287 q 301 -256 335 -287 q 267 -175 267 -224 q 302 -75 267 -122 q 397 0 338 -28 l 475 0 q 383 -78 415 -36 q 351 -161 351 -121 q 365 -200 351 -185 q 401 -215 379 -215 q 439 -206 418 -215 q 472 -185 460 -197 l 508 -232 q 455 -271 492 -254 q 386 -287 418 -287 z "},"f":{"ha":421,"x_min":56,"x_max":490,"o":"m 146 -222 l 146 604 l 56 604 l 56 694 l 146 694 l 146 765 q 192 933 146 875 q 325 992 239 992 q 490 936 404 992 l 449 861 q 336 893 375 893 q 251 771 251 893 l 251 694 l 411 694 l 411 604 l 251 604 l 251 -222 l 146 -222 z "},"g":{"ha":776,"x_min":63,"x_max":658,"o":"m 317 -332 q 184 -310 253 -332 q 63 -251 115 -287 l 115 -169 q 207 -215 151 -197 q 317 -233 263 -233 q 439 -197 386 -233 q 522 -97 492 -161 q 553 49 553 -33 l 553 115 q 460 16 515 51 q 335 -19 404 -19 q 135 76 208 -19 q 63 335 63 171 q 106 531 63 446 q 228 665 150 617 q 404 714 306 714 q 537 692 468 714 q 658 633 606 669 l 658 47 q 615 -149 658 -62 q 494 -283 571 -235 q 317 -332 417 -332 m 356 75 q 497 158 442 75 q 553 381 553 242 l 553 585 q 404 619 483 619 q 283 583 336 619 q 199 483 229 547 q 168 335 168 418 q 219 145 168 215 q 356 75 269 75 z "},"ğ":{"ha":776,"x_min":63,"x_max":658,"o":"m 317 -332 q 184 -310 253 -332 q 63 -251 115 -287 l 115 -169 q 207 -215 151 -197 q 317 -233 263 -233 q 439 -197 386 -233 q 522 -97 492 -161 q 553 49 553 -33 l 553 115 q 460 16 515 51 q 335 -19 404 -19 q 135 76 208 -19 q 63 335 63 171 q 106 531 63 446 q 228 665 150 617 q 404 714 306 714 q 537 692 468 714 q 658 633 606 669 l 658 47 q 615 -149 658 -62 q 494 -283 571 -235 q 317 -332 417 -332 m 356 75 q 497 158 442 75 q 553 381 553 242 l 553 585 q 404 619 483 619 q 283 583 336 619 q 199 483 229 547 q 168 335 168 418 q 219 145 168 215 q 356 75 269 75 m 401 793 q 278 840 325 793 q 232 964 232 886 l 318 964 q 341 901 318 925 q 401 878 364 878 q 461 901 438 878 q 485 964 485 925 l 571 964 q 524 840 571 888 q 401 793 478 793 z "},"ĝ":{"ha":776,"x_min":63,"x_max":658,"o":"m 317 -332 q 184 -310 253 -332 q 63 -251 115 -287 l 115 -169 q 207 -215 151 -197 q 317 -233 263 -233 q 439 -197 386 -233 q 522 -97 492 -161 q 553 49 553 -33 l 553 115 q 460 16 515 51 q 335 -19 404 -19 q 135 76 208 -19 q 63 335 63 171 q 106 531 63 446 q 228 665 150 617 q 404 714 306 714 q 537 692 468 714 q 658 633 606 669 l 658 47 q 615 -149 658 -62 q 494 -283 571 -235 q 317 -332 417 -332 m 356 75 q 497 158 442 75 q 553 381 553 242 l 553 585 q 404 619 483 619 q 283 583 336 619 q 199 483 229 547 q 168 335 168 418 q 219 145 168 215 q 356 75 269 75 m 239 746 l 206 781 l 340 971 q 369 1001 356 992 q 401 1010 382 1010 q 434 1001 421 1010 q 463 971 447 993 l 597 781 l 564 746 l 401 894 l 239 746 z "},"ģ":{"ha":776,"x_min":63,"x_max":658,"o":"m 317 -332 q 184 -310 253 -332 q 63 -251 115 -287 l 115 -169 q 207 -215 151 -197 q 317 -233 263 -233 q 439 -197 386 -233 q 522 -97 492 -161 q 553 49 553 -33 l 553 115 q 460 16 515 51 q 335 -19 404 -19 q 135 76 208 -19 q 63 335 63 171 q 106 531 63 446 q 228 665 150 617 q 404 714 306 714 q 537 692 468 714 q 658 633 606 669 l 658 47 q 615 -149 658 -62 q 494 -283 571 -235 q 317 -332 417 -332 m 356 75 q 497 158 442 75 q 553 381 553 242 l 553 585 q 404 619 483 619 q 283 583 336 619 q 199 483 229 547 q 168 335 168 418 q 219 145 168 215 q 356 75 269 75 m 485 1085 l 472 890 q 449 833 471 853 q 390 814 426 814 q 348 823 368 814 q 318 846 328 832 l 439 1099 l 485 1085 z "},"ġ":{"ha":776,"x_min":63,"x_max":658,"o":"m 317 -332 q 184 -310 253 -332 q 63 -251 115 -287 l 115 -169 q 207 -215 151 -197 q 317 -233 263 -233 q 439 -197 386 -233 q 522 -97 492 -161 q 553 49 553 -33 l 553 115 q 460 16 515 51 q 335 -19 404 -19 q 135 76 208 -19 q 63 335 63 171 q 106 531 63 446 q 228 665 150 617 q 404 714 306 714 q 537 692 468 714 q 658 633 606 669 l 658 47 q 615 -149 658 -62 q 494 -283 571 -235 q 317 -332 417 -332 m 356 75 q 497 158 442 75 q 553 381 553 242 l 553 585 q 404 619 483 619 q 283 583 336 619 q 199 483 229 547 q 168 335 168 418 q 219 145 168 215 q 356 75 269 75 m 401 814 q 342 835 364 814 q 321 894 321 857 q 342 953 321 931 q 401 975 364 975 q 460 953 438 975 q 482 894 482 931 q 460 837 482 860 q 401 814 438 814 z "},"h":{"ha":797,"x_min":125,"x_max":693,"o":"m 125 0 l 125 972 l 231 972 l 231 557 q 332 672 271 629 q 465 714 393 714 q 693 422 693 714 l 693 0 l 588 0 l 588 422 q 447 619 588 619 q 338 578 388 619 q 260 465 289 536 q 231 306 231 394 l 231 0 l 125 0 z "},"ħ":{"ha":797,"x_min":18,"x_max":693,"o":"m 125 0 l 125 828 l 18 828 l 18 897 l 125 897 l 125 972 l 231 972 l 231 897 l 443 897 l 443 828 l 231 828 l 231 557 q 332 672 271 629 q 465 714 393 714 q 693 422 693 714 l 693 0 l 588 0 l 588 422 q 447 619 588 619 q 338 578 388 619 q 260 465 289 536 q 231 306 231 394 l 231 0 l 125 0 z "},"ĥ":{"ha":797,"x_min":-17,"x_max":693,"o":"m 125 0 l 125 972 l 231 972 l 231 557 q 332 672 271 629 q 465 714 393 714 q 693 422 693 714 l 693 0 l 588 0 l 588 422 q 447 619 588 619 q 338 578 388 619 q 260 465 289 536 q 231 306 231 394 l 231 0 l 125 0 m 17 996 l -17 1031 l 118 1221 q 147 1251 133 1242 q 179 1260 160 1260 q 212 1251 199 1260 q 240 1221 225 1243 l 375 1031 l 342 996 l 179 1144 l 17 996 z "},"i":{"ha":356,"x_min":97,"x_max":258,"o":"m 125 0 l 125 694 l 231 694 l 231 0 l 125 0 m 178 814 q 119 835 140 814 q 97 894 97 857 q 119 953 97 931 q 178 975 140 975 q 236 953 214 975 q 258 894 258 931 q 236 837 258 860 q 178 814 214 814 z "},"ı":{"ha":356,"x_min":125,"x_max":231,"o":"m 125 0 l 125 694 l 231 694 l 231 0 l 125 0 z "},"í":{"ha":356,"x_min":69,"x_max":353,"o":"m 125 0 l 125 694 l 231 694 l 231 0 l 125 0 m 103 743 l 69 778 l 211 972 q 283 1021 246 1021 q 353 947 326 1021 l 103 743 z "},"ĭ":{"ha":356,"x_min":8,"x_max":347,"o":"m 125 0 l 125 694 l 231 694 l 231 0 l 125 0 m 178 793 q 55 840 101 793 q 8 964 8 886 l 94 964 q 117 901 94 925 q 178 878 140 878 q 238 901 214 878 q 261 964 261 925 l 347 964 q 301 840 347 888 q 178 793 254 793 z "},"î":{"ha":356,"x_min":-18,"x_max":374,"o":"m 125 0 l 125 694 l 231 694 l 231 0 l 125 0 m 15 746 l -18 781 l 117 971 q 145 1001 132 992 q 178 1010 158 1010 q 210 1001 197 1010 q 239 971 224 993 l 374 781 l 340 746 l 178 894 l 15 746 z "},"ï":{"ha":356,"x_min":-12,"x_max":368,"o":"m 125 0 l 125 694 l 231 694 l 231 0 l 125 0 m 301 828 q 253 846 271 828 q 235 894 235 864 q 253 943 235 925 q 301 961 271 961 q 349 942 331 961 q 368 894 368 924 q 349 846 368 864 q 301 828 331 828 m 54 828 q 6 846 24 828 q -12 894 -12 864 q 6 943 -12 925 q 54 961 24 961 q 102 942 83 961 q 121 894 121 924 q 102 846 121 864 q 54 828 83 828 z "},"ì":{"ha":356,"x_min":15,"x_max":299,"o":"m 125 0 l 125 694 l 231 694 l 231 0 l 125 0 m 265 743 l 15 947 q 85 1021 39 1021 q 157 972 122 1021 l 299 778 l 265 743 z "},"ĳ":{"ha":711,"x_min":97,"x_max":614,"o":"m 125 0 l 125 694 l 231 694 l 231 0 l 125 0 m 178 814 q 119 835 140 814 q 97 894 97 857 q 119 953 97 931 q 178 975 140 975 q 236 953 214 975 q 258 894 258 931 q 236 837 258 860 q 178 814 214 814 m 407 -332 q 242 -276 328 -332 l 283 -201 q 396 -233 356 -233 q 481 -111 481 -233 l 481 694 l 586 694 l 586 -106 q 540 -274 586 -215 q 407 -332 493 -332 m 533 814 q 474 835 496 814 q 453 894 453 857 q 474 953 453 931 q 533 975 496 975 q 592 953 569 975 q 614 894 614 931 q 592 837 614 860 q 533 814 569 814 z "},"ī":{"ha":356,"x_min":-11,"x_max":365,"o":"m 125 0 l 125 694 l 231 694 l 231 0 l 125 0 m -11 840 l -11 940 l 365 940 l 365 840 l -11 840 z "},"į":{"ha":356,"x_min":22,"x_max":264,"o":"m 125 0 l 125 694 l 231 694 l 231 0 l 125 0 m 178 814 q 119 835 140 814 q 97 894 97 857 q 119 953 97 931 q 178 975 140 975 q 236 953 214 975 q 258 894 258 931 q 236 837 258 860 q 178 814 214 814 m 142 -287 q 56 -256 90 -287 q 22 -175 22 -224 q 58 -75 22 -122 q 153 0 93 -28 l 231 0 q 139 -78 171 -36 q 107 -161 107 -121 q 121 -200 107 -185 q 157 -215 135 -215 q 194 -206 174 -215 q 228 -185 215 -197 l 264 -232 q 210 -271 247 -254 q 142 -287 174 -287 z "},"ĩ":{"ha":356,"x_min":-43,"x_max":397,"o":"m 125 0 l 125 694 l 231 694 l 231 0 l 125 0 m 22 800 l -43 811 q 78 961 -18 961 q 144 951 113 961 q 207 930 176 940 q 267 919 238 919 q 332 981 322 919 l 397 969 q 271 819 369 819 q 206 830 238 819 q 146 851 175 840 q 88 861 117 861 q 22 800 31 861 z "},"j":{"ha":356,"x_min":-114,"x_max":258,"o":"m 51 -332 q -114 -276 -28 -332 l -72 -201 q 40 -233 0 -233 q 125 -111 125 -233 l 125 694 l 231 694 l 231 -106 q 184 -274 231 -215 q 51 -332 138 -332 m 178 814 q 119 835 140 814 q 97 894 97 857 q 119 953 97 931 q 178 975 140 975 q 236 953 214 975 q 258 894 258 931 q 236 837 258 860 q 178 814 214 814 z "},"ȷ":{"ha":356,"x_min":-114,"x_max":231,"o":"m 51 -332 q -114 -276 -28 -332 l -72 -201 q 40 -233 0 -233 q 125 -111 125 -233 l 125 694 l 231 694 l 231 -106 q 184 -274 231 -215 q 51 -332 138 -332 z "},"ĵ":{"ha":356,"x_min":-114,"x_max":374,"o":"m 51 -332 q -114 -276 -28 -332 l -72 -201 q 40 -233 0 -233 q 125 -111 125 -233 l 125 694 l 231 694 l 231 -106 q 184 -274 231 -215 q 51 -332 138 -332 m 15 746 l -18 781 l 117 971 q 145 1001 132 992 q 178 1010 158 1010 q 210 1001 197 1010 q 239 971 224 993 l 374 781 l 340 746 l 178 894 l 15 746 z "},"k":{"ha":706,"x_min":125,"x_max":664,"o":"m 125 0 l 125 972 l 231 972 l 231 585 q 328 678 271 643 q 450 714 385 714 q 597 667 544 714 q 649 535 649 621 q 604 407 649 464 q 481 311 560 350 l 664 0 l 542 0 l 381 274 q 308 258 346 264 q 231 247 271 251 l 231 0 l 125 0 m 231 340 q 458 403 372 353 q 543 528 543 453 q 517 595 543 571 q 447 619 492 619 q 340 585 390 619 q 260 494 290 550 q 231 371 231 438 l 231 340 z "},"ķ":{"ha":706,"x_min":125,"x_max":664,"o":"m 125 0 l 125 972 l 231 972 l 231 585 q 328 678 271 643 q 450 714 385 714 q 597 667 544 714 q 649 535 649 621 q 604 407 649 464 q 481 311 560 350 l 664 0 l 542 0 l 381 274 q 308 258 346 264 q 231 247 271 251 l 231 0 l 125 0 m 231 340 q 458 403 372 353 q 543 528 543 453 q 517 595 543 571 q 447 619 492 619 q 340 585 390 619 q 260 494 290 550 q 231 371 231 438 l 231 340 m 315 -368 l 269 -354 l 282 -160 q 306 -103 285 -122 q 364 -83 328 -83 q 406 -92 386 -83 q 436 -115 426 -101 l 315 -368 z "},"ĸ":{"ha":669,"x_min":118,"x_max":642,"o":"m 539 -19 l 425 254 q 408 284 418 271 q 372 297 397 297 l 225 297 l 225 0 l 118 0 l 118 694 l 225 694 l 225 382 l 286 382 l 515 694 l 635 694 l 401 381 q 488 344 461 374 q 531 275 514 315 l 642 11 l 539 -19 z "},"l":{"ha":365,"x_min":104,"x_max":393,"o":"m 249 -19 q 140 22 175 -19 q 104 153 104 64 l 104 972 l 210 972 l 210 153 q 272 76 210 76 q 351 104 310 76 l 393 29 q 249 -19 317 -19 z "},"ĺ":{"ha":365,"x_min":42,"x_max":393,"o":"m 249 -19 q 140 22 175 -19 q 104 153 104 64 l 104 972 l 210 972 l 210 153 q 272 76 210 76 q 351 104 310 76 l 393 29 q 249 -19 317 -19 m 75 993 l 42 1028 l 183 1222 q 256 1271 218 1271 q 325 1197 299 1271 l 75 993 z "},"ľ":{"ha":365,"x_min":104,"x_max":431,"o":"m 249 -19 q 140 22 175 -19 q 104 153 104 64 l 104 972 l 210 972 l 210 153 q 272 76 210 76 q 351 104 310 76 l 393 29 q 249 -19 317 -19 m 350 753 l 304 760 l 304 1075 q 333 1081 317 1078 q 365 1083 349 1083 q 431 1028 431 1083 q 424 987 431 1013 q 403 913 418 961 l 350 753 z "},"ļ":{"ha":365,"x_min":100,"x_max":393,"o":"m 249 -19 q 140 22 175 -19 q 104 153 104 64 l 104 972 l 210 972 l 210 153 q 272 76 210 76 q 351 104 310 76 l 393 29 q 249 -19 317 -19 m 146 -368 l 100 -354 l 113 -160 q 137 -103 115 -122 q 194 -83 158 -83 q 237 -92 217 -83 q 267 -115 257 -101 l 146 -368 z "},"ŀ":{"ha":383,"x_min":104,"x_max":425,"o":"m 249 -19 q 140 22 175 -19 q 104 153 104 64 l 104 972 l 210 972 l 210 153 q 272 76 210 76 q 351 104 310 76 l 393 29 q 249 -19 317 -19 m 349 392 q 293 413 314 392 q 272 468 272 433 q 293 524 272 503 q 349 544 314 544 q 404 524 383 544 q 425 468 425 503 q 404 413 425 433 q 349 392 383 392 z "},"ł":{"ha":365,"x_min":-22,"x_max":393,"o":"m 249 -19 q 140 22 175 -19 q 104 153 104 64 l 104 383 l 24 325 l -22 386 l 104 476 l 104 972 l 210 972 l 210 553 l 335 642 l 379 581 l 210 458 l 210 153 q 272 76 210 76 q 351 104 310 76 l 393 29 q 249 -19 317 -19 z "},"m":{"ha":1211,"x_min":104,"x_max":1107,"o":"m 118 0 l 118 556 l 104 694 l 196 701 l 222 558 q 319 672 263 631 q 444 714 376 714 q 653 539 613 714 q 753 667 692 619 q 886 714 814 714 q 1051 640 994 714 q 1107 422 1107 567 l 1107 0 l 1001 0 l 1001 422 q 869 619 1001 619 q 766 576 813 619 q 692 459 719 533 q 665 292 665 385 l 665 0 l 560 0 l 560 422 q 428 619 560 619 q 326 578 372 619 q 251 467 279 538 q 224 306 224 396 l 224 0 l 118 0 z "},"n":{"ha":790,"x_min":104,"x_max":686,"o":"m 118 0 l 118 556 l 104 694 l 196 701 l 224 557 q 325 672 264 629 q 458 714 386 714 q 686 422 686 714 l 686 0 l 581 0 l 581 422 q 440 619 581 619 q 331 578 381 619 q 253 465 282 536 q 224 306 224 394 l 224 0 l 118 0 z "},"ń":{"ha":790,"x_min":104,"x_max":686,"o":"m 118 0 l 118 556 l 104 694 l 196 701 l 224 557 q 325 672 264 629 q 458 714 386 714 q 686 422 686 714 l 686 0 l 581 0 l 581 422 q 440 619 581 619 q 331 578 381 619 q 253 465 282 536 q 224 306 224 394 l 224 0 l 118 0 m 321 743 l 288 778 l 429 972 q 501 1021 464 1021 q 571 947 544 1021 l 321 743 z "},"ŉ":{"ha":790,"x_min":-42,"x_max":686,"o":"m 118 0 l 118 556 l 104 694 l 196 701 l 224 557 q 325 672 264 629 q 458 714 386 714 q 686 422 686 714 l 686 0 l 581 0 l 581 422 q 440 619 581 619 q 331 578 381 619 q 253 465 282 536 q 224 306 224 394 l 224 0 l 118 0 m 4 753 l -42 760 l -42 1075 q -13 1081 -29 1078 q 19 1083 3 1083 q 85 1028 85 1083 q 78 987 85 1013 q 57 913 72 961 l 4 753 z "},"ň":{"ha":790,"x_min":104,"x_max":686,"o":"m 118 0 l 118 556 l 104 694 l 196 701 l 224 557 q 325 672 264 629 q 458 714 386 714 q 686 422 686 714 l 686 0 l 581 0 l 581 422 q 440 619 581 619 q 331 578 381 619 q 253 465 282 536 q 224 306 224 394 l 224 0 l 118 0 m 396 746 q 363 755 376 746 q 335 785 350 764 l 200 975 l 233 1010 l 396 861 l 558 1010 l 592 975 l 457 785 q 428 754 442 763 q 396 746 415 746 z "},"ņ":{"ha":790,"x_min":104,"x_max":686,"o":"m 118 0 l 118 556 l 104 694 l 196 701 l 224 557 q 325 672 264 629 q 458 714 386 714 q 686 422 686 714 l 686 0 l 581 0 l 581 422 q 440 619 581 619 q 331 578 381 619 q 253 465 282 536 q 224 306 224 394 l 224 0 l 118 0 m 358 -368 l 313 -354 l 325 -160 q 349 -103 328 -122 q 407 -83 371 -83 q 449 -92 429 -83 q 479 -115 469 -101 l 358 -368 z "},"ñ":{"ha":790,"x_min":104,"x_max":686,"o":"m 118 0 l 118 556 l 104 694 l 196 701 l 224 557 q 325 672 264 629 q 458 714 386 714 q 686 422 686 714 l 686 0 l 581 0 l 581 422 q 440 619 581 619 q 331 578 381 619 q 253 465 282 536 q 224 306 224 394 l 224 0 l 118 0 m 240 800 l 175 811 q 296 961 200 961 q 363 951 331 961 q 425 930 394 940 q 485 919 456 919 q 550 981 540 919 l 615 969 q 489 819 588 819 q 424 830 456 819 q 364 851 393 840 q 306 861 335 861 q 240 800 249 861 z "},"ŋ":{"ha":790,"x_min":104,"x_max":686,"o":"m 507 -332 q 342 -276 428 -332 l 383 -201 q 496 -233 456 -233 q 581 -111 581 -233 l 581 422 q 440 619 581 619 q 331 578 381 619 q 253 465 282 536 q 224 306 224 394 l 224 0 l 118 0 l 118 556 l 104 694 l 196 701 l 224 557 q 325 672 264 629 q 458 714 386 714 q 686 422 686 714 l 686 -106 q 640 -274 686 -215 q 507 -332 593 -332 z "},"o":{"ha":751,"x_min":69,"x_max":682,"o":"m 375 -19 q 151 78 232 -19 q 69 347 69 175 q 151 617 69 521 q 375 714 232 714 q 601 616 519 714 q 682 347 682 518 q 601 78 682 176 q 375 -19 519 -19 m 375 75 q 523 147 469 75 q 576 347 576 219 q 523 547 576 475 q 375 619 469 619 q 228 547 281 619 q 175 347 175 475 q 228 147 175 219 q 375 75 281 75 z "},"ó":{"ha":751,"x_min":69,"x_max":682,"o":"m 375 -19 q 151 78 232 -19 q 69 347 69 175 q 151 617 69 521 q 375 714 232 714 q 601 616 519 714 q 682 347 682 518 q 601 78 682 176 q 375 -19 519 -19 m 375 75 q 523 147 469 75 q 576 347 576 219 q 523 547 576 475 q 375 619 469 619 q 228 547 281 619 q 175 347 175 475 q 228 147 175 219 q 375 75 281 75 m 301 743 l 268 778 l 410 972 q 482 1021 444 1021 q 551 947 525 1021 l 301 743 z "},"ŏ":{"ha":751,"x_min":69,"x_max":682,"o":"m 375 -19 q 151 78 232 -19 q 69 347 69 175 q 151 617 69 521 q 375 714 232 714 q 601 616 519 714 q 682 347 682 518 q 601 78 682 176 q 375 -19 519 -19 m 375 75 q 523 147 469 75 q 576 347 576 219 q 523 547 576 475 q 375 619 469 619 q 228 547 281 619 q 175 347 175 475 q 228 147 175 219 q 375 75 281 75 m 376 793 q 253 840 300 793 q 207 964 207 886 l 293 964 q 316 901 293 925 q 376 878 339 878 q 436 901 413 878 q 460 964 460 925 l 546 964 q 499 840 546 888 q 376 793 453 793 z "},"ô":{"ha":751,"x_min":69,"x_max":682,"o":"m 375 -19 q 151 78 232 -19 q 69 347 69 175 q 151 617 69 521 q 375 714 232 714 q 601 616 519 714 q 682 347 682 518 q 601 78 682 176 q 375 -19 519 -19 m 375 75 q 523 147 469 75 q 576 347 576 219 q 523 547 576 475 q 375 619 469 619 q 228 547 281 619 q 175 347 175 475 q 228 147 175 219 q 375 75 281 75 m 214 746 l 181 781 l 315 971 q 344 1001 331 992 q 376 1010 357 1010 q 409 1001 396 1010 q 438 971 422 993 l 572 781 l 539 746 l 376 894 l 214 746 z "},"ö":{"ha":751,"x_min":69,"x_max":682,"o":"m 375 -19 q 151 78 232 -19 q 69 347 69 175 q 151 617 69 521 q 375 714 232 714 q 601 616 519 714 q 682 347 682 518 q 601 78 682 176 q 375 -19 519 -19 m 375 75 q 523 147 469 75 q 576 347 576 219 q 523 547 576 475 q 375 619 469 619 q 228 547 281 619 q 175 347 175 475 q 228 147 175 219 q 375 75 281 75 m 500 828 q 451 846 469 828 q 433 894 433 864 q 451 943 433 925 q 500 961 469 961 q 548 942 529 961 q 567 894 567 924 q 548 846 567 864 q 500 828 529 828 m 253 828 q 204 846 222 828 q 186 894 186 864 q 204 943 186 925 q 253 961 222 961 q 301 942 282 961 q 319 894 319 924 q 301 846 319 864 q 253 828 282 828 z "},"ò":{"ha":751,"x_min":69,"x_max":682,"o":"m 375 -19 q 151 78 232 -19 q 69 347 69 175 q 151 617 69 521 q 375 714 232 714 q 601 616 519 714 q 682 347 682 518 q 601 78 682 176 q 375 -19 519 -19 m 375 75 q 523 147 469 75 q 576 347 576 219 q 523 547 576 475 q 375 619 469 619 q 228 547 281 619 q 175 347 175 475 q 228 147 175 219 q 375 75 281 75 m 464 743 l 214 947 q 283 1021 238 1021 q 356 972 321 1021 l 497 778 l 464 743 z "},"ő":{"ha":751,"x_min":69,"x_max":682,"o":"m 375 -19 q 151 78 232 -19 q 69 347 69 175 q 151 617 69 521 q 375 714 232 714 q 601 616 519 714 q 682 347 682 518 q 601 78 682 176 q 375 -19 519 -19 m 375 75 q 523 147 469 75 q 576 347 576 219 q 523 547 576 475 q 375 619 469 619 q 228 547 281 619 q 175 347 175 475 q 228 147 175 219 q 375 75 281 75 m 435 743 l 396 771 l 483 958 q 554 1021 511 1021 q 626 961 592 1021 l 435 743 m 251 743 l 213 771 l 300 958 q 371 1021 328 1021 q 443 961 408 1021 l 251 743 z "},"ō":{"ha":751,"x_min":69,"x_max":682,"o":"m 375 -19 q 151 78 232 -19 q 69 347 69 175 q 151 617 69 521 q 375 714 232 714 q 601 616 519 714 q 682 347 682 518 q 601 78 682 176 q 375 -19 519 -19 m 375 75 q 523 147 469 75 q 576 347 576 219 q 523 547 576 475 q 375 619 469 619 q 228 547 281 619 q 175 347 175 475 q 228 147 175 219 q 375 75 281 75 m 188 840 l 188 940 l 564 940 l 564 840 l 188 840 z "},"ø":{"ha":751,"x_min":69,"x_max":682,"o":"m 375 -19 q 151 78 232 -19 q 69 347 69 175 q 151 617 69 521 q 375 714 232 714 q 601 616 519 714 q 682 347 682 518 q 601 78 682 176 q 375 -19 519 -19 m 375 75 q 523 147 469 75 q 576 347 576 219 q 523 547 576 475 q 375 619 469 619 q 228 547 281 619 q 175 347 175 475 q 228 147 175 219 q 375 75 281 75 m 165 -131 l 497 831 l 579 831 l 246 -131 l 165 -131 z "},"ǿ":{"ha":751,"x_min":69,"x_max":682,"o":"m 375 -19 q 151 78 232 -19 q 69 347 69 175 q 151 617 69 521 q 375 714 232 714 q 601 616 519 714 q 682 347 682 518 q 601 78 682 176 q 375 -19 519 -19 m 375 75 q 523 147 469 75 q 576 347 576 219 q 523 547 576 475 q 375 619 469 619 q 228 547 281 619 q 175 347 175 475 q 228 147 175 219 q 375 75 281 75 m 165 -131 l 497 831 l 579 831 l 246 -131 l 165 -131 m 301 743 l 268 778 l 410 972 q 482 1021 444 1021 q 551 947 525 1021 l 301 743 z "},"õ":{"ha":751,"x_min":69,"x_max":682,"o":"m 375 -19 q 151 78 232 -19 q 69 347 69 175 q 151 617 69 521 q 375 714 232 714 q 601 616 519 714 q 682 347 682 518 q 601 78 682 176 q 375 -19 519 -19 m 375 75 q 523 147 469 75 q 576 347 576 219 q 523 547 576 475 q 375 619 469 619 q 228 547 281 619 q 175 347 175 475 q 228 147 175 219 q 375 75 281 75 m 221 800 l 156 811 q 276 961 181 961 q 343 951 311 961 q 406 930 375 940 q 465 919 436 919 q 531 981 521 919 l 596 969 q 469 819 568 819 q 405 830 436 819 q 344 851 374 840 q 286 861 315 861 q 221 800 229 861 z "},"œ":{"ha":1081,"x_min":69,"x_max":1032,"o":"m 375 -19 q 151 78 232 -19 q 69 347 69 175 q 151 617 69 521 q 375 714 232 714 q 590 629 511 714 q 692 692 635 669 q 815 714 749 714 q 926 688 878 714 q 1003 617 975 661 q 1032 515 1032 572 q 987 390 1032 444 q 861 303 942 335 q 676 272 781 272 q 579 276 628 272 q 638 129 590 183 q 763 75 686 75 q 872 95 818 75 q 964 150 926 115 l 1014 82 q 758 -19 908 -19 q 572 49 646 -19 q 375 -19 496 -19 m 175 347 q 228 147 175 219 q 375 75 281 75 q 514 124 467 75 q 471 322 471 207 q 486 447 471 389 q 529 551 501 504 q 375 619 478 619 q 228 547 281 619 q 175 347 175 475 m 679 364 q 857 406 788 364 q 926 511 926 447 q 894 589 926 558 q 811 619 861 619 q 652 551 715 619 q 578 371 589 482 q 631 365 606 367 q 679 364 656 364 z "},"p":{"ha":783,"x_min":104,"x_max":714,"o":"m 118 -312 l 118 556 l 104 694 l 196 701 l 219 572 q 313 676 257 639 q 442 714 369 714 q 641 619 568 714 q 714 360 714 524 q 670 164 714 250 q 549 29 626 78 q 372 -19 472 -19 q 298 -12 336 -19 q 224 7 260 -6 l 224 -312 l 118 -312 m 372 75 q 494 112 442 75 q 578 213 547 149 q 608 360 608 276 q 558 549 608 479 q 421 619 507 619 q 319 581 364 619 q 249 474 274 543 q 224 313 224 406 l 224 114 q 372 75 293 75 z "},"þ":{"ha":783,"x_min":118,"x_max":714,"o":"m 118 -312 l 118 972 l 224 972 l 224 581 q 449 714 299 714 q 643 619 572 714 q 714 360 714 524 q 670 164 714 250 q 549 29 626 78 q 372 -19 472 -19 q 299 -12 338 -19 q 224 8 261 -4 l 224 -312 l 118 -312 m 372 75 q 494 112 442 75 q 578 213 547 149 q 608 360 608 276 q 563 551 608 482 q 436 619 518 619 q 281 538 338 619 q 224 307 224 456 l 224 108 q 372 75 288 75 z "},"q":{"ha":790,"x_min":69,"x_max":665,"o":"m 560 -312 l 560 108 q 335 -21 483 -21 q 141 74 213 -21 q 69 333 69 169 q 113 530 69 444 q 235 664 157 615 q 411 713 313 713 q 542 690 472 713 q 665 631 613 668 l 665 -312 l 560 -312 m 335 74 q 453 115 403 74 q 531 229 503 156 q 560 401 560 303 l 560 585 q 411 618 496 618 q 290 582 343 618 q 206 481 236 546 q 175 333 175 417 q 218 144 175 214 q 335 74 261 74 z "},"r":{"ha":489,"x_min":104,"x_max":475,"o":"m 118 0 l 118 556 l 104 694 l 196 701 l 224 533 q 326 663 264 617 q 468 710 389 710 l 475 604 q 289 499 354 594 q 224 228 224 403 l 224 0 l 118 0 z "},"ŕ":{"ha":489,"x_min":104,"x_max":475,"o":"m 118 0 l 118 556 l 104 694 l 196 701 l 224 533 q 326 663 264 617 q 468 710 389 710 l 475 604 q 289 499 354 594 q 224 228 224 403 l 224 0 l 118 0 m 208 743 l 175 778 l 317 972 q 389 1021 351 1021 q 458 947 432 1021 l 208 743 z "},"ř":{"ha":489,"x_min":88,"x_max":479,"o":"m 118 0 l 118 556 l 104 694 l 196 701 l 224 533 q 326 663 264 617 q 468 710 389 710 l 475 604 q 289 499 354 594 q 224 228 224 403 l 224 0 l 118 0 m 283 746 q 251 755 264 746 q 222 785 238 764 l 88 975 l 121 1010 l 283 861 l 446 1010 l 479 975 l 344 785 q 316 754 329 763 q 283 746 303 746 z "},"ŗ":{"ha":489,"x_min":78,"x_max":475,"o":"m 118 0 l 118 556 l 104 694 l 196 701 l 224 533 q 326 663 264 617 q 468 710 389 710 l 475 604 q 289 499 354 594 q 224 228 224 403 l 224 0 l 118 0 m 124 -368 l 78 -354 l 90 -160 q 115 -103 93 -122 q 172 -83 136 -83 q 215 -92 194 -83 q 244 -115 235 -101 l 124 -368 z "},"s":{"ha":599,"x_min":56,"x_max":550,"o":"m 300 -19 q 168 6 232 -19 q 56 74 104 31 l 113 150 q 199 97 147 117 q 300 76 250 76 q 405 107 365 76 q 444 188 444 138 q 411 258 444 231 q 297 308 378 286 q 172 358 218 332 q 106 422 125 385 q 86 510 86 458 q 149 657 86 600 q 314 714 213 714 q 384 708 346 714 q 458 691 422 701 q 515 667 493 681 l 476 582 q 401 608 449 597 q 314 618 354 618 q 226 590 261 618 q 192 519 192 563 q 222 457 192 481 q 328 411 251 433 q 501 326 451 375 q 550 192 550 278 q 482 38 550 96 q 300 -19 414 -19 z "},"ś":{"ha":599,"x_min":56,"x_max":550,"o":"m 300 -19 q 168 6 232 -19 q 56 74 104 31 l 113 150 q 199 97 147 117 q 300 76 250 76 q 405 107 365 76 q 444 188 444 138 q 411 258 444 231 q 297 308 378 286 q 172 358 218 332 q 106 422 125 385 q 86 510 86 458 q 149 657 86 600 q 314 714 213 714 q 384 708 346 714 q 458 691 422 701 q 515 667 493 681 l 476 582 q 401 608 449 597 q 314 618 354 618 q 226 590 261 618 q 192 519 192 563 q 222 457 192 481 q 328 411 251 433 q 501 326 451 375 q 550 192 550 278 q 482 38 550 96 q 300 -19 414 -19 m 225 743 l 192 778 l 333 972 q 406 1021 368 1021 q 475 947 449 1021 l 225 743 z "},"š":{"ha":599,"x_min":56,"x_max":550,"o":"m 300 -19 q 168 6 232 -19 q 56 74 104 31 l 113 150 q 199 97 147 117 q 300 76 250 76 q 405 107 365 76 q 444 188 444 138 q 411 258 444 231 q 297 308 378 286 q 172 358 218 332 q 106 422 125 385 q 86 510 86 458 q 149 657 86 600 q 314 714 213 714 q 384 708 346 714 q 458 691 422 701 q 515 667 493 681 l 476 582 q 401 608 449 597 q 314 618 354 618 q 226 590 261 618 q 192 519 192 563 q 222 457 192 481 q 328 411 251 433 q 501 326 451 375 q 550 192 550 278 q 482 38 550 96 q 300 -19 414 -19 m 300 746 q 267 755 281 746 q 239 785 254 764 l 104 975 l 138 1010 l 300 861 l 463 1010 l 496 975 l 361 785 q 333 754 346 763 q 300 746 319 746 z "},"ş":{"ha":599,"x_min":56,"x_max":550,"o":"m 300 -19 q 168 6 232 -19 q 56 74 104 31 l 113 150 q 199 97 147 117 q 300 76 250 76 q 405 107 365 76 q 444 188 444 138 q 411 258 444 231 q 297 308 378 286 q 172 358 218 332 q 106 422 125 385 q 86 510 86 458 q 149 657 86 600 q 314 714 213 714 q 384 708 346 714 q 458 691 422 701 q 515 667 493 681 l 476 582 q 401 608 449 597 q 314 618 354 618 q 226 590 261 618 q 192 519 192 563 q 222 457 192 481 q 328 411 251 433 q 501 326 451 375 q 550 192 550 278 q 482 38 550 96 q 300 -19 414 -19 m 285 -283 q 220 -272 254 -283 q 171 -246 186 -260 l 203 -189 q 235 -205 211 -197 q 279 -212 260 -212 q 326 -199 308 -212 q 343 -164 343 -186 q 265 -122 343 -122 l 232 -122 l 265 33 l 333 33 l 311 -69 q 397 -97 364 -69 q 429 -169 429 -125 q 390 -253 429 -222 q 285 -283 351 -283 z "},"ŝ":{"ha":599,"x_min":56,"x_max":550,"o":"m 300 -19 q 168 6 232 -19 q 56 74 104 31 l 113 150 q 199 97 147 117 q 300 76 250 76 q 405 107 365 76 q 444 188 444 138 q 411 258 444 231 q 297 308 378 286 q 172 358 218 332 q 106 422 125 385 q 86 510 86 458 q 149 657 86 600 q 314 714 213 714 q 384 708 346 714 q 458 691 422 701 q 515 667 493 681 l 476 582 q 401 608 449 597 q 314 618 354 618 q 226 590 261 618 q 192 519 192 563 q 222 457 192 481 q 328 411 251 433 q 501 326 451 375 q 550 192 550 278 q 482 38 550 96 q 300 -19 414 -19 m 138 746 l 104 781 l 239 971 q 267 1001 254 992 q 300 1010 281 1010 q 333 1001 319 1010 q 361 971 346 993 l 496 781 l 463 746 l 300 894 l 138 746 z "},"ș":{"ha":599,"x_min":56,"x_max":550,"o":"m 300 -19 q 168 6 232 -19 q 56 74 104 31 l 113 150 q 199 97 147 117 q 300 76 250 76 q 405 107 365 76 q 444 188 444 138 q 411 258 444 231 q 297 308 378 286 q 172 358 218 332 q 106 422 125 385 q 86 510 86 458 q 149 657 86 600 q 314 714 213 714 q 384 708 346 714 q 458 691 422 701 q 515 667 493 681 l 476 582 q 401 608 449 597 q 314 618 354 618 q 226 590 261 618 q 192 519 192 563 q 222 457 192 481 q 328 411 251 433 q 501 326 451 375 q 550 192 550 278 q 482 38 550 96 q 300 -19 414 -19 m 263 -368 l 217 -354 l 229 -160 q 253 -103 232 -122 q 311 -83 275 -83 q 353 -92 333 -83 q 383 -115 374 -101 l 263 -368 z "},"ß":{"ha":804,"x_min":56,"x_max":790,"o":"m 146 -222 l 146 604 l 56 604 l 56 694 l 146 694 l 146 765 q 217 935 146 871 q 406 999 289 999 q 542 972 482 999 q 639 901 603 946 q 675 799 675 856 q 658 709 675 746 q 616 646 642 672 q 565 598 590 619 q 524 554 540 576 q 507 503 507 532 q 535 447 507 468 q 606 407 564 425 q 691 365 649 389 q 762 301 733 340 q 790 197 790 261 q 723 40 790 99 q 540 -19 656 -19 q 408 6 472 -19 q 296 74 344 31 l 353 150 q 439 97 388 117 q 540 76 490 76 q 645 108 607 78 q 683 192 683 139 q 663 250 683 228 q 610 288 643 272 q 542 319 578 304 q 473 354 506 333 q 420 407 440 375 q 400 488 400 439 q 417 574 400 540 q 459 631 433 607 q 510 676 485 654 q 551 724 535 697 q 568 790 568 750 q 521 872 568 839 q 406 906 474 906 q 294 869 338 906 q 251 771 251 832 l 251 -222 l 146 -222 z "},"t":{"ha":460,"x_min":40,"x_max":456,"o":"m 290 -19 q 181 22 215 -19 q 146 151 146 63 l 146 604 l 40 604 l 40 694 l 146 694 l 179 903 l 251 903 l 251 694 l 414 694 l 414 604 l 251 604 l 251 151 q 314 75 251 75 q 417 115 361 75 l 456 44 q 290 -19 375 -19 z "},"ŧ":{"ha":460,"x_min":39,"x_max":456,"o":"m 290 -19 q 181 22 215 -19 q 146 151 146 63 l 146 343 l 39 343 l 39 413 l 146 413 l 146 604 l 40 604 l 40 694 l 146 694 l 179 903 l 251 903 l 251 694 l 414 694 l 414 604 l 251 604 l 251 413 l 415 413 l 415 343 l 251 343 l 251 151 q 314 75 251 75 q 417 115 361 75 l 456 44 q 290 -19 375 -19 z "},"ť":{"ha":460,"x_min":40,"x_max":478,"o":"m 290 -19 q 181 22 215 -19 q 146 151 146 63 l 146 604 l 40 604 l 40 694 l 146 694 l 179 903 l 251 903 l 251 694 l 414 694 l 414 604 l 251 604 l 251 151 q 314 75 251 75 q 417 115 361 75 l 456 44 q 290 -19 375 -19 m 397 751 l 351 758 l 351 1074 q 380 1079 364 1076 q 413 1082 396 1082 q 478 1026 478 1082 q 472 985 478 1011 q 450 911 465 960 l 397 751 z "},"ţ":{"ha":460,"x_min":40,"x_max":456,"o":"m 290 -19 q 181 22 215 -19 q 146 151 146 63 l 146 604 l 40 604 l 40 694 l 146 694 l 179 903 l 251 903 l 251 694 l 414 694 l 414 604 l 251 604 l 251 151 q 314 75 251 75 q 417 115 361 75 l 456 44 q 290 -19 375 -19 m 201 -283 q 137 -272 171 -283 q 88 -246 103 -260 l 119 -189 q 152 -205 128 -197 q 196 -212 176 -212 q 242 -199 225 -212 q 260 -164 260 -186 q 182 -122 260 -122 l 149 -122 l 182 33 l 250 33 l 228 -69 q 313 -97 281 -69 q 346 -169 346 -125 q 307 -253 346 -222 q 201 -283 268 -283 z "},"ț":{"ha":460,"x_min":40,"x_max":456,"o":"m 290 -19 q 181 22 215 -19 q 146 151 146 63 l 146 604 l 40 604 l 40 694 l 146 694 l 179 903 l 251 903 l 251 694 l 414 694 l 414 604 l 251 604 l 251 151 q 314 75 251 75 q 417 115 361 75 l 456 44 q 290 -19 375 -19 m 179 -368 l 133 -354 l 146 -160 q 170 -103 149 -122 q 228 -83 192 -83 q 270 -92 250 -83 q 300 -115 290 -101 l 179 -368 z "},"u":{"ha":790,"x_min":104,"x_max":686,"o":"m 332 -19 q 104 272 104 -19 l 104 694 l 210 694 l 210 272 q 350 75 210 75 q 460 119 411 75 q 538 237 510 163 q 567 403 567 311 l 567 694 l 672 694 l 672 139 l 686 0 l 594 -7 l 567 138 q 466 23 526 65 q 332 -19 406 -19 z "},"ú":{"ha":790,"x_min":104,"x_max":686,"o":"m 332 -19 q 104 272 104 -19 l 104 694 l 210 694 l 210 272 q 350 75 210 75 q 460 119 411 75 q 538 237 510 163 q 567 403 567 311 l 567 694 l 672 694 l 672 139 l 686 0 l 594 -7 l 567 138 q 466 23 526 65 q 332 -19 406 -19 m 321 743 l 288 778 l 429 972 q 501 1021 464 1021 q 571 947 544 1021 l 321 743 z "},"ŭ":{"ha":790,"x_min":104,"x_max":686,"o":"m 332 -19 q 104 272 104 -19 l 104 694 l 210 694 l 210 272 q 350 75 210 75 q 460 119 411 75 q 538 237 510 163 q 567 403 567 311 l 567 694 l 672 694 l 672 139 l 686 0 l 594 -7 l 567 138 q 466 23 526 65 q 332 -19 406 -19 m 396 793 q 273 840 319 793 q 226 964 226 886 l 313 964 q 335 901 313 925 q 396 878 358 878 q 456 901 432 878 q 479 964 479 925 l 565 964 q 519 840 565 888 q 396 793 472 793 z "},"û":{"ha":790,"x_min":104,"x_max":686,"o":"m 332 -19 q 104 272 104 -19 l 104 694 l 210 694 l 210 272 q 350 75 210 75 q 460 119 411 75 q 538 237 510 163 q 567 403 567 311 l 567 694 l 672 694 l 672 139 l 686 0 l 594 -7 l 567 138 q 466 23 526 65 q 332 -19 406 -19 m 233 746 l 200 781 l 335 971 q 363 1001 350 992 q 396 1010 376 1010 q 428 1001 415 1010 q 457 971 442 993 l 592 781 l 558 746 l 396 894 l 233 746 z "},"ü":{"ha":790,"x_min":104,"x_max":686,"o":"m 332 -19 q 104 272 104 -19 l 104 694 l 210 694 l 210 272 q 350 75 210 75 q 460 119 411 75 q 538 237 510 163 q 567 403 567 311 l 567 694 l 672 694 l 672 139 l 686 0 l 594 -7 l 567 138 q 466 23 526 65 q 332 -19 406 -19 m 519 828 q 471 846 489 828 q 453 894 453 864 q 471 943 453 925 q 519 961 489 961 q 567 942 549 961 q 586 894 586 924 q 567 846 586 864 q 519 828 549 828 m 272 828 q 224 846 242 828 q 206 894 206 864 q 224 943 206 925 q 272 961 242 961 q 320 942 301 961 q 339 894 339 924 q 320 846 339 864 q 272 828 301 828 z "},"ù":{"ha":790,"x_min":104,"x_max":686,"o":"m 332 -19 q 104 272 104 -19 l 104 694 l 210 694 l 210 272 q 350 75 210 75 q 460 119 411 75 q 538 237 510 163 q 567 403 567 311 l 567 694 l 672 694 l 672 139 l 686 0 l 594 -7 l 567 138 q 466 23 526 65 q 332 -19 406 -19 m 483 743 l 233 947 q 303 1021 257 1021 q 375 972 340 1021 l 517 778 l 483 743 z "},"ű":{"ha":790,"x_min":104,"x_max":686,"o":"m 332 -19 q 104 272 104 -19 l 104 694 l 210 694 l 210 272 q 350 75 210 75 q 460 119 411 75 q 538 237 510 163 q 567 403 567 311 l 567 694 l 672 694 l 672 139 l 686 0 l 594 -7 l 567 138 q 466 23 526 65 q 332 -19 406 -19 m 454 743 l 415 771 l 503 958 q 574 1021 531 1021 q 646 961 611 1021 l 454 743 m 271 743 l 232 771 l 319 958 q 390 1021 347 1021 q 463 961 428 1021 l 271 743 z "},"ū":{"ha":790,"x_min":104,"x_max":686,"o":"m 332 -19 q 104 272 104 -19 l 104 694 l 210 694 l 210 272 q 350 75 210 75 q 460 119 411 75 q 538 237 510 163 q 567 403 567 311 l 567 694 l 672 694 l 672 139 l 686 0 l 594 -7 l 567 138 q 466 23 526 65 q 332 -19 406 -19 m 207 840 l 207 940 l 583 940 l 583 840 l 207 840 z "},"ų":{"ha":790,"x_min":104,"x_max":719,"o":"m 332 -19 q 104 272 104 -19 l 104 694 l 210 694 l 210 272 q 350 75 210 75 q 460 119 411 75 q 538 237 510 163 q 567 403 567 311 l 567 694 l 672 694 l 672 139 l 686 0 l 594 -7 l 567 138 q 466 23 526 65 q 332 -19 406 -19 m 597 -287 q 512 -256 546 -287 q 478 -175 478 -224 q 513 -75 478 -122 q 608 0 549 -28 l 686 0 q 594 -78 626 -36 q 563 -161 563 -121 q 576 -200 563 -185 q 613 -215 590 -215 q 650 -206 629 -215 q 683 -185 671 -197 l 719 -232 q 666 -271 703 -254 q 597 -287 629 -287 z "},"ů":{"ha":790,"x_min":104,"x_max":686,"o":"m 332 -19 q 104 272 104 -19 l 104 694 l 210 694 l 210 272 q 350 75 210 75 q 460 119 411 75 q 538 237 510 163 q 567 403 567 311 l 567 694 l 672 694 l 672 139 l 686 0 l 594 -7 l 567 138 q 466 23 526 65 q 332 -19 406 -19 m 396 746 q 294 784 332 746 q 256 886 256 822 q 294 988 256 950 q 396 1026 332 1026 q 497 988 458 1026 q 536 886 536 949 q 497 784 536 822 q 396 746 458 746 m 396 817 q 446 836 426 817 q 465 886 465 856 q 446 936 465 917 q 396 956 426 956 q 345 937 364 956 q 326 886 326 918 q 345 835 326 854 q 396 817 364 817 z "},"ũ":{"ha":790,"x_min":104,"x_max":686,"o":"m 332 -19 q 104 272 104 -19 l 104 694 l 210 694 l 210 272 q 350 75 210 75 q 460 119 411 75 q 538 237 510 163 q 567 403 567 311 l 567 694 l 672 694 l 672 139 l 686 0 l 594 -7 l 567 138 q 466 23 526 65 q 332 -19 406 -19 m 240 800 l 175 811 q 296 961 200 961 q 363 951 331 961 q 425 930 394 940 q 485 919 456 919 q 550 981 540 919 l 615 969 q 489 819 588 819 q 424 830 456 819 q 364 851 393 840 q 306 861 335 861 q 240 800 249 861 z "},"v":{"ha":656,"x_min":7,"x_max":649,"o":"m 265 0 l 7 694 l 121 694 l 329 121 l 536 694 l 649 694 l 390 0 l 265 0 z "},"w":{"ha":981,"x_min":21,"x_max":960,"o":"m 217 0 l 21 694 l 132 694 l 282 164 l 440 694 l 540 694 l 699 164 l 849 694 l 960 694 l 764 0 l 646 0 l 490 513 l 335 0 l 217 0 z "},"ẃ":{"ha":981,"x_min":21,"x_max":960,"o":"m 217 0 l 21 694 l 132 694 l 282 164 l 440 694 l 540 694 l 699 164 l 849 694 l 960 694 l 764 0 l 646 0 l 490 513 l 335 0 l 217 0 m 415 743 l 382 778 l 524 972 q 596 1021 558 1021 q 665 947 639 1021 l 415 743 z "},"ŵ":{"ha":981,"x_min":21,"x_max":960,"o":"m 217 0 l 21 694 l 132 694 l 282 164 l 440 694 l 540 694 l 699 164 l 849 694 l 960 694 l 764 0 l 646 0 l 490 513 l 335 0 l 217 0 m 328 746 l 294 781 l 429 971 q 458 1001 444 992 q 490 1010 471 1010 q 523 1001 510 1010 q 551 971 536 993 l 686 781 l 653 746 l 490 894 l 328 746 z "},"ẅ":{"ha":981,"x_min":21,"x_max":960,"o":"m 217 0 l 21 694 l 132 694 l 282 164 l 440 694 l 540 694 l 699 164 l 849 694 l 960 694 l 764 0 l 646 0 l 490 513 l 335 0 l 217 0 m 614 828 q 565 846 583 828 q 547 894 547 864 q 565 943 547 925 q 614 961 583 961 q 662 942 643 961 q 681 894 681 924 q 662 846 681 864 q 614 828 643 828 m 367 828 q 318 846 336 828 q 300 894 300 864 q 318 943 300 925 q 367 961 336 961 q 415 942 396 961 q 433 894 433 924 q 415 846 433 864 q 367 828 396 828 z "},"ẁ":{"ha":981,"x_min":21,"x_max":960,"o":"m 217 0 l 21 694 l 132 694 l 282 164 l 440 694 l 540 694 l 699 164 l 849 694 l 960 694 l 764 0 l 646 0 l 490 513 l 335 0 l 217 0 m 578 743 l 328 947 q 397 1021 351 1021 q 469 972 435 1021 l 611 778 l 578 743 z "},"x":{"ha":604,"x_min":7,"x_max":597,"o":"m 7 0 l 239 358 l 22 694 l 147 694 l 306 449 l 465 694 l 590 694 l 369 351 l 597 0 l 472 0 l 301 263 l 132 0 l 7 0 z "},"y":{"ha":660,"x_min":7,"x_max":649,"o":"m 274 -332 l 183 -301 l 278 -36 l 7 694 l 121 694 l 331 114 l 538 694 l 649 694 l 274 -332 z "},"ý":{"ha":660,"x_min":7,"x_max":649,"o":"m 274 -332 l 183 -301 l 278 -36 l 7 694 l 121 694 l 331 114 l 538 694 l 649 694 l 274 -332 m 256 743 l 222 778 l 364 972 q 436 1021 399 1021 q 506 947 479 1021 l 256 743 z "},"ŷ":{"ha":660,"x_min":7,"x_max":649,"o":"m 274 -332 l 183 -301 l 278 -36 l 7 694 l 121 694 l 331 114 l 538 694 l 649 694 l 274 -332 m 168 746 l 135 781 l 269 971 q 298 1001 285 992 q 331 1010 311 1010 q 363 1001 350 1010 q 392 971 376 993 l 526 781 l 493 746 l 331 894 l 168 746 z "},"ÿ":{"ha":660,"x_min":7,"x_max":649,"o":"m 274 -332 l 183 -301 l 278 -36 l 7 694 l 121 694 l 331 114 l 538 694 l 649 694 l 274 -332 m 454 828 q 406 846 424 828 q 388 894 388 864 q 406 943 388 925 q 454 961 424 961 q 502 942 483 961 q 521 894 521 924 q 502 846 521 864 q 454 828 483 828 m 207 828 q 158 846 176 828 q 140 894 140 864 q 158 943 140 925 q 207 961 176 961 q 255 942 236 961 q 274 894 274 924 q 255 846 274 864 q 207 828 236 828 z "},"ỳ":{"ha":660,"x_min":7,"x_max":649,"o":"m 274 -332 l 183 -301 l 278 -36 l 7 694 l 121 694 l 331 114 l 538 694 l 649 694 l 274 -332 m 418 743 l 168 947 q 238 1021 192 1021 q 310 972 275 1021 l 451 778 l 418 743 z "},"z":{"ha":583,"x_min":15,"x_max":556,"o":"m 15 0 l 376 604 l 58 604 l 58 694 l 556 694 l 192 90 l 554 90 l 554 0 l 15 0 z "},"ź":{"ha":583,"x_min":15,"x_max":556,"o":"m 15 0 l 376 604 l 58 604 l 58 694 l 556 694 l 192 90 l 554 90 l 554 0 l 15 0 m 217 743 l 183 778 l 325 972 q 397 1021 360 1021 q 467 947 440 1021 l 217 743 z "},"ž":{"ha":583,"x_min":15,"x_max":556,"o":"m 15 0 l 376 604 l 58 604 l 58 694 l 556 694 l 192 90 l 554 90 l 554 0 l 15 0 m 292 746 q 259 755 272 746 q 231 785 246 764 l 96 975 l 129 1010 l 292 861 l 454 1010 l 488 975 l 353 785 q 324 754 338 763 q 292 746 311 746 z "},"ż":{"ha":583,"x_min":15,"x_max":556,"o":"m 15 0 l 376 604 l 58 604 l 58 694 l 556 694 l 192 90 l 554 90 l 554 0 l 15 0 m 292 814 q 233 835 254 814 q 211 894 211 857 q 233 953 211 931 q 292 975 254 975 q 350 953 328 975 q 372 894 372 931 q 350 837 372 860 q 292 814 328 814 z "},"ﬁ":{"ha":735,"x_min":56,"x_max":617,"o":"m 146 -222 l 146 604 l 56 604 l 56 694 l 146 694 l 146 765 q 192 933 146 875 q 325 992 239 992 q 490 936 404 992 l 449 861 q 336 893 375 893 q 251 771 251 893 l 251 694 l 617 694 l 617 0 l 511 0 l 511 604 l 251 604 l 251 -222 l 146 -222 z "},"ﬂ":{"ha":786,"x_min":56,"x_max":814,"o":"m 146 -222 l 146 604 l 56 604 l 56 694 l 146 694 l 146 765 q 192 933 146 875 q 325 992 239 992 q 490 936 404 992 l 449 861 q 336 893 375 893 q 251 771 251 893 l 251 694 l 411 694 l 411 604 l 251 604 l 251 -222 l 146 -222 m 669 -19 q 560 22 596 -19 q 525 153 525 64 l 525 972 l 631 972 l 631 153 q 693 76 631 76 q 772 104 731 76 l 814 29 q 669 -19 738 -19 z "},"ª":{"ha":493,"x_min":42,"x_max":421,"o":"m 213 628 q 88 686 133 628 q 42 844 42 744 q 69 964 42 913 q 144 1045 96 1015 q 253 1075 192 1075 q 335 1061 290 1075 q 411 1024 379 1047 l 411 732 l 421 640 l 344 633 l 333 703 q 213 628 290 628 m 225 704 q 298 753 269 704 q 326 878 326 801 l 326 983 q 253 1000 292 1000 q 163 956 199 1000 q 128 844 128 913 q 153 742 128 779 q 225 704 179 704 z "},"º":{"ha":478,"x_min":49,"x_max":429,"o":"m 238 628 q 99 687 149 628 q 49 851 49 746 q 99 1016 49 957 q 238 1075 149 1075 q 378 1015 328 1075 q 429 851 429 956 q 378 688 429 747 q 238 628 328 628 m 238 704 q 315 743 288 704 q 343 851 343 782 q 315 961 343 922 q 238 1000 288 1000 q 162 961 189 1000 q 135 851 135 922 q 162 743 135 782 q 238 704 189 704 z "},"Δ":{"ha":772,"x_min":0,"x_max":772,"o":"m 0 0 l 318 972 l 454 972 l 772 0 l 0 0 m 147 100 l 625 100 l 386 846 l 147 100 z "},"Ω":{"ha":1125,"x_min":125,"x_max":989,"o":"m 125 0 l 125 100 l 311 100 l 311 228 q 136 553 136 347 q 249 857 136 747 q 561 967 361 967 q 876 857 763 967 q 989 553 989 747 q 814 228 989 347 l 814 100 l 986 100 l 986 0 l 711 0 l 711 258 q 833 375 788 294 q 878 553 878 456 q 794 782 878 699 q 561 865 710 865 q 331 783 414 865 q 247 553 247 700 q 292 375 247 456 q 414 258 338 294 l 414 0 l 125 0 z "},"μ":{"ha":790,"x_min":104,"x_max":672,"o":"m 104 -283 l 104 694 l 210 694 l 210 272 q 350 75 210 75 q 459 117 410 75 q 538 229 508 158 q 567 389 567 300 l 567 694 l 672 694 l 672 0 l 594 -7 l 567 138 q 466 23 526 65 q 332 -19 406 -19 q 189 43 235 -19 l 178 -283 l 104 -283 z "},"π":{"ha":843,"x_min":69,"x_max":774,"o":"m 715 -19 q 565 151 565 -19 l 565 592 l 278 592 l 278 0 l 167 0 l 167 592 l 69 592 l 69 694 l 774 694 l 774 592 l 676 592 l 676 151 q 739 75 676 75 l 715 -19 z "},"⁄":{"ha":361,"x_min":-56,"x_max":417,"o":"m -56 -118 l 314 979 l 417 979 l 47 -118 l -56 -118 z "},"½":{"ha":1083,"x_min":97,"x_max":1000,"o":"m 354 0 l 643 861 l 724 861 l 435 0 l 354 0 m 122 339 l 122 418 l 225 418 l 225 769 l 118 739 l 97 818 l 233 861 l 314 861 l 314 418 l 404 418 l 404 339 l 122 339 m 664 0 l 664 65 l 843 269 q 892 336 879 310 q 906 389 906 363 q 882 438 906 421 q 817 456 858 456 q 777 449 800 456 q 735 433 754 443 q 708 415 715 424 l 671 490 q 817 536 743 536 q 947 496 899 536 q 994 389 994 456 q 915 224 994 313 l 790 79 l 1000 79 l 1000 0 l 664 0 z "},"¼":{"ha":1083,"x_min":97,"x_max":999,"o":"m 363 0 l 651 861 l 732 861 l 443 0 l 363 0 m 122 339 l 122 418 l 225 418 l 225 769 l 118 739 l 97 818 l 233 861 l 314 861 l 314 418 l 404 418 l 404 339 l 122 339 m 868 -6 l 868 108 l 628 108 l 628 154 l 776 517 l 869 517 l 735 189 l 868 189 l 868 379 l 956 379 l 956 189 l 999 189 l 999 108 l 956 108 l 956 -6 l 868 -6 z "},"¾":{"ha":1083,"x_min":65,"x_max":999,"o":"m 219 325 q 137 336 178 325 q 65 367 96 347 l 101 438 q 155 415 118 425 q 219 404 192 404 q 297 428 267 404 q 326 490 326 453 q 301 545 326 525 q 233 565 276 565 l 144 565 l 144 642 l 186 642 q 279 665 243 642 q 315 728 315 689 q 292 777 315 760 q 226 794 268 794 q 118 754 167 794 l 81 829 q 226 875 153 875 q 353 835 307 875 q 400 725 400 794 q 378 659 400 690 q 325 615 357 628 q 387 567 361 603 q 413 492 413 532 q 358 372 413 419 q 219 325 303 325 m 363 0 l 651 861 l 732 861 l 443 0 l 363 0 m 868 -6 l 868 108 l 628 108 l 628 154 l 776 517 l 869 517 l 735 189 l 868 189 l 868 379 l 956 379 l 956 189 l 999 189 l 999 108 l 956 108 l 956 -6 l 868 -6 z "},"¹":{"ha":460,"x_min":71,"x_max":378,"o":"m 96 339 l 96 418 l 199 418 l 199 769 l 92 739 l 71 818 l 207 861 l 288 861 l 288 418 l 378 418 l 378 339 l 96 339 z "},"²":{"ha":460,"x_min":47,"x_max":383,"o":"m 47 339 l 47 404 l 226 608 q 276 675 263 649 q 289 728 289 701 q 265 777 289 760 q 200 794 242 794 q 160 788 183 794 q 118 772 138 782 q 92 754 99 763 l 54 829 q 200 875 126 875 q 330 835 282 875 q 378 728 378 794 q 299 563 378 651 l 174 418 l 383 418 l 383 339 l 47 339 z "},"³":{"ha":460,"x_min":39,"x_max":386,"o":"m 193 325 q 110 336 151 325 q 39 367 69 347 l 75 438 q 128 415 92 425 q 193 404 165 404 q 270 428 240 404 q 300 490 300 453 q 275 545 300 525 q 207 565 250 565 l 118 565 l 118 642 l 160 642 q 253 665 217 642 q 289 728 289 689 q 265 777 289 760 q 200 794 242 794 q 92 754 140 794 l 54 829 q 200 875 126 875 q 327 835 281 875 q 374 725 374 794 q 352 659 374 690 q 299 615 331 628 q 360 567 335 603 q 386 492 386 532 q 331 372 386 419 q 193 325 276 325 z "}," ":{"ha":347,"x_min":0,"x_max":0,"o":""}," ":{"ha":347,"x_min":0,"x_max":0,"o":""},".":{"ha":292,"x_min":69,"x_max":222,"o":"m 146 -19 q 90 1 111 -19 q 69 57 69 22 q 90 113 69 92 q 146 133 111 133 q 201 113 181 133 q 222 57 222 92 q 201 1 222 22 q 146 -19 181 -19 z "},",":{"ha":292,"x_min":46,"x_max":222,"o":"m 92 -189 l 46 -175 l 68 57 q 150 133 75 133 q 192 124 172 133 q 222 101 213 115 l 92 -189 z "},":":{"ha":361,"x_min":139,"x_max":292,"o":"m 215 -19 q 160 1 181 -19 q 139 57 139 22 q 160 113 139 92 q 215 133 181 133 q 271 113 250 133 q 292 57 292 92 q 271 1 292 22 q 215 -19 250 -19 m 215 481 q 160 501 181 481 q 139 557 139 522 q 160 613 139 592 q 215 633 181 633 q 271 613 250 633 q 292 557 292 592 q 271 501 292 522 q 215 481 250 481 z "},";":{"ha":361,"x_min":115,"x_max":292,"o":"m 161 -189 l 115 -175 l 138 57 q 219 133 144 133 q 262 124 242 133 q 292 101 282 115 l 161 -189 m 215 481 q 160 501 181 481 q 139 557 139 522 q 160 613 139 592 q 215 633 181 633 q 271 613 250 633 q 292 557 292 592 q 271 501 292 522 q 215 481 250 481 z "},"…":{"ha":875,"x_min":69,"x_max":806,"o":"m 729 -19 q 674 1 694 -19 q 653 57 653 22 q 674 113 653 92 q 729 133 694 133 q 785 113 764 133 q 806 57 806 92 q 785 1 806 22 q 729 -19 764 -19 m 146 -19 q 90 1 111 -19 q 69 57 69 22 q 90 113 69 92 q 146 133 111 133 q 201 113 181 133 q 222 57 222 92 q 201 1 222 22 q 146 -19 181 -19 m 438 -19 q 382 1 403 -19 q 361 57 361 22 q 382 113 361 92 q 438 133 403 133 q 493 113 472 133 q 514 57 514 92 q 493 1 514 22 q 438 -19 472 -19 z "},"!":{"ha":375,"x_min":111,"x_max":264,"o":"m 142 250 l 128 917 l 247 917 l 233 250 l 142 250 m 188 -19 q 132 1 153 -19 q 111 57 111 22 q 132 113 111 92 q 188 133 153 133 q 243 113 222 133 q 264 57 264 92 q 243 1 264 22 q 188 -19 222 -19 z "},"¡":{"ha":375,"x_min":111,"x_max":264,"o":"m 188 560 q 132 581 153 560 q 111 636 111 601 q 132 692 111 671 q 188 713 153 713 q 243 692 222 713 q 264 636 264 671 q 243 581 264 601 q 188 560 222 560 m 128 -224 l 142 443 l 233 443 l 247 -224 l 128 -224 z "},"?":{"ha":492,"x_min":0,"x_max":492,"o":"m 146 250 l 146 343 q 178 478 146 422 q 294 594 211 533 q 367 661 347 632 q 386 729 386 690 q 347 809 386 779 q 239 839 307 839 q 139 820 188 839 q 58 767 90 801 l 0 844 q 111 913 47 889 q 243 936 175 936 q 424 880 356 936 q 492 729 492 824 q 461 618 492 665 q 354 517 431 571 q 269 434 294 475 q 243 343 243 393 l 243 250 l 146 250 m 194 -19 q 139 1 160 -19 q 118 57 118 22 q 139 113 118 92 q 194 133 160 133 q 250 113 229 133 q 271 57 271 92 q 250 1 271 22 q 194 -19 229 -19 z "},"¿":{"ha":492,"x_min":0,"x_max":492,"o":"m 346 444 l 346 351 q 313 217 346 272 q 197 100 281 161 q 126 33 146 63 q 106 -35 106 4 q 145 -115 106 -85 q 253 -144 185 -144 q 353 -126 306 -144 q 433 -72 401 -107 l 492 -150 q 381 -217 444 -193 q 249 -242 318 -242 q 68 -185 136 -242 q 0 -35 0 -128 q 31 77 0 31 q 138 178 61 124 q 223 260 197 219 q 249 351 249 301 l 249 444 l 346 444 m 297 714 q 353 694 333 714 q 374 638 374 674 q 353 582 374 603 q 297 561 333 561 q 242 582 263 561 q 221 638 221 603 q 242 693 221 672 q 297 714 263 714 z "},"·":{"ha":292,"x_min":69,"x_max":222,"o":"m 146 322 q 90 343 111 322 q 69 399 69 364 q 90 454 69 433 q 146 475 111 475 q 201 454 181 475 q 222 399 222 433 q 201 343 222 364 q 146 322 181 322 z "},"•":{"ha":353,"x_min":42,"x_max":311,"o":"m 176 264 q 78 301 115 264 q 42 399 42 338 q 78 497 42 460 q 176 533 115 533 q 274 497 238 533 q 311 399 311 460 q 274 301 311 338 q 176 264 238 264 z "},"*":{"ha":601,"x_min":42,"x_max":560,"o":"m 244 782 l 265 965 l 336 965 l 357 782 l 244 782 m 425 472 l 301 608 l 393 675 l 357 782 l 539 819 l 560 750 l 393 675 l 485 514 l 425 472 m 210 675 l 42 751 l 64 819 l 244 782 l 210 675 m 176 472 l 118 515 l 210 675 l 301 608 l 176 472 z "},"#":{"ha":719,"x_min":-19,"x_max":739,"o":"m 88 -36 l 126 238 l -19 238 l -8 324 l 139 324 l 169 536 l 24 536 l 35 624 l 182 624 l 222 897 l 317 897 l 276 624 l 497 624 l 536 897 l 631 897 l 590 624 l 739 624 l 728 536 l 578 536 l 547 324 l 696 324 l 683 238 l 535 238 l 496 -36 l 403 -36 l 442 238 l 221 238 l 182 -36 l 88 -36 m 233 324 l 454 324 l 485 536 l 264 536 l 233 324 z "},"/":{"ha":433,"x_min":-42,"x_max":475,"o":"m -42 -128 l 374 1072 l 475 1072 l 58 -128 l -42 -128 z "},"\\":{"ha":433,"x_min":-42,"x_max":475,"o":"m 374 -128 l -42 1072 l 58 1072 l 475 -128 l 374 -128 z "},"-":{"ha":567,"x_min":69,"x_max":497,"o":"m 69 306 l 69 406 l 497 406 l 497 306 l 69 306 z "},"–":{"ha":867,"x_min":69,"x_max":797,"o":"m 69 306 l 69 406 l 797 406 l 797 306 l 69 306 z "},"—":{"ha":1231,"x_min":69,"x_max":1161,"o":"m 69 306 l 69 406 l 1161 406 l 1161 306 l 69 306 z "},"_":{"ha":867,"x_min":69,"x_max":797,"o":"m 69 -100 l 69 0 l 797 0 l 797 -100 l 69 -100 z "},"(":{"ha":342,"x_min":83,"x_max":321,"o":"m 243 -129 q 158 26 194 -64 q 103 221 122 117 q 83 431 83 325 q 103 640 83 536 q 158 833 122 743 q 243 990 194 924 l 321 931 q 271 835 294 893 q 230 708 247 778 q 202 567 213 639 q 192 431 192 496 q 202 294 192 365 q 230 153 213 222 q 271 26 247 83 q 321 -69 294 -32 l 243 -129 z "},")":{"ha":342,"x_min":21,"x_max":258,"o":"m 99 -129 l 21 -69 q 71 26 47 -32 q 112 153 94 83 q 140 294 129 222 q 150 431 150 365 q 140 567 150 496 q 112 708 129 639 q 71 835 94 778 q 21 931 47 893 l 99 990 q 184 833 149 924 q 239 640 219 743 q 258 431 258 536 q 239 221 258 325 q 183 26 219 117 q 99 -129 147 -64 z "},"{":{"ha":385,"x_min":42,"x_max":364,"o":"m 236 -83 q 155 -53 185 -83 q 125 28 125 -24 l 125 332 q 106 383 125 368 q 42 397 86 397 l 42 467 q 106 482 86 467 q 125 532 125 497 l 125 836 q 155 917 125 886 q 236 947 185 947 l 364 947 l 364 864 l 260 864 q 236 840 236 864 l 236 517 q 218 458 236 479 q 168 436 200 436 l 168 428 q 218 406 200 428 q 236 347 236 385 l 236 24 q 260 0 236 0 l 364 0 l 364 -83 l 236 -83 z "},"}":{"ha":385,"x_min":21,"x_max":343,"o":"m 21 -83 l 21 0 l 125 0 q 149 24 149 0 l 149 347 q 167 406 149 385 q 217 428 186 428 l 217 436 q 167 458 186 436 q 149 517 149 479 l 149 840 q 125 864 149 864 l 21 864 l 21 947 l 149 947 q 229 917 199 947 q 260 836 260 886 l 260 532 q 279 482 260 497 q 343 467 299 467 l 343 397 q 279 383 299 397 q 260 332 260 368 l 260 28 q 229 -53 260 -24 q 149 -83 199 -83 l 21 -83 z "},"[":{"ha":385,"x_min":125,"x_max":364,"o":"m 125 -83 l 125 947 l 364 947 l 364 864 l 236 864 l 236 0 l 363 0 l 363 -83 l 125 -83 z "},"]":{"ha":385,"x_min":21,"x_max":260,"o":"m 22 -83 l 22 0 l 149 0 l 149 864 l 21 864 l 21 947 l 260 947 l 260 -83 l 22 -83 z "},"‚":{"ha":229,"x_min":28,"x_max":201,"o":"m 72 -194 l 28 -179 l 85 133 q 174 118 146 133 q 201 68 201 103 q 190 28 201 54 q 153 -47 179 1 l 72 -194 z "},"„":{"ha":410,"x_min":28,"x_max":382,"o":"m 253 -194 l 208 -179 l 265 133 q 354 118 326 133 q 382 68 382 103 q 371 28 382 54 q 333 -47 360 1 l 253 -194 m 72 -194 l 28 -179 l 85 133 q 174 118 146 133 q 201 68 201 103 q 190 28 201 54 q 153 -47 179 1 l 72 -194 z "},"“":{"ha":410,"x_min":28,"x_max":382,"o":"m 325 617 q 236 632 264 617 q 208 682 208 647 q 219 722 208 696 q 257 797 231 749 l 338 944 l 382 929 l 325 617 m 144 617 q 56 632 83 617 q 28 682 28 647 q 39 722 28 696 q 76 797 50 749 l 157 944 l 201 929 l 144 617 z "},"”":{"ha":410,"x_min":28,"x_max":382,"o":"m 253 617 l 208 632 l 265 944 q 354 929 326 944 q 382 879 382 914 q 371 839 382 865 q 333 764 360 813 l 253 617 m 72 617 l 28 632 l 85 944 q 174 929 146 944 q 201 879 201 914 q 190 839 201 865 q 153 764 179 813 l 72 617 z "},"‘":{"ha":229,"x_min":28,"x_max":201,"o":"m 144 617 q 56 632 83 617 q 28 682 28 647 q 39 722 28 696 q 76 797 50 749 l 157 944 l 201 929 l 144 617 z "},"’":{"ha":229,"x_min":28,"x_max":201,"o":"m 72 617 l 28 632 l 85 944 q 174 929 146 944 q 201 879 201 914 q 190 839 201 865 q 153 764 179 813 l 72 617 z "},"«":{"ha":524,"x_min":42,"x_max":482,"o":"m 439 97 l 293 269 q 263 336 263 304 q 293 403 263 367 l 439 575 l 482 554 l 392 336 l 482 118 l 439 97 m 218 97 l 72 269 q 42 336 42 304 q 72 403 42 367 l 218 575 l 261 554 l 171 336 l 261 118 l 218 97 z "},"»":{"ha":524,"x_min":42,"x_max":482,"o":"m 306 97 l 263 118 l 353 336 l 263 554 l 306 575 l 451 403 q 482 336 482 367 q 451 269 482 304 l 306 97 m 85 97 l 42 118 l 132 336 l 42 554 l 85 575 l 231 403 q 261 336 261 367 q 231 269 261 304 l 85 97 z "},"‹":{"ha":303,"x_min":42,"x_max":261,"o":"m 218 97 l 72 269 q 42 336 42 304 q 72 403 42 367 l 218 575 l 261 554 l 171 336 l 261 118 l 218 97 z "},"›":{"ha":303,"x_min":42,"x_max":261,"o":"m 85 97 l 42 118 l 132 336 l 42 554 l 85 575 l 231 403 q 261 336 261 367 q 231 269 261 304 l 85 97 z "},"\"":{"ha":421,"x_min":56,"x_max":365,"o":"m 265 635 l 251 944 l 365 944 l 351 635 l 265 635 m 69 635 l 56 944 l 169 944 l 156 635 l 69 635 z "},"'":{"ha":225,"x_min":56,"x_max":169,"o":"m 69 635 l 56 944 l 169 944 l 156 635 l 69 635 z "},"ƒ":{"ha":719,"x_min":25,"x_max":653,"o":"m 190 -244 q 25 -189 111 -244 l 67 -114 q 179 -146 139 -146 q 264 -24 264 -146 l 264 372 l 76 372 l 76 456 l 264 456 l 264 489 q 342 783 264 682 q 567 883 419 883 q 609 881 588 883 q 653 876 631 879 l 632 786 q 593 791 611 789 q 556 793 575 793 q 363 489 363 793 l 363 456 l 553 456 l 553 372 l 363 372 l 363 -18 q 190 -244 363 -244 z "},"":{"ha":1282,"x_min":139,"x_max":1143,"o":"m 578 -158 q 553 -149 564 -158 q 530 -132 542 -140 q 501 -124 518 -124 q 484 -125 493 -124 q 468 -126 475 -126 q 426 -105 442 -126 q 397 -76 411 -83 q 362 -66 374 -64 q 333 -58 350 -68 q 310 -26 315 -47 q 292 6 306 -6 q 263 19 278 17 q 238 39 249 22 q 227 72 226 58 q 217 104 228 86 q 189 131 208 117 q 169 172 169 146 q 172 190 169 182 q 174 207 174 199 q 156 244 174 226 q 139 283 139 261 q 147 314 139 299 q 156 344 156 329 q 147 375 156 363 q 139 403 139 388 q 156 447 139 425 q 174 488 174 468 q 173 505 174 496 q 172 522 172 514 q 192 560 172 549 q 221 589 211 571 q 228 619 228 600 q 236 649 229 638 q 263 667 244 663 q 292 682 281 671 q 309 711 303 693 q 326 739 315 729 q 360 752 340 750 q 397 763 381 754 q 427 793 415 772 q 465 815 439 814 q 483 814 474 815 q 501 813 492 813 q 531 821 519 813 q 552 837 542 829 q 578 844 563 844 q 608 836 592 844 q 639 828 625 828 q 671 836 654 828 q 701 844 688 844 q 731 836 719 844 q 753 819 742 828 q 781 810 764 810 q 799 812 789 810 q 819 814 810 814 q 848 804 839 814 q 865 783 857 794 q 886 764 874 771 q 918 755 901 756 q 949 743 935 754 q 965 717 963 733 q 981 689 968 701 q 1018 667 996 675 q 1051 639 1040 658 q 1057 610 1058 629 q 1061 581 1056 592 q 1081 560 1069 568 q 1102 542 1093 553 q 1111 513 1111 532 q 1110 494 1111 503 q 1110 478 1110 486 q 1126 434 1110 451 q 1143 393 1143 417 q 1135 366 1143 379 q 1128 339 1128 353 q 1135 308 1128 324 q 1143 278 1143 293 q 1133 256 1142 264 q 1116 238 1124 247 q 1108 211 1108 229 q 1110 189 1108 200 q 1111 167 1111 178 q 1102 138 1111 147 q 1082 122 1093 128 q 1064 103 1071 115 q 1053 67 1056 89 q 1039 32 1050 46 q 1015 17 1029 21 q 990 1 1001 13 q 970 -30 978 -11 q 949 -58 963 -49 q 915 -72 935 -68 q 881 -83 896 -75 q 854 -108 863 -93 q 818 -124 846 -124 q 802 -123 810 -124 q 786 -122 794 -122 q 772 -124 775 -122 q 739 -142 754 -129 q 706 -156 724 -156 q 674 -149 690 -156 q 642 -142 657 -142 q 609 -150 625 -142 q 578 -158 593 -158 m 592 -21 q 617 -15 604 -21 q 642 -8 629 -8 q 665 -13 653 -8 q 688 -18 676 -18 q 711 -8 700 -18 q 736 4 722 1 q 749 6 739 6 q 759 5 754 6 q 769 4 764 4 q 797 16 790 4 q 815 33 803 28 q 840 43 826 40 q 864 53 854 46 q 881 73 875 60 q 894 94 886 86 q 913 106 901 103 q 931 117 924 108 q 940 143 938 128 q 949 169 943 158 q 969 189 957 185 q 982 218 982 193 q 981 233 982 225 q 981 246 981 240 q 992 274 981 265 q 1006 296 1003 282 q 1000 318 1006 307 q 994 340 994 329 q 1000 360 994 350 q 1006 379 1006 369 q 993 410 1006 396 q 981 442 981 424 q 981 453 981 447 q 982 465 982 460 q 968 494 982 488 q 946 515 954 501 q 942 537 942 524 q 939 558 943 550 q 915 578 931 572 q 888 594 899 585 q 876 615 878 603 q 864 633 875 626 q 842 642 854 642 q 818 649 831 642 q 798 670 804 656 q 771 685 792 685 q 757 683 764 685 q 743 682 750 682 q 715 694 724 682 q 686 707 706 707 q 663 701 675 707 q 640 694 651 694 q 619 701 631 694 q 596 707 607 707 q 568 695 579 707 q 538 683 557 683 q 526 684 532 683 q 514 685 521 685 q 486 669 494 685 q 464 647 478 654 q 438 640 453 642 q 414 631 424 639 q 400 610 404 624 q 388 589 396 597 q 367 578 379 581 q 347 565 354 575 q 342 544 342 557 q 336 522 342 531 q 315 500 329 508 q 300 472 300 492 q 301 461 300 467 q 301 450 301 456 q 290 418 301 433 q 278 386 278 403 q 283 366 278 375 q 289 344 289 357 q 283 322 289 333 q 278 299 278 310 q 290 270 278 283 q 301 242 301 257 q 300 231 301 236 q 299 219 299 225 q 313 190 299 200 q 333 171 328 181 q 341 147 342 157 q 349 122 340 136 q 367 109 356 111 q 388 99 378 107 q 401 75 399 90 q 418 51 404 60 q 438 46 429 43 q 464 39 446 49 q 485 18 475 33 q 515 3 496 3 q 526 3 521 3 q 536 4 531 4 q 567 -7 556 4 q 592 -21 578 -18 m 642 107 q 523 139 576 107 q 438 224 469 171 q 406 343 406 278 q 438 462 406 408 q 523 547 469 515 q 642 579 576 579 q 760 547 707 579 q 846 462 814 515 q 878 343 878 408 q 846 224 878 278 q 760 139 814 171 q 642 107 707 107 m 583 163 l 701 163 l 701 406 l 774 406 l 774 500 l 508 500 l 508 406 l 583 406 l 583 163 z "},"@":{"ha":1119,"x_min":97,"x_max":1022,"o":"m 574 -129 q 322 -71 429 -129 q 156 95 214 -12 q 97 347 97 203 q 156 599 97 492 q 322 765 214 706 q 574 824 429 824 q 808 763 707 824 q 966 596 910 703 q 1022 347 1022 489 q 994 208 1022 268 q 917 115 967 149 q 800 81 867 81 q 715 110 753 81 q 671 183 678 140 l 663 183 q 606 109 644 138 q 522 81 567 81 q 374 151 429 81 q 318 340 318 221 q 350 484 318 422 q 440 581 382 546 q 571 617 497 617 q 674 603 619 617 q 761 568 728 589 l 761 235 q 774 184 761 203 q 811 165 788 165 q 895 216 863 165 q 928 347 928 267 q 883 551 928 463 q 758 688 838 639 q 574 738 679 738 q 372 690 458 738 q 239 554 286 642 q 192 347 192 467 q 239 141 192 229 q 372 5 286 53 q 574 -43 458 -43 q 803 21 710 -43 l 849 -49 q 721 -110 786 -90 q 574 -129 656 -129 m 538 164 q 630 224 594 164 q 665 382 665 285 l 665 515 q 572 535 618 535 q 460 480 504 535 q 415 340 415 425 q 448 210 415 257 q 538 164 481 164 z "},"&":{"ha":842,"x_min":49,"x_max":842,"o":"m 349 -19 q 128 56 208 -19 q 49 261 49 131 q 90 398 49 336 q 201 490 131 460 q 122 572 151 521 q 93 682 93 622 q 167 858 93 794 q 371 922 240 922 q 579 858 485 922 l 532 761 q 454 806 497 789 q 371 822 411 822 q 249 785 293 822 q 204 682 204 747 q 268 569 204 614 q 433 525 332 525 l 842 525 l 842 431 l 685 431 q 597 89 678 197 q 349 -19 515 -19 m 349 81 q 579 431 579 81 l 349 431 q 214 383 268 431 q 160 261 160 335 q 210 128 160 176 q 349 81 260 81 z "},"¶":{"ha":651,"x_min":0,"x_max":526,"o":"m 301 -312 l 301 439 q 282 438 292 438 q 263 438 272 438 q 131 473 190 438 q 35 568 71 508 q 0 700 0 628 q 35 833 0 774 q 131 928 71 893 q 263 964 190 964 q 396 928 336 964 q 491 833 456 893 q 526 700 526 774 l 526 -312 l 421 -312 l 421 700 l 358 700 l 358 -312 l 301 -312 z "},"§":{"ha":572,"x_min":42,"x_max":531,"o":"m 472 350 l 321 422 q 227 466 275 444 q 138 517 179 488 q 70 594 96 547 q 44 711 44 640 q 78 843 44 786 q 169 932 111 900 q 304 964 228 964 q 519 899 426 964 l 475 818 q 317 871 394 871 q 199 828 242 871 q 156 711 156 785 q 175 633 156 663 q 226 583 194 603 q 294 547 257 564 q 369 508 332 531 q 436 451 406 486 q 482 361 467 417 l 472 350 m 271 -186 q 147 -169 208 -186 q 42 -121 85 -151 l 86 -40 q 169 -78 124 -64 q 258 -93 215 -93 q 376 -50 333 -93 q 419 67 419 -7 q 400 145 419 115 q 349 194 381 175 q 281 231 318 214 q 206 269 243 247 q 140 326 169 292 q 93 417 110 361 l 103 428 l 254 356 q 348 312 300 333 q 438 260 396 290 q 505 184 479 231 q 531 67 531 138 q 497 -65 531 -7 q 406 -154 464 -122 q 271 -186 347 -186 z "},"©":{"ha":892,"x_min":49,"x_max":843,"o":"m 446 338 q 236 386 325 338 q 98 524 147 435 q 49 735 49 614 q 98 944 49 856 q 236 1083 147 1033 q 446 1132 325 1132 q 653 1081 564 1132 q 792 942 742 1031 q 843 735 843 853 q 792 527 843 617 q 653 388 742 438 q 446 338 564 338 m 446 404 q 617 446 543 404 q 732 563 690 488 q 774 735 774 638 q 732 908 774 833 q 617 1024 690 982 q 446 1065 543 1065 q 272 1024 346 1065 q 158 909 199 983 q 118 735 118 835 q 158 560 118 635 q 272 445 199 486 q 446 404 346 404 m 453 489 q 301 554 358 489 q 243 726 243 619 q 303 919 243 847 q 467 990 364 990 q 590 954 535 990 l 571 881 q 467 917 518 917 q 360 865 400 917 q 321 726 321 813 q 357 608 321 653 q 453 563 393 563 q 569 601 519 563 l 604 542 q 453 489 533 489 z "},"®":{"ha":892,"x_min":49,"x_max":843,"o":"m 446 338 q 236 386 325 338 q 98 524 147 435 q 49 735 49 614 q 98 944 49 856 q 236 1083 147 1033 q 446 1132 325 1132 q 653 1081 564 1132 q 792 942 742 1031 q 843 735 843 853 q 792 527 843 617 q 653 388 742 438 q 446 338 564 338 m 446 404 q 617 446 543 404 q 732 563 690 488 q 774 735 774 638 q 732 908 774 833 q 617 1024 690 982 q 446 1065 543 1065 q 272 1024 346 1065 q 158 909 199 983 q 118 735 118 835 q 158 560 118 635 q 272 445 199 486 q 446 404 346 404 m 571 485 l 499 674 q 476 696 492 696 l 378 696 l 378 500 l 299 500 l 299 979 l 479 979 q 581 938 539 979 q 622 836 622 896 q 557 718 622 760 q 575 690 565 710 l 643 510 l 571 485 m 378 764 l 476 764 q 524 785 504 764 q 544 836 544 807 q 524 888 544 867 q 476 908 504 908 l 378 908 l 378 764 z "},"™":{"ha":919,"x_min":11,"x_max":843,"o":"m 378 500 l 394 979 l 478 979 l 610 674 l 743 979 l 826 979 l 843 500 l 765 500 l 753 817 l 646 571 l 575 571 l 465 818 q 462 658 464 740 q 457 500 460 576 l 378 500 m 139 500 l 139 910 l 11 910 l 11 979 l 344 979 l 344 910 l 217 910 l 217 500 l 139 500 z "},"°":{"ha":350,"x_min":14,"x_max":336,"o":"m 175 610 q 58 653 101 610 q 14 771 14 697 q 58 888 14 844 q 175 932 101 932 q 292 888 247 932 q 336 771 336 843 q 292 654 336 699 q 175 610 247 610 m 174 688 q 234 710 211 688 q 257 771 257 732 q 234 830 257 807 q 174 853 211 853 q 114 830 136 853 q 92 771 92 807 q 114 710 92 732 q 174 688 136 688 z "},"|":{"ha":378,"x_min":125,"x_max":253,"o":"m 125 -106 l 125 1050 l 253 1050 l 253 -106 l 125 -106 z "},"¦":{"ha":378,"x_min":125,"x_max":253,"o":"m 125 581 l 125 972 l 253 972 l 253 581 l 125 581 m 125 -106 l 125 364 l 253 364 l 253 -106 l 125 -106 z "},"†":{"ha":601,"x_min":74,"x_max":539,"o":"m 74 622 l 74 740 l 263 740 l 244 944 l 368 944 l 350 740 l 539 740 l 539 622 l 315 672 l 296 672 l 74 622 m 296 -315 l 250 -104 l 250 513 l 296 646 l 315 646 l 363 513 l 363 -104 l 315 -315 l 296 -315 z "},"ℓ":{"ha":365,"x_min":104,"x_max":393,"o":"m 249 -19 q 140 22 175 -19 q 104 153 104 64 l 104 875 l 210 889 l 210 153 q 272 76 210 76 q 351 104 310 76 l 393 29 q 249 -19 317 -19 z "},"‡":{"ha":601,"x_min":74,"x_max":539,"o":"m 74 622 l 74 740 l 263 740 l 244 944 l 368 944 l 350 740 l 539 740 l 539 622 l 315 672 l 296 672 l 74 622 m 296 -17 l 250 117 l 250 513 l 296 646 l 315 646 l 363 513 l 363 117 l 315 -17 l 296 -17 m 244 -315 l 263 -111 l 74 -111 l 74 7 l 296 -43 l 317 -43 l 539 7 l 539 -111 l 350 -111 l 368 -315 l 244 -315 z "},"℮":{"ha":833,"x_min":61,"x_max":779,"o":"m 419 -24 q 233 25 314 -24 q 106 160 151 74 q 61 360 61 246 q 106 563 61 476 q 231 696 150 649 q 419 743 311 743 q 676 642 581 743 q 779 360 771 540 l 218 360 l 218 108 q 419 26 304 26 q 688 193 592 26 l 736 164 q 635 52 682 93 q 538 -6 589 11 q 419 -24 486 -24 m 218 410 l 622 410 l 622 611 q 418 694 535 694 q 218 611 300 694 l 218 410 z "},"¢":{"ha":719,"x_min":104,"x_max":661,"o":"m 331 -118 l 344 83 q 169 193 235 103 q 104 422 104 283 q 183 692 104 589 q 394 808 261 796 l 407 979 l 481 979 l 468 810 q 540 793 506 806 q 610 761 575 781 l 582 672 q 522 698 551 688 q 461 711 492 708 l 425 176 q 610 251 532 181 l 661 179 q 418 78 560 82 l 404 -118 l 331 -118 m 351 185 l 388 707 q 261 617 308 690 q 214 436 214 544 q 250 269 214 335 q 351 185 286 204 z "},"¤":{"ha":719,"x_min":57,"x_max":663,"o":"m 126 128 l 58 196 l 157 294 q 121 431 121 351 q 156 565 121 507 l 57 664 l 125 732 l 224 633 q 286 660 251 650 q 360 669 321 669 q 431 660 397 669 q 493 633 465 650 l 593 733 l 661 665 l 561 565 q 589 503 579 538 q 599 431 599 469 q 589 358 599 392 q 563 297 579 325 l 663 197 l 594 129 l 494 228 q 360 192 438 192 q 225 226 282 192 l 126 128 m 360 281 q 468 322 426 281 q 510 431 510 363 q 468 539 510 497 q 360 581 426 581 q 251 540 292 581 q 210 431 210 499 q 251 322 210 363 q 360 281 292 281 z "},"$":{"ha":719,"x_min":85,"x_max":633,"o":"m 289 -118 l 296 -21 q 176 -3 232 -18 q 85 38 121 11 l 131 121 q 204 91 156 103 q 303 76 253 79 l 325 404 l 257 426 q 146 508 188 449 q 104 646 104 568 q 172 814 104 751 q 358 882 240 876 l 365 979 l 439 979 l 432 881 q 526 858 479 875 q 608 818 572 842 l 564 732 q 504 761 543 747 q 425 781 465 775 l 404 488 l 467 468 q 590 384 546 442 q 633 244 633 326 q 600 116 633 172 q 507 25 567 60 q 369 -19 447 -10 l 363 -118 l 289 -118 m 333 510 l 351 783 q 245 741 283 776 q 207 650 207 706 q 233 569 207 603 q 306 519 260 535 l 333 510 m 376 81 q 488 135 446 93 q 529 239 529 178 q 425 372 529 338 l 397 381 l 376 81 z "},"€":{"ha":719,"x_min":33,"x_max":704,"o":"m 451 -22 q 248 51 328 -22 q 140 261 168 124 l 33 261 l 33 344 l 129 344 q 127 380 128 361 q 126 417 126 399 q 126 447 126 432 q 128 476 126 463 l 33 476 l 33 560 l 139 560 q 259 797 169 711 q 482 883 349 883 q 600 865 539 883 q 704 818 661 847 l 657 740 q 576 778 628 764 q 472 793 525 793 q 330 731 388 793 q 249 560 272 669 l 510 560 l 510 476 l 238 476 q 236 447 236 463 q 236 417 236 432 q 237 379 236 397 q 239 344 238 361 l 510 344 l 510 261 l 251 261 q 454 76 296 76 q 560 88 517 76 q 627 110 604 99 q 650 121 650 121 l 693 38 q 583 -6 646 10 q 451 -22 519 -22 z "},"₣":{"ha":639,"x_min":36,"x_max":625,"o":"m 125 0 l 125 186 l 36 186 l 36 269 l 125 269 l 125 844 l 625 844 l 625 744 l 236 744 l 236 494 l 551 494 l 551 394 l 236 394 l 236 269 l 513 269 l 513 186 l 236 186 l 236 0 l 125 0 z "},"₤":{"ha":719,"x_min":61,"x_max":626,"o":"m 150 0 l 150 247 l 61 247 l 61 331 l 150 331 l 150 463 l 61 463 l 61 546 l 151 546 q 240 797 163 711 q 453 883 317 883 q 622 850 550 883 l 579 767 q 442 793 522 793 q 250 546 269 793 l 538 546 l 538 463 l 249 463 l 249 331 l 538 331 l 538 247 l 249 247 l 249 99 l 626 99 l 626 0 l 150 0 z "},"£":{"ha":719,"x_min":61,"x_max":626,"o":"m 150 0 l 150 372 l 61 372 l 61 463 l 150 463 l 150 489 q 228 783 150 682 q 453 883 306 883 q 622 850 550 883 l 579 767 q 442 793 522 793 q 249 489 249 793 l 249 463 l 538 463 l 538 372 l 249 372 l 249 99 l 626 99 l 626 0 l 150 0 z "},"¥":{"ha":719,"x_min":44,"x_max":675,"o":"m 311 0 l 311 213 l 103 213 l 103 296 l 311 296 l 311 335 l 264 428 l 103 428 l 103 511 l 221 511 l 44 860 l 158 860 l 360 457 l 561 860 l 675 860 l 497 511 l 617 511 l 617 428 l 456 428 l 408 335 l 408 296 l 617 296 l 617 213 l 408 213 l 408 0 l 311 0 z "},"+":{"ha":719,"x_min":65,"x_max":654,"o":"m 310 138 l 310 382 l 65 382 l 65 482 l 310 482 l 310 726 l 410 726 l 410 482 l 654 482 l 654 382 l 410 382 l 410 138 l 310 138 z "},"−":{"ha":719,"x_min":65,"x_max":654,"o":"m 65 382 l 65 482 l 654 482 l 654 382 l 65 382 z "},"×":{"ha":719,"x_min":86,"x_max":633,"o":"m 157 158 l 86 229 l 289 432 l 86 635 l 157 706 l 360 503 l 563 706 l 633 635 l 431 432 l 633 229 l 563 158 l 360 361 l 157 158 z "},"÷":{"ha":719,"x_min":65,"x_max":654,"o":"m 360 551 q 303 573 325 551 q 282 629 282 594 q 303 686 282 665 q 360 707 325 707 q 417 686 396 707 q 438 629 438 665 q 417 573 438 594 q 360 551 396 551 m 65 382 l 65 482 l 654 482 l 654 382 l 65 382 m 360 157 q 303 178 325 157 q 282 235 282 200 q 303 292 282 271 q 360 313 325 313 q 417 292 396 313 q 438 235 438 271 q 417 178 438 200 q 360 157 396 157 z "},"=":{"ha":719,"x_min":65,"x_max":654,"o":"m 65 507 l 65 607 l 654 607 l 654 507 l 65 507 m 65 257 l 65 357 l 654 357 l 654 257 l 65 257 z "},"≠":{"ha":719,"x_min":65,"x_max":654,"o":"m 65 507 l 65 607 l 654 607 l 654 507 l 65 507 m 65 257 l 65 357 l 654 357 l 654 257 l 65 257 m 124 -118 l 493 979 l 596 979 l 226 -118 l 124 -118 z "},">":{"ha":719,"x_min":104,"x_max":622,"o":"m 156 122 l 104 207 l 485 432 l 104 657 l 156 742 l 622 465 l 622 397 l 156 122 z "},"<":{"ha":719,"x_min":97,"x_max":615,"o":"m 564 122 l 97 397 l 97 465 l 564 742 l 615 657 l 235 432 l 615 207 l 564 122 z "},"≥":{"ha":719,"x_min":81,"x_max":639,"o":"m 156 122 l 104 207 l 485 432 l 104 657 l 156 742 l 622 465 l 622 397 l 156 122 m 81 -67 l 81 33 l 639 33 l 639 -67 l 81 -67 z "},"≤":{"ha":719,"x_min":81,"x_max":639,"o":"m 564 122 l 97 397 l 97 465 l 564 742 l 615 657 l 235 432 l 615 207 l 564 122 m 81 -67 l 81 33 l 639 33 l 639 -67 l 81 -67 z "},"±":{"ha":719,"x_min":65,"x_max":654,"o":"m 310 138 l 310 382 l 65 382 l 65 482 l 310 482 l 310 726 l 410 726 l 410 482 l 654 482 l 654 382 l 410 382 l 410 138 l 310 138 m 65 -67 l 65 33 l 654 33 l 654 -67 l 65 -67 z "},"≈":{"ha":719,"x_min":65,"x_max":654,"o":"m 525 451 q 438 466 481 451 q 355 500 396 481 q 273 534 314 519 q 192 549 232 549 q 65 501 122 549 l 65 607 q 192 654 122 654 q 274 640 233 654 q 356 606 315 625 q 440 572 397 586 q 525 557 482 557 q 654 607 596 557 l 654 501 q 525 451 596 451 m 525 207 q 438 222 481 207 q 355 256 396 236 q 273 290 314 275 q 192 304 232 304 q 65 257 122 304 l 65 363 q 192 410 122 410 q 274 395 233 410 q 356 361 315 381 q 440 327 397 342 q 525 313 482 313 q 654 363 596 313 l 654 257 q 525 207 596 207 z "},"~":{"ha":719,"x_min":58,"x_max":661,"o":"m 490 344 q 417 360 451 344 q 351 398 383 376 q 289 435 319 419 q 229 451 258 451 q 181 433 203 451 q 136 374 160 415 l 58 417 q 137 520 96 488 q 229 553 178 553 q 302 537 268 553 q 368 499 336 521 q 431 462 400 478 q 490 446 461 446 q 538 464 517 446 q 583 524 560 482 l 661 481 q 582 377 622 410 q 490 344 542 344 z "},"¬":{"ha":719,"x_min":65,"x_max":654,"o":"m 65 382 l 65 482 l 654 482 l 654 204 l 560 204 l 560 382 l 65 382 z "},"^":{"ha":719,"x_min":50,"x_max":669,"o":"m 135 393 l 50 444 l 326 911 l 394 911 l 669 444 l 585 393 l 360 774 l 135 393 z "},"∞":{"ha":1019,"x_min":69,"x_max":950,"o":"m 281 201 q 124 261 179 201 q 69 431 69 321 q 124 601 69 542 q 281 660 179 660 q 417 615 363 660 q 511 513 471 571 q 606 615 553 571 q 739 660 658 660 q 896 601 842 660 q 950 431 950 542 q 896 261 950 321 q 739 201 842 201 q 612 249 665 201 q 514 358 558 297 q 453 282 486 318 q 378 224 421 246 q 281 201 336 201 m 278 292 q 381 335 339 292 q 460 435 422 378 q 376 530 421 490 q 274 569 332 569 q 168 431 168 569 q 278 292 168 292 m 746 292 q 851 431 851 292 q 742 569 851 569 q 642 529 683 569 q 565 433 601 489 q 644 334 603 376 q 746 292 686 292 z "},"∫":{"ha":583,"x_min":0,"x_max":583,"o":"m 165 -229 q 0 -174 86 -229 l 42 -99 q 107 -124 82 -117 q 151 -131 132 -131 q 212 -101 192 -131 q 236 -8 232 -72 l 236 767 q 283 934 236 875 q 418 993 331 993 q 583 938 497 993 l 542 863 q 476 888 501 881 q 432 894 451 894 q 347 772 347 894 l 347 -3 q 300 -170 347 -111 q 165 -229 253 -229 z "},"Ω":{"ha":1125,"x_min":125,"x_max":989,"o":"m 125 0 l 125 100 l 311 100 l 311 228 q 136 553 136 347 q 249 857 136 747 q 561 967 361 967 q 876 857 763 967 q 989 553 989 747 q 814 228 989 347 l 814 100 l 986 100 l 986 0 l 711 0 l 711 258 q 833 375 788 294 q 878 553 878 456 q 794 782 878 699 q 561 865 710 865 q 331 783 414 865 q 247 553 247 700 q 292 375 247 456 q 414 258 338 294 l 414 0 l 125 0 z "},"∆":{"ha":772,"x_min":0,"x_max":772,"o":"m 0 0 l 318 972 l 454 972 l 772 0 l 0 0 m 147 100 l 625 100 l 386 846 l 147 100 z "},"∏":{"ha":936,"x_min":69,"x_max":867,"o":"m 167 -208 l 167 869 l 69 869 l 69 972 l 867 972 l 867 869 l 769 869 l 769 -208 l 658 -208 l 658 869 l 278 869 l 278 -208 l 167 -208 z "},"∑":{"ha":769,"x_min":69,"x_max":728,"o":"m 69 -208 l 69 -106 l 347 382 l 69 869 l 69 972 l 728 972 l 728 869 l 194 869 l 472 382 l 194 -106 l 728 -106 l 728 -208 l 69 -208 z "},"√":{"ha":704,"x_min":69,"x_max":843,"o":"m 249 -208 l 69 319 l 157 319 l 299 -117 l 588 1014 l 843 1014 l 843 915 l 676 915 l 385 -208 l 249 -208 z "},"∂":{"ha":751,"x_min":79,"x_max":679,"o":"m 372 -19 q 217 22 283 -19 q 115 138 151 63 q 79 313 79 213 q 122 487 79 408 q 238 612 165 565 q 399 658 311 658 q 476 649 439 658 q 542 624 514 639 q 399 821 497 744 q 154 919 300 897 l 178 1000 q 550 799 421 953 q 679 404 679 644 q 641 183 679 278 q 533 34 603 88 q 372 -19 464 -19 m 372 72 q 524 161 468 72 q 579 404 579 250 q 571 513 579 461 q 499 552 539 538 q 418 567 458 567 q 299 532 351 567 q 215 438 246 497 q 185 306 185 379 q 235 135 185 199 q 372 72 286 72 z "},"µ":{"ha":790,"x_min":104,"x_max":672,"o":"m 104 -283 l 104 694 l 210 694 l 210 272 q 350 75 210 75 q 459 117 410 75 q 538 229 508 158 q 567 389 567 300 l 567 694 l 672 694 l 672 0 l 594 -7 l 567 138 q 466 23 526 65 q 332 -19 406 -19 q 189 43 235 -19 l 178 -283 l 104 -283 z "},"%":{"ha":1069,"x_min":21,"x_max":1049,"o":"m 299 -118 l 668 979 l 771 979 l 401 -118 l 299 -118 m 213 311 q 72 384 124 311 q 21 583 21 457 q 72 783 21 711 q 213 856 124 856 q 353 784 303 856 q 404 583 404 713 q 353 383 404 454 q 213 311 303 311 m 213 401 q 282 450 257 401 q 307 583 307 499 q 282 717 307 669 q 213 765 257 765 q 144 717 169 765 q 118 583 118 668 q 144 450 118 499 q 213 401 169 401 m 857 6 q 716 77 767 6 q 665 278 665 149 q 716 478 665 407 q 857 550 767 550 q 998 478 947 550 q 1049 278 1049 406 q 998 78 1049 151 q 857 6 947 6 m 857 96 q 926 144 901 96 q 951 278 951 193 q 926 411 951 363 q 857 460 901 460 q 788 412 813 460 q 763 278 763 364 q 788 144 763 193 q 857 96 813 96 z "},"‰":{"ha":1511,"x_min":21,"x_max":1490,"o":"m 299 -118 l 668 979 l 771 979 l 401 -118 l 299 -118 m 213 311 q 72 384 124 311 q 21 583 21 457 q 72 783 21 711 q 213 856 124 856 q 353 784 303 856 q 404 583 404 713 q 353 383 404 454 q 213 311 303 311 m 213 401 q 282 450 257 401 q 307 583 307 499 q 282 717 307 669 q 213 765 257 765 q 144 717 169 765 q 118 583 118 668 q 144 450 118 499 q 213 401 169 401 m 857 6 q 716 77 767 6 q 665 278 665 149 q 716 478 665 407 q 857 550 767 550 q 998 478 947 550 q 1049 278 1049 406 q 998 78 1049 151 q 857 6 947 6 m 1299 6 q 1158 77 1208 6 q 1107 278 1107 149 q 1158 478 1107 407 q 1299 550 1208 550 q 1440 478 1389 550 q 1490 278 1490 406 q 1440 78 1490 151 q 1299 6 1389 6 m 857 96 q 926 144 901 96 q 951 278 951 193 q 926 411 951 363 q 857 460 901 460 q 788 412 813 460 q 763 278 763 364 q 788 144 763 193 q 857 96 813 96 m 1299 96 q 1368 144 1343 96 q 1393 278 1393 193 q 1368 411 1393 363 q 1299 460 1343 460 q 1229 412 1254 460 q 1204 278 1204 364 q 1229 144 1204 193 q 1299 96 1254 96 z "},"◊":{"ha":772,"x_min":56,"x_max":717,"o":"m 318 -208 l 56 382 l 318 972 l 454 972 l 717 382 l 454 -208 l 318 -208 m 386 -115 l 601 382 l 386 879 l 171 382 l 386 -115 z "},"̈":{"ha":0,"x_min":67,"x_max":447,"o":"m 381 828 q 332 846 350 828 q 314 894 314 864 q 332 943 314 925 q 381 961 350 961 q 428 942 410 961 q 447 894 447 924 q 428 846 447 864 q 381 828 410 828 m 133 828 q 85 846 103 828 q 67 894 67 864 q 85 943 67 925 q 133 961 103 961 q 181 942 163 961 q 200 894 200 924 q 181 846 200 864 q 133 828 163 828 z "},"̇":{"ha":0,"x_min":42,"x_max":203,"o":"m 122 814 q 63 835 85 814 q 42 894 42 857 q 63 953 42 931 q 122 975 85 975 q 181 953 158 975 q 203 894 203 931 q 181 837 203 860 q 122 814 158 814 z "},"̀":{"ha":0,"x_min":28,"x_max":311,"o":"m 278 743 l 28 947 q 97 1021 51 1021 q 169 972 135 1021 l 311 778 l 278 743 z "},"́":{"ha":0,"x_min":57,"x_max":340,"o":"m 90 743 l 57 778 l 199 972 q 271 1021 233 1021 q 340 947 314 1021 l 90 743 z "},"̋":{"ha":0,"x_min":51,"x_max":465,"o":"m 274 743 l 235 771 l 322 958 q 393 1021 350 1021 q 465 961 431 1021 l 274 743 m 90 743 l 51 771 l 139 958 q 210 1021 167 1021 q 282 961 247 1021 l 90 743 z "},"̂":{"ha":0,"x_min":42,"x_max":433,"o":"m 75 746 l 42 781 l 176 971 q 205 1001 192 992 q 238 1010 218 1010 q 270 1001 257 1010 q 299 971 283 993 l 433 781 l 400 746 l 238 894 l 75 746 z "},"̌":{"ha":0,"x_min":42,"x_max":433,"o":"m 238 746 q 205 755 218 746 q 176 785 192 764 l 42 975 l 75 1010 l 238 861 l 400 1010 l 433 975 l 299 785 q 270 754 283 763 q 238 746 257 746 z "},"̆":{"ha":0,"x_min":42,"x_max":381,"o":"m 211 793 q 88 840 135 793 q 42 964 42 886 l 128 964 q 151 901 128 925 q 211 878 174 878 q 271 901 247 878 q 294 964 294 925 l 381 964 q 334 840 381 888 q 211 793 288 793 z "},"̊":{"ha":0,"x_min":42,"x_max":322,"o":"m 182 746 q 80 784 118 746 q 42 886 42 822 q 80 988 42 950 q 182 1026 118 1026 q 283 988 244 1026 q 322 886 322 949 q 283 784 322 822 q 182 746 244 746 m 182 817 q 232 836 213 817 q 251 886 251 856 q 232 936 251 917 q 182 956 213 956 q 131 937 150 956 q 113 886 113 918 q 131 835 113 854 q 182 817 150 817 z "},"̃":{"ha":0,"x_min":69,"x_max":510,"o":"m 135 800 l 69 811 q 190 961 94 961 q 257 951 225 961 q 319 930 289 940 q 379 919 350 919 q 444 981 435 919 l 510 969 q 383 819 482 819 q 319 830 350 819 q 258 851 288 840 q 200 861 229 861 q 135 800 143 861 z "},"̄":{"ha":0,"x_min":101,"x_max":478,"o":"m 101 840 l 101 940 l 478 940 l 478 840 l 101 840 z "},"̒":{"ha":0,"x_min":56,"x_max":222,"o":"m 222 1085 l 210 890 q 186 833 208 853 q 128 814 164 814 q 85 823 106 814 q 56 846 65 832 l 176 1099 l 222 1085 z "},"̦":{"ha":0,"x_min":94,"x_max":261,"o":"m 140 -368 l 94 -354 l 107 -160 q 131 -103 110 -122 q 189 -83 153 -83 q 231 -92 211 -83 q 261 -115 251 -101 l 140 -368 z "},"̧":{"ha":0,"x_min":132,"x_max":390,"o":"m 246 -283 q 181 -272 215 -283 q 132 -246 147 -260 l 164 -189 q 197 -205 172 -197 q 240 -212 221 -212 q 287 -199 269 -212 q 304 -164 304 -186 q 226 -122 304 -122 l 193 -122 l 226 33 l 294 33 l 272 -69 q 358 -97 325 -69 q 390 -169 390 -125 q 351 -253 390 -222 q 246 -283 313 -283 z "},"̨":{"ha":0,"x_min":219,"x_max":461,"o":"m 339 -287 q 253 -256 288 -287 q 219 -175 219 -224 q 255 -75 219 -122 q 350 0 290 -28 l 428 0 q 336 -78 368 -36 q 304 -161 304 -121 q 318 -200 304 -185 q 354 -215 332 -215 q 392 -206 371 -215 q 425 -185 413 -197 l 461 -232 q 408 -271 444 -254 q 339 -287 371 -287 z "},"¨":{"ha":514,"x_min":67,"x_max":447,"o":"m 381 828 q 332 846 350 828 q 314 894 314 864 q 332 943 314 925 q 381 961 350 961 q 428 942 410 961 q 447 894 447 924 q 428 846 447 864 q 381 828 410 828 m 133 828 q 85 846 103 828 q 67 894 67 864 q 85 943 67 925 q 133 961 103 961 q 181 942 163 961 q 200 894 200 924 q 181 846 200 864 q 133 828 163 828 z "},"˙":{"ha":244,"x_min":42,"x_max":203,"o":"m 122 814 q 63 835 85 814 q 42 894 42 857 q 63 953 42 931 q 122 975 85 975 q 181 953 158 975 q 203 894 203 931 q 181 837 203 860 q 122 814 158 814 z "},"`":{"ha":292,"x_min":28,"x_max":311,"o":"m 278 743 l 28 947 q 97 1021 51 1021 q 169 972 135 1021 l 311 778 l 278 743 z "},"´":{"ha":292,"x_min":57,"x_max":340,"o":"m 90 743 l 57 778 l 199 972 q 271 1021 233 1021 q 340 947 314 1021 l 90 743 z "},"˝":{"ha":465,"x_min":51,"x_max":465,"o":"m 274 743 l 235 771 l 322 958 q 393 1021 350 1021 q 465 961 431 1021 l 274 743 m 90 743 l 51 771 l 139 958 q 210 1021 167 1021 q 282 961 247 1021 l 90 743 z "},"ˆ":{"ha":475,"x_min":42,"x_max":433,"o":"m 75 746 l 42 781 l 176 971 q 205 1001 192 992 q 238 1010 218 1010 q 270 1001 257 1010 q 299 971 283 993 l 433 781 l 400 746 l 238 894 l 75 746 z "},"ˇ":{"ha":475,"x_min":42,"x_max":433,"o":"m 238 746 q 205 755 218 746 q 176 785 192 764 l 42 975 l 75 1010 l 238 861 l 400 1010 l 433 975 l 299 785 q 270 754 283 763 q 238 746 257 746 z "},"˘":{"ha":422,"x_min":42,"x_max":381,"o":"m 211 793 q 88 840 135 793 q 42 964 42 886 l 128 964 q 151 901 128 925 q 211 878 174 878 q 271 901 247 878 q 294 964 294 925 l 381 964 q 334 840 381 888 q 211 793 288 793 z "},"˚":{"ha":364,"x_min":42,"x_max":322,"o":"m 182 746 q 80 784 118 746 q 42 886 42 822 q 80 988 42 950 q 182 1026 118 1026 q 283 988 244 1026 q 322 886 322 949 q 283 784 322 822 q 182 746 244 746 m 182 817 q 232 836 213 817 q 251 886 251 856 q 232 936 251 917 q 182 956 213 956 q 131 937 150 956 q 113 886 113 918 q 131 835 113 854 q 182 817 150 817 z "},"˜":{"ha":579,"x_min":69,"x_max":510,"o":"m 135 800 l 69 811 q 190 961 94 961 q 257 951 225 961 q 319 930 289 940 q 379 919 350 919 q 444 981 435 919 l 510 969 q 383 819 482 819 q 319 830 350 819 q 258 851 288 840 q 200 861 229 861 q 135 800 143 861 z "},"¯":{"ha":579,"x_min":101,"x_max":478,"o":"m 101 840 l 101 940 l 478 940 l 478 840 l 101 840 z "},"¸":{"ha":529,"x_min":132,"x_max":390,"o":"m 246 -283 q 181 -272 215 -283 q 132 -246 147 -260 l 164 -189 q 197 -205 172 -197 q 240 -212 221 -212 q 287 -199 269 -212 q 304 -164 304 -186 q 226 -122 304 -122 l 193 -122 l 226 33 l 294 33 l 272 -69 q 358 -97 325 -69 q 390 -169 390 -125 q 351 -253 390 -222 q 246 -283 313 -283 z "},"˛":{"ha":658,"x_min":219,"x_max":461,"o":"m 339 -287 q 253 -256 288 -287 q 219 -175 219 -224 q 255 -75 219 -122 q 350 0 290 -28 l 428 0 q 336 -78 368 -36 q 304 -161 304 -121 q 318 -200 304 -185 q 354 -215 332 -215 q 392 -206 371 -215 q 425 -185 413 -197 l 461 -232 q 408 -271 444 -254 q 339 -287 371 -287 z "}}}
